G04 #@! TF.GenerationSoftware,KiCad,Pcbnew,(5.1.5)-3*
G04 #@! TF.CreationDate,2021-11-13T16:12:43+01:00*
G04 #@! TF.ProjectId,rp4b-power-adapter,72703462-2d70-46f7-9765-722d61646170,rev?*
G04 #@! TF.SameCoordinates,PX5f5e100PY6052340*
G04 #@! TF.FileFunction,Copper,L1,Top*
G04 #@! TF.FilePolarity,Positive*
%FSLAX46Y46*%
G04 Gerber Fmt 4.6, Leading zero omitted, Abs format (unit mm)*
G04 Created by KiCad (PCBNEW (5.1.5)-3) date 2021-11-13 16:12:43*
%MOMM*%
%LPD*%
G04 APERTURE LIST*
%ADD10R,1.020000X1.780000*%
%ADD11C,0.100000*%
%ADD12R,2.500000X2.300000*%
%ADD13R,1.450000X0.600000*%
%ADD14R,1.450000X0.300000*%
%ADD15O,2.100000X1.000000*%
%ADD16O,1.600000X1.000000*%
%ADD17C,0.800000*%
%ADD18C,0.600000*%
%ADD19C,0.800000*%
%ADD20C,0.300000*%
%ADD21C,0.400000*%
G04 APERTURE END LIST*
D10*
X49630000Y7410000D03*
X47090000Y7410000D03*
X44550000Y7410000D03*
X42010000Y7410000D03*
X39470000Y7410000D03*
X36930000Y7410000D03*
X34390000Y7410000D03*
X31850000Y7410000D03*
X29310000Y7410000D03*
X26770000Y7410000D03*
X24230000Y7410000D03*
X21690000Y7410000D03*
X19150000Y7410000D03*
X16610000Y7410000D03*
X14070000Y7410000D03*
X11530000Y7410000D03*
X8990000Y7410000D03*
X6450000Y7410000D03*
X3910000Y7410000D03*
X1370000Y7410000D03*
X49630000Y1590000D03*
X47090000Y1590000D03*
X44550000Y1590000D03*
X42010000Y1590000D03*
X39470000Y1590000D03*
X36930000Y1590000D03*
X34390000Y1590000D03*
X31850000Y1590000D03*
X29310000Y1590000D03*
X26770000Y1590000D03*
X24230000Y1590000D03*
X21690000Y1590000D03*
X19150000Y1590000D03*
X16610000Y1590000D03*
X14070000Y1590000D03*
X11530000Y1590000D03*
X8990000Y1590000D03*
X6450000Y1590000D03*
X3910000Y1590000D03*
X1370000Y1590000D03*
G04 #@! TA.AperFunction,SMDPad,CuDef*
D11*
G36*
X66444603Y17224037D02*
G01*
X66464018Y17221157D01*
X66483057Y17216388D01*
X66501537Y17209776D01*
X66519279Y17201384D01*
X66536114Y17191294D01*
X66551879Y17179602D01*
X66566421Y17166421D01*
X66579602Y17151879D01*
X66591294Y17136114D01*
X66601384Y17119279D01*
X66609776Y17101537D01*
X66616388Y17083057D01*
X66621157Y17064018D01*
X66624037Y17044603D01*
X66625000Y17025000D01*
X66625000Y16475000D01*
X66624037Y16455397D01*
X66621157Y16435982D01*
X66616388Y16416943D01*
X66609776Y16398463D01*
X66601384Y16380721D01*
X66591294Y16363886D01*
X66579602Y16348121D01*
X66566421Y16333579D01*
X66551879Y16320398D01*
X66536114Y16308706D01*
X66519279Y16298616D01*
X66501537Y16290224D01*
X66483057Y16283612D01*
X66464018Y16278843D01*
X66444603Y16275963D01*
X66425000Y16275000D01*
X66025000Y16275000D01*
X66005397Y16275963D01*
X65985982Y16278843D01*
X65966943Y16283612D01*
X65948463Y16290224D01*
X65930721Y16298616D01*
X65913886Y16308706D01*
X65898121Y16320398D01*
X65883579Y16333579D01*
X65870398Y16348121D01*
X65858706Y16363886D01*
X65848616Y16380721D01*
X65840224Y16398463D01*
X65833612Y16416943D01*
X65828843Y16435982D01*
X65825963Y16455397D01*
X65825000Y16475000D01*
X65825000Y17025000D01*
X65825963Y17044603D01*
X65828843Y17064018D01*
X65833612Y17083057D01*
X65840224Y17101537D01*
X65848616Y17119279D01*
X65858706Y17136114D01*
X65870398Y17151879D01*
X65883579Y17166421D01*
X65898121Y17179602D01*
X65913886Y17191294D01*
X65930721Y17201384D01*
X65948463Y17209776D01*
X65966943Y17216388D01*
X65985982Y17221157D01*
X66005397Y17224037D01*
X66025000Y17225000D01*
X66425000Y17225000D01*
X66444603Y17224037D01*
G37*
G04 #@! TD.AperFunction*
G04 #@! TA.AperFunction,SMDPad,CuDef*
G36*
X68094603Y17224037D02*
G01*
X68114018Y17221157D01*
X68133057Y17216388D01*
X68151537Y17209776D01*
X68169279Y17201384D01*
X68186114Y17191294D01*
X68201879Y17179602D01*
X68216421Y17166421D01*
X68229602Y17151879D01*
X68241294Y17136114D01*
X68251384Y17119279D01*
X68259776Y17101537D01*
X68266388Y17083057D01*
X68271157Y17064018D01*
X68274037Y17044603D01*
X68275000Y17025000D01*
X68275000Y16475000D01*
X68274037Y16455397D01*
X68271157Y16435982D01*
X68266388Y16416943D01*
X68259776Y16398463D01*
X68251384Y16380721D01*
X68241294Y16363886D01*
X68229602Y16348121D01*
X68216421Y16333579D01*
X68201879Y16320398D01*
X68186114Y16308706D01*
X68169279Y16298616D01*
X68151537Y16290224D01*
X68133057Y16283612D01*
X68114018Y16278843D01*
X68094603Y16275963D01*
X68075000Y16275000D01*
X67675000Y16275000D01*
X67655397Y16275963D01*
X67635982Y16278843D01*
X67616943Y16283612D01*
X67598463Y16290224D01*
X67580721Y16298616D01*
X67563886Y16308706D01*
X67548121Y16320398D01*
X67533579Y16333579D01*
X67520398Y16348121D01*
X67508706Y16363886D01*
X67498616Y16380721D01*
X67490224Y16398463D01*
X67483612Y16416943D01*
X67478843Y16435982D01*
X67475963Y16455397D01*
X67475000Y16475000D01*
X67475000Y17025000D01*
X67475963Y17044603D01*
X67478843Y17064018D01*
X67483612Y17083057D01*
X67490224Y17101537D01*
X67498616Y17119279D01*
X67508706Y17136114D01*
X67520398Y17151879D01*
X67533579Y17166421D01*
X67548121Y17179602D01*
X67563886Y17191294D01*
X67580721Y17201384D01*
X67598463Y17209776D01*
X67616943Y17216388D01*
X67635982Y17221157D01*
X67655397Y17224037D01*
X67675000Y17225000D01*
X68075000Y17225000D01*
X68094603Y17224037D01*
G37*
G04 #@! TD.AperFunction*
G04 #@! TA.AperFunction,SMDPad,CuDef*
G36*
X66444603Y19924037D02*
G01*
X66464018Y19921157D01*
X66483057Y19916388D01*
X66501537Y19909776D01*
X66519279Y19901384D01*
X66536114Y19891294D01*
X66551879Y19879602D01*
X66566421Y19866421D01*
X66579602Y19851879D01*
X66591294Y19836114D01*
X66601384Y19819279D01*
X66609776Y19801537D01*
X66616388Y19783057D01*
X66621157Y19764018D01*
X66624037Y19744603D01*
X66625000Y19725000D01*
X66625000Y19175000D01*
X66624037Y19155397D01*
X66621157Y19135982D01*
X66616388Y19116943D01*
X66609776Y19098463D01*
X66601384Y19080721D01*
X66591294Y19063886D01*
X66579602Y19048121D01*
X66566421Y19033579D01*
X66551879Y19020398D01*
X66536114Y19008706D01*
X66519279Y18998616D01*
X66501537Y18990224D01*
X66483057Y18983612D01*
X66464018Y18978843D01*
X66444603Y18975963D01*
X66425000Y18975000D01*
X66025000Y18975000D01*
X66005397Y18975963D01*
X65985982Y18978843D01*
X65966943Y18983612D01*
X65948463Y18990224D01*
X65930721Y18998616D01*
X65913886Y19008706D01*
X65898121Y19020398D01*
X65883579Y19033579D01*
X65870398Y19048121D01*
X65858706Y19063886D01*
X65848616Y19080721D01*
X65840224Y19098463D01*
X65833612Y19116943D01*
X65828843Y19135982D01*
X65825963Y19155397D01*
X65825000Y19175000D01*
X65825000Y19725000D01*
X65825963Y19744603D01*
X65828843Y19764018D01*
X65833612Y19783057D01*
X65840224Y19801537D01*
X65848616Y19819279D01*
X65858706Y19836114D01*
X65870398Y19851879D01*
X65883579Y19866421D01*
X65898121Y19879602D01*
X65913886Y19891294D01*
X65930721Y19901384D01*
X65948463Y19909776D01*
X65966943Y19916388D01*
X65985982Y19921157D01*
X66005397Y19924037D01*
X66025000Y19925000D01*
X66425000Y19925000D01*
X66444603Y19924037D01*
G37*
G04 #@! TD.AperFunction*
G04 #@! TA.AperFunction,SMDPad,CuDef*
G36*
X68094603Y19924037D02*
G01*
X68114018Y19921157D01*
X68133057Y19916388D01*
X68151537Y19909776D01*
X68169279Y19901384D01*
X68186114Y19891294D01*
X68201879Y19879602D01*
X68216421Y19866421D01*
X68229602Y19851879D01*
X68241294Y19836114D01*
X68251384Y19819279D01*
X68259776Y19801537D01*
X68266388Y19783057D01*
X68271157Y19764018D01*
X68274037Y19744603D01*
X68275000Y19725000D01*
X68275000Y19175000D01*
X68274037Y19155397D01*
X68271157Y19135982D01*
X68266388Y19116943D01*
X68259776Y19098463D01*
X68251384Y19080721D01*
X68241294Y19063886D01*
X68229602Y19048121D01*
X68216421Y19033579D01*
X68201879Y19020398D01*
X68186114Y19008706D01*
X68169279Y18998616D01*
X68151537Y18990224D01*
X68133057Y18983612D01*
X68114018Y18978843D01*
X68094603Y18975963D01*
X68075000Y18975000D01*
X67675000Y18975000D01*
X67655397Y18975963D01*
X67635982Y18978843D01*
X67616943Y18983612D01*
X67598463Y18990224D01*
X67580721Y18998616D01*
X67563886Y19008706D01*
X67548121Y19020398D01*
X67533579Y19033579D01*
X67520398Y19048121D01*
X67508706Y19063886D01*
X67498616Y19080721D01*
X67490224Y19098463D01*
X67483612Y19116943D01*
X67478843Y19135982D01*
X67475963Y19155397D01*
X67475000Y19175000D01*
X67475000Y19725000D01*
X67475963Y19744603D01*
X67478843Y19764018D01*
X67483612Y19783057D01*
X67490224Y19801537D01*
X67498616Y19819279D01*
X67508706Y19836114D01*
X67520398Y19851879D01*
X67533579Y19866421D01*
X67548121Y19879602D01*
X67563886Y19891294D01*
X67580721Y19901384D01*
X67598463Y19909776D01*
X67616943Y19916388D01*
X67635982Y19921157D01*
X67655397Y19924037D01*
X67675000Y19925000D01*
X68075000Y19925000D01*
X68094603Y19924037D01*
G37*
G04 #@! TD.AperFunction*
D12*
X7650000Y12900000D03*
X3350000Y12900000D03*
D13*
X71705000Y21250000D03*
X71705000Y20450000D03*
X71705000Y15550000D03*
X71705000Y14750000D03*
X71705000Y14750000D03*
X71705000Y15550000D03*
X71705000Y20450000D03*
X71705000Y21250000D03*
D14*
X71705000Y16250000D03*
X71705000Y16750000D03*
X71705000Y17250000D03*
X71705000Y18250000D03*
X71705000Y18750000D03*
X71705000Y19250000D03*
X71705000Y19750000D03*
X71705000Y17750000D03*
D15*
X72620000Y22320000D03*
X72620000Y13680000D03*
D16*
X76800000Y13680000D03*
X76800000Y22320000D03*
D17*
X64800000Y16750000D03*
X64800000Y19450000D03*
D18*
X66225000Y16750000D02*
X64800000Y16750000D01*
X70380000Y14750000D02*
X69630000Y14000000D01*
X71705000Y14750000D02*
X70380000Y14750000D01*
X70380000Y21250000D02*
X70100000Y21530000D01*
X71705000Y21250000D02*
X70380000Y21250000D01*
X66225000Y19450000D02*
X64800000Y19450000D01*
D19*
X6450000Y7410000D02*
X6450000Y9100000D01*
X6900000Y9550000D02*
X6900000Y10200000D01*
X6500000Y9100000D02*
X6600000Y9200000D01*
X6450000Y9100000D02*
X6500000Y9100000D01*
X6600000Y9200000D02*
X6900000Y9550000D01*
X6600000Y9200000D02*
X6800000Y9400000D01*
X6800000Y9400000D02*
X8100000Y9400000D01*
X16610000Y9100000D02*
X16600000Y9110000D01*
X16610000Y7410000D02*
X16610000Y9100000D01*
X24230000Y9100000D02*
X24250000Y9120000D01*
X24230000Y7410000D02*
X24230000Y9100000D01*
X36930000Y7410000D02*
X36930000Y9100000D01*
X42010000Y9100000D02*
X42000000Y9110000D01*
X42010000Y7410000D02*
X42010000Y9100000D01*
X16610000Y9100000D02*
X16610000Y9610000D01*
X24230000Y9100000D02*
X24230000Y9520000D01*
X42010000Y9100000D02*
X42010000Y9590000D01*
X36930000Y9100000D02*
X36930000Y9530000D01*
D18*
X63750000Y15550000D02*
X63200000Y16100000D01*
X71705000Y20450000D02*
X63750000Y20450000D01*
X63750000Y20450000D02*
X63200000Y21000000D01*
X63750000Y20450000D02*
X63200000Y19900000D01*
X62350000Y15550000D02*
X62800000Y16000000D01*
X71705000Y15550000D02*
X62350000Y15550000D01*
D20*
X71705000Y19750000D02*
X69250000Y19750000D01*
X68950000Y19450000D02*
X67875000Y19450000D01*
X69250000Y19750000D02*
X68950000Y19450000D01*
X71705000Y16750000D02*
X67875000Y16750000D01*
D21*
G36*
X4300000Y14760417D02*
G01*
X3581000Y14758000D01*
X3404000Y14581000D01*
X3404000Y12954000D01*
X3424000Y12954000D01*
X3424000Y12846000D01*
X3404000Y12846000D01*
X3404000Y11219000D01*
X3581000Y11042000D01*
X4300000Y11039583D01*
X4300000Y9009952D01*
X4141000Y9008000D01*
X3964000Y8831000D01*
X3964000Y7464000D01*
X3984000Y7464000D01*
X3984000Y7356000D01*
X3964000Y7356000D01*
X3964000Y7336000D01*
X3856000Y7336000D01*
X3856000Y7356000D01*
X2869000Y7356000D01*
X2713000Y7200000D01*
X2567000Y7200000D01*
X2411000Y7356000D01*
X1424000Y7356000D01*
X1424000Y7336000D01*
X1316000Y7336000D01*
X1316000Y7356000D01*
X1296000Y7356000D01*
X1296000Y7464000D01*
X1316000Y7464000D01*
X1316000Y8831000D01*
X1424000Y8831000D01*
X1424000Y7464000D01*
X2411000Y7464000D01*
X2588000Y7641000D01*
X2591426Y8300000D01*
X2688574Y8300000D01*
X2692000Y7641000D01*
X2869000Y7464000D01*
X3856000Y7464000D01*
X3856000Y8831000D01*
X3679000Y9008000D01*
X3400000Y9011426D01*
X3261208Y8997756D01*
X3127749Y8957272D01*
X3004753Y8891529D01*
X2896946Y8803054D01*
X2808471Y8695247D01*
X2742728Y8572251D01*
X2702244Y8438792D01*
X2688574Y8300000D01*
X2591426Y8300000D01*
X2577756Y8438792D01*
X2537272Y8572251D01*
X2471529Y8695247D01*
X2383054Y8803054D01*
X2275247Y8891529D01*
X2152251Y8957272D01*
X2018792Y8997756D01*
X1880000Y9011426D01*
X1601000Y9008000D01*
X1424000Y8831000D01*
X1316000Y8831000D01*
X1200000Y8947000D01*
X1200000Y11750000D01*
X1388574Y11750000D01*
X1402244Y11611208D01*
X1442728Y11477749D01*
X1508471Y11354753D01*
X1596946Y11246946D01*
X1704753Y11158471D01*
X1827749Y11092728D01*
X1961208Y11052244D01*
X2100000Y11038574D01*
X3119000Y11042000D01*
X3296000Y11219000D01*
X3296000Y12846000D01*
X1569000Y12846000D01*
X1392000Y12669000D01*
X1388574Y11750000D01*
X1200000Y11750000D01*
X1200000Y14050000D01*
X1388574Y14050000D01*
X1392000Y13131000D01*
X1569000Y12954000D01*
X3296000Y12954000D01*
X3296000Y14581000D01*
X3119000Y14758000D01*
X2100000Y14761426D01*
X1961208Y14747756D01*
X1827749Y14707272D01*
X1704753Y14641529D01*
X1596946Y14553054D01*
X1508471Y14445247D01*
X1442728Y14322251D01*
X1402244Y14188792D01*
X1388574Y14050000D01*
X1200000Y14050000D01*
X1200000Y16900000D01*
X4300000Y16900000D01*
X4300000Y14760417D01*
G37*
X4300000Y14760417D02*
X3581000Y14758000D01*
X3404000Y14581000D01*
X3404000Y12954000D01*
X3424000Y12954000D01*
X3424000Y12846000D01*
X3404000Y12846000D01*
X3404000Y11219000D01*
X3581000Y11042000D01*
X4300000Y11039583D01*
X4300000Y9009952D01*
X4141000Y9008000D01*
X3964000Y8831000D01*
X3964000Y7464000D01*
X3984000Y7464000D01*
X3984000Y7356000D01*
X3964000Y7356000D01*
X3964000Y7336000D01*
X3856000Y7336000D01*
X3856000Y7356000D01*
X2869000Y7356000D01*
X2713000Y7200000D01*
X2567000Y7200000D01*
X2411000Y7356000D01*
X1424000Y7356000D01*
X1424000Y7336000D01*
X1316000Y7336000D01*
X1316000Y7356000D01*
X1296000Y7356000D01*
X1296000Y7464000D01*
X1316000Y7464000D01*
X1316000Y8831000D01*
X1424000Y8831000D01*
X1424000Y7464000D01*
X2411000Y7464000D01*
X2588000Y7641000D01*
X2591426Y8300000D01*
X2688574Y8300000D01*
X2692000Y7641000D01*
X2869000Y7464000D01*
X3856000Y7464000D01*
X3856000Y8831000D01*
X3679000Y9008000D01*
X3400000Y9011426D01*
X3261208Y8997756D01*
X3127749Y8957272D01*
X3004753Y8891529D01*
X2896946Y8803054D01*
X2808471Y8695247D01*
X2742728Y8572251D01*
X2702244Y8438792D01*
X2688574Y8300000D01*
X2591426Y8300000D01*
X2577756Y8438792D01*
X2537272Y8572251D01*
X2471529Y8695247D01*
X2383054Y8803054D01*
X2275247Y8891529D01*
X2152251Y8957272D01*
X2018792Y8997756D01*
X1880000Y9011426D01*
X1601000Y9008000D01*
X1424000Y8831000D01*
X1316000Y8831000D01*
X1200000Y8947000D01*
X1200000Y11750000D01*
X1388574Y11750000D01*
X1402244Y11611208D01*
X1442728Y11477749D01*
X1508471Y11354753D01*
X1596946Y11246946D01*
X1704753Y11158471D01*
X1827749Y11092728D01*
X1961208Y11052244D01*
X2100000Y11038574D01*
X3119000Y11042000D01*
X3296000Y11219000D01*
X3296000Y12846000D01*
X1569000Y12846000D01*
X1392000Y12669000D01*
X1388574Y11750000D01*
X1200000Y11750000D01*
X1200000Y14050000D01*
X1388574Y14050000D01*
X1392000Y13131000D01*
X1569000Y12954000D01*
X3296000Y12954000D01*
X3296000Y14581000D01*
X3119000Y14758000D01*
X2100000Y14761426D01*
X1961208Y14747756D01*
X1827749Y14707272D01*
X1704753Y14641529D01*
X1596946Y14553054D01*
X1508471Y14445247D01*
X1442728Y14322251D01*
X1402244Y14188792D01*
X1388574Y14050000D01*
X1200000Y14050000D01*
X1200000Y16900000D01*
X4300000Y16900000D01*
X4300000Y14760417D01*
G36*
X63300000Y26667158D02*
G01*
X63300000Y16332842D01*
X62417158Y15450000D01*
X59582842Y15450000D01*
X58700000Y16332842D01*
X58700000Y21750000D01*
X58696157Y21789018D01*
X58684776Y21826537D01*
X58666294Y21861114D01*
X58641421Y21891421D01*
X57641421Y22891421D01*
X57611114Y22916294D01*
X57576537Y22934776D01*
X57539018Y22946157D01*
X57500000Y22950000D01*
X5500000Y22950000D01*
X5460982Y22946157D01*
X5423463Y22934776D01*
X5388886Y22916294D01*
X5358579Y22891421D01*
X4358579Y21891421D01*
X4333706Y21861114D01*
X4315224Y21826537D01*
X4303843Y21789018D01*
X4300000Y21750000D01*
X4300000Y16832842D01*
X3417158Y15950000D01*
X2082842Y15950000D01*
X1200000Y16832842D01*
X1200000Y26667158D01*
X1799842Y27267000D01*
X62700158Y27267000D01*
X63300000Y26667158D01*
G37*
X63300000Y26667158D02*
X63300000Y16332842D01*
X62417158Y15450000D01*
X59582842Y15450000D01*
X58700000Y16332842D01*
X58700000Y21750000D01*
X58696157Y21789018D01*
X58684776Y21826537D01*
X58666294Y21861114D01*
X58641421Y21891421D01*
X57641421Y22891421D01*
X57611114Y22916294D01*
X57576537Y22934776D01*
X57539018Y22946157D01*
X57500000Y22950000D01*
X5500000Y22950000D01*
X5460982Y22946157D01*
X5423463Y22934776D01*
X5388886Y22916294D01*
X5358579Y22891421D01*
X4358579Y21891421D01*
X4333706Y21861114D01*
X4315224Y21826537D01*
X4303843Y21789018D01*
X4300000Y21750000D01*
X4300000Y16832842D01*
X3417158Y15950000D01*
X2082842Y15950000D01*
X1200000Y16832842D01*
X1200000Y26667158D01*
X1799842Y27267000D01*
X62700158Y27267000D01*
X63300000Y26667158D01*
G36*
X63300000Y15450000D02*
G01*
X62950000Y15450000D01*
X62950000Y16300000D01*
X63300000Y16300000D01*
X63300000Y15450000D01*
G37*
X63300000Y15450000D02*
X62950000Y15450000D01*
X62950000Y16300000D01*
X63300000Y16300000D01*
X63300000Y15450000D01*
G36*
X76900000Y23917158D02*
G01*
X76900000Y23528000D01*
X76854000Y23528000D01*
X76854000Y22374000D01*
X76874000Y22374000D01*
X76874000Y22266000D01*
X76854000Y22266000D01*
X76854000Y21112000D01*
X76900000Y21112000D01*
X76900000Y14888000D01*
X76854000Y14888000D01*
X76854000Y13734000D01*
X76874000Y13734000D01*
X76874000Y13626000D01*
X76854000Y13626000D01*
X76854000Y12472000D01*
X76900000Y12472000D01*
X76900000Y10082842D01*
X76017158Y9200000D01*
X7582842Y9200000D01*
X6700000Y10082842D01*
X6700000Y11039583D01*
X7419000Y11042000D01*
X7596000Y11219000D01*
X7596000Y12846000D01*
X7704000Y12846000D01*
X7704000Y11219000D01*
X7881000Y11042000D01*
X8900000Y11038574D01*
X9038792Y11052244D01*
X9172251Y11092728D01*
X9295247Y11158471D01*
X9403054Y11246946D01*
X9491529Y11354753D01*
X9557272Y11477749D01*
X9597756Y11611208D01*
X9611426Y11750000D01*
X9608000Y12669000D01*
X9431000Y12846000D01*
X7704000Y12846000D01*
X7596000Y12846000D01*
X7576000Y12846000D01*
X7576000Y12954000D01*
X7596000Y12954000D01*
X7596000Y12974000D01*
X7704000Y12974000D01*
X7704000Y12954000D01*
X9431000Y12954000D01*
X9608000Y13131000D01*
X9609144Y13437881D01*
X70886513Y13437881D01*
X70933288Y13267608D01*
X71035583Y13053770D01*
X71177630Y12863998D01*
X71353971Y12705585D01*
X71557828Y12584618D01*
X71781368Y12505746D01*
X72016000Y12472000D01*
X72566000Y12472000D01*
X72566000Y13626000D01*
X72674000Y13626000D01*
X72674000Y12472000D01*
X73224000Y12472000D01*
X73458632Y12505746D01*
X73682172Y12584618D01*
X73886029Y12705585D01*
X74062370Y12863998D01*
X74204417Y13053770D01*
X74306712Y13267608D01*
X74353487Y13437881D01*
X75316513Y13437881D01*
X75363288Y13267608D01*
X75465583Y13053770D01*
X75607630Y12863998D01*
X75783971Y12705585D01*
X75987828Y12584618D01*
X76211368Y12505746D01*
X76446000Y12472000D01*
X76746000Y12472000D01*
X76746000Y13626000D01*
X75470415Y13626000D01*
X75316513Y13437881D01*
X74353487Y13437881D01*
X74199585Y13626000D01*
X72674000Y13626000D01*
X72566000Y13626000D01*
X71040415Y13626000D01*
X70886513Y13437881D01*
X9609144Y13437881D01*
X9610494Y13800000D01*
X68750000Y13800000D01*
X68789018Y13803843D01*
X68826537Y13815224D01*
X68861114Y13833706D01*
X68891421Y13858579D01*
X69574842Y14542000D01*
X70295000Y14542000D01*
X70272000Y14519000D01*
X70268574Y14450000D01*
X70282244Y14311208D01*
X70322728Y14177749D01*
X70388471Y14054753D01*
X70476946Y13946946D01*
X70584753Y13858471D01*
X70707749Y13792728D01*
X70841208Y13752244D01*
X70980000Y13738574D01*
X71036353Y13738965D01*
X71040415Y13734000D01*
X72566000Y13734000D01*
X72566000Y13751969D01*
X72568792Y13752244D01*
X72574581Y13754000D01*
X72674000Y13754000D01*
X72674000Y13734000D01*
X74199585Y13734000D01*
X74353487Y13922119D01*
X75316513Y13922119D01*
X75470415Y13734000D01*
X76746000Y13734000D01*
X76746000Y14888000D01*
X76446000Y14888000D01*
X76211368Y14854254D01*
X75987828Y14775382D01*
X75783971Y14654415D01*
X75607630Y14496002D01*
X75465583Y14306230D01*
X75363288Y14092392D01*
X75316513Y13922119D01*
X74353487Y13922119D01*
X74306712Y14092392D01*
X74204417Y14306230D01*
X74062370Y14496002D01*
X74012220Y14541053D01*
X74065433Y14620691D01*
X74143302Y14808685D01*
X74183000Y15008258D01*
X74183000Y15211742D01*
X74143302Y15411315D01*
X74065433Y15599309D01*
X73952383Y15768499D01*
X73808499Y15912383D01*
X73639309Y16025433D01*
X73451315Y16103302D01*
X73251742Y16143000D01*
X73141425Y16143000D01*
X73141425Y16400000D01*
X73131576Y16500000D01*
X73141425Y16600000D01*
X73141425Y16900000D01*
X73131576Y17000000D01*
X73141425Y17100000D01*
X73141425Y17400000D01*
X73131576Y17500000D01*
X73141425Y17600000D01*
X73141425Y17900000D01*
X73131576Y18000000D01*
X73141425Y18100000D01*
X73141425Y18400000D01*
X73131576Y18500000D01*
X73141425Y18600000D01*
X73141425Y18900000D01*
X73131576Y19000000D01*
X73141425Y19100000D01*
X73141425Y19400000D01*
X73131576Y19500000D01*
X73141425Y19600000D01*
X73141425Y19857000D01*
X73251742Y19857000D01*
X73451315Y19896698D01*
X73639309Y19974567D01*
X73808499Y20087617D01*
X73952383Y20231501D01*
X74065433Y20400691D01*
X74143302Y20588685D01*
X74183000Y20788258D01*
X74183000Y20991742D01*
X74143302Y21191315D01*
X74065433Y21379309D01*
X74012220Y21458947D01*
X74062370Y21503998D01*
X74204417Y21693770D01*
X74306712Y21907608D01*
X74353487Y22077881D01*
X75316513Y22077881D01*
X75363288Y21907608D01*
X75465583Y21693770D01*
X75607630Y21503998D01*
X75783971Y21345585D01*
X75987828Y21224618D01*
X76211368Y21145746D01*
X76446000Y21112000D01*
X76746000Y21112000D01*
X76746000Y22266000D01*
X75470415Y22266000D01*
X75316513Y22077881D01*
X74353487Y22077881D01*
X74199585Y22266000D01*
X72674000Y22266000D01*
X72674000Y22246000D01*
X72574581Y22246000D01*
X72568792Y22247756D01*
X72566000Y22248031D01*
X72566000Y22266000D01*
X71040415Y22266000D01*
X71036353Y22261035D01*
X70980000Y22261426D01*
X70841208Y22247756D01*
X70707749Y22207272D01*
X70584753Y22141529D01*
X70476946Y22053054D01*
X70388471Y21945247D01*
X70322728Y21822251D01*
X70282244Y21688792D01*
X70268574Y21550000D01*
X70272000Y21481000D01*
X70295000Y21458000D01*
X69950000Y21458000D01*
X69950000Y22562119D01*
X70886513Y22562119D01*
X71040415Y22374000D01*
X72566000Y22374000D01*
X72566000Y23528000D01*
X72674000Y23528000D01*
X72674000Y22374000D01*
X74199585Y22374000D01*
X74353487Y22562119D01*
X75316513Y22562119D01*
X75470415Y22374000D01*
X76746000Y22374000D01*
X76746000Y23528000D01*
X76446000Y23528000D01*
X76211368Y23494254D01*
X75987828Y23415382D01*
X75783971Y23294415D01*
X75607630Y23136002D01*
X75465583Y22946230D01*
X75363288Y22732392D01*
X75316513Y22562119D01*
X74353487Y22562119D01*
X74306712Y22732392D01*
X74204417Y22946230D01*
X74062370Y23136002D01*
X73886029Y23294415D01*
X73682172Y23415382D01*
X73458632Y23494254D01*
X73224000Y23528000D01*
X72674000Y23528000D01*
X72566000Y23528000D01*
X72016000Y23528000D01*
X71781368Y23494254D01*
X71557828Y23415382D01*
X71353971Y23294415D01*
X71177630Y23136002D01*
X71035583Y22946230D01*
X70933288Y22732392D01*
X70886513Y22562119D01*
X69950000Y22562119D01*
X69950000Y23917158D01*
X70832842Y24800000D01*
X76017158Y24800000D01*
X76900000Y23917158D01*
G37*
X76900000Y23917158D02*
X76900000Y23528000D01*
X76854000Y23528000D01*
X76854000Y22374000D01*
X76874000Y22374000D01*
X76874000Y22266000D01*
X76854000Y22266000D01*
X76854000Y21112000D01*
X76900000Y21112000D01*
X76900000Y14888000D01*
X76854000Y14888000D01*
X76854000Y13734000D01*
X76874000Y13734000D01*
X76874000Y13626000D01*
X76854000Y13626000D01*
X76854000Y12472000D01*
X76900000Y12472000D01*
X76900000Y10082842D01*
X76017158Y9200000D01*
X7582842Y9200000D01*
X6700000Y10082842D01*
X6700000Y11039583D01*
X7419000Y11042000D01*
X7596000Y11219000D01*
X7596000Y12846000D01*
X7704000Y12846000D01*
X7704000Y11219000D01*
X7881000Y11042000D01*
X8900000Y11038574D01*
X9038792Y11052244D01*
X9172251Y11092728D01*
X9295247Y11158471D01*
X9403054Y11246946D01*
X9491529Y11354753D01*
X9557272Y11477749D01*
X9597756Y11611208D01*
X9611426Y11750000D01*
X9608000Y12669000D01*
X9431000Y12846000D01*
X7704000Y12846000D01*
X7596000Y12846000D01*
X7576000Y12846000D01*
X7576000Y12954000D01*
X7596000Y12954000D01*
X7596000Y12974000D01*
X7704000Y12974000D01*
X7704000Y12954000D01*
X9431000Y12954000D01*
X9608000Y13131000D01*
X9609144Y13437881D01*
X70886513Y13437881D01*
X70933288Y13267608D01*
X71035583Y13053770D01*
X71177630Y12863998D01*
X71353971Y12705585D01*
X71557828Y12584618D01*
X71781368Y12505746D01*
X72016000Y12472000D01*
X72566000Y12472000D01*
X72566000Y13626000D01*
X72674000Y13626000D01*
X72674000Y12472000D01*
X73224000Y12472000D01*
X73458632Y12505746D01*
X73682172Y12584618D01*
X73886029Y12705585D01*
X74062370Y12863998D01*
X74204417Y13053770D01*
X74306712Y13267608D01*
X74353487Y13437881D01*
X75316513Y13437881D01*
X75363288Y13267608D01*
X75465583Y13053770D01*
X75607630Y12863998D01*
X75783971Y12705585D01*
X75987828Y12584618D01*
X76211368Y12505746D01*
X76446000Y12472000D01*
X76746000Y12472000D01*
X76746000Y13626000D01*
X75470415Y13626000D01*
X75316513Y13437881D01*
X74353487Y13437881D01*
X74199585Y13626000D01*
X72674000Y13626000D01*
X72566000Y13626000D01*
X71040415Y13626000D01*
X70886513Y13437881D01*
X9609144Y13437881D01*
X9610494Y13800000D01*
X68750000Y13800000D01*
X68789018Y13803843D01*
X68826537Y13815224D01*
X68861114Y13833706D01*
X68891421Y13858579D01*
X69574842Y14542000D01*
X70295000Y14542000D01*
X70272000Y14519000D01*
X70268574Y14450000D01*
X70282244Y14311208D01*
X70322728Y14177749D01*
X70388471Y14054753D01*
X70476946Y13946946D01*
X70584753Y13858471D01*
X70707749Y13792728D01*
X70841208Y13752244D01*
X70980000Y13738574D01*
X71036353Y13738965D01*
X71040415Y13734000D01*
X72566000Y13734000D01*
X72566000Y13751969D01*
X72568792Y13752244D01*
X72574581Y13754000D01*
X72674000Y13754000D01*
X72674000Y13734000D01*
X74199585Y13734000D01*
X74353487Y13922119D01*
X75316513Y13922119D01*
X75470415Y13734000D01*
X76746000Y13734000D01*
X76746000Y14888000D01*
X76446000Y14888000D01*
X76211368Y14854254D01*
X75987828Y14775382D01*
X75783971Y14654415D01*
X75607630Y14496002D01*
X75465583Y14306230D01*
X75363288Y14092392D01*
X75316513Y13922119D01*
X74353487Y13922119D01*
X74306712Y14092392D01*
X74204417Y14306230D01*
X74062370Y14496002D01*
X74012220Y14541053D01*
X74065433Y14620691D01*
X74143302Y14808685D01*
X74183000Y15008258D01*
X74183000Y15211742D01*
X74143302Y15411315D01*
X74065433Y15599309D01*
X73952383Y15768499D01*
X73808499Y15912383D01*
X73639309Y16025433D01*
X73451315Y16103302D01*
X73251742Y16143000D01*
X73141425Y16143000D01*
X73141425Y16400000D01*
X73131576Y16500000D01*
X73141425Y16600000D01*
X73141425Y16900000D01*
X73131576Y17000000D01*
X73141425Y17100000D01*
X73141425Y17400000D01*
X73131576Y17500000D01*
X73141425Y17600000D01*
X73141425Y17900000D01*
X73131576Y18000000D01*
X73141425Y18100000D01*
X73141425Y18400000D01*
X73131576Y18500000D01*
X73141425Y18600000D01*
X73141425Y18900000D01*
X73131576Y19000000D01*
X73141425Y19100000D01*
X73141425Y19400000D01*
X73131576Y19500000D01*
X73141425Y19600000D01*
X73141425Y19857000D01*
X73251742Y19857000D01*
X73451315Y19896698D01*
X73639309Y19974567D01*
X73808499Y20087617D01*
X73952383Y20231501D01*
X74065433Y20400691D01*
X74143302Y20588685D01*
X74183000Y20788258D01*
X74183000Y20991742D01*
X74143302Y21191315D01*
X74065433Y21379309D01*
X74012220Y21458947D01*
X74062370Y21503998D01*
X74204417Y21693770D01*
X74306712Y21907608D01*
X74353487Y22077881D01*
X75316513Y22077881D01*
X75363288Y21907608D01*
X75465583Y21693770D01*
X75607630Y21503998D01*
X75783971Y21345585D01*
X75987828Y21224618D01*
X76211368Y21145746D01*
X76446000Y21112000D01*
X76746000Y21112000D01*
X76746000Y22266000D01*
X75470415Y22266000D01*
X75316513Y22077881D01*
X74353487Y22077881D01*
X74199585Y22266000D01*
X72674000Y22266000D01*
X72674000Y22246000D01*
X72574581Y22246000D01*
X72568792Y22247756D01*
X72566000Y22248031D01*
X72566000Y22266000D01*
X71040415Y22266000D01*
X71036353Y22261035D01*
X70980000Y22261426D01*
X70841208Y22247756D01*
X70707749Y22207272D01*
X70584753Y22141529D01*
X70476946Y22053054D01*
X70388471Y21945247D01*
X70322728Y21822251D01*
X70282244Y21688792D01*
X70268574Y21550000D01*
X70272000Y21481000D01*
X70295000Y21458000D01*
X69950000Y21458000D01*
X69950000Y22562119D01*
X70886513Y22562119D01*
X71040415Y22374000D01*
X72566000Y22374000D01*
X72566000Y23528000D01*
X72674000Y23528000D01*
X72674000Y22374000D01*
X74199585Y22374000D01*
X74353487Y22562119D01*
X75316513Y22562119D01*
X75470415Y22374000D01*
X76746000Y22374000D01*
X76746000Y23528000D01*
X76446000Y23528000D01*
X76211368Y23494254D01*
X75987828Y23415382D01*
X75783971Y23294415D01*
X75607630Y23136002D01*
X75465583Y22946230D01*
X75363288Y22732392D01*
X75316513Y22562119D01*
X74353487Y22562119D01*
X74306712Y22732392D01*
X74204417Y22946230D01*
X74062370Y23136002D01*
X73886029Y23294415D01*
X73682172Y23415382D01*
X73458632Y23494254D01*
X73224000Y23528000D01*
X72674000Y23528000D01*
X72566000Y23528000D01*
X72016000Y23528000D01*
X71781368Y23494254D01*
X71557828Y23415382D01*
X71353971Y23294415D01*
X71177630Y23136002D01*
X71035583Y22946230D01*
X70933288Y22732392D01*
X70886513Y22562119D01*
X69950000Y22562119D01*
X69950000Y23917158D01*
X70832842Y24800000D01*
X76017158Y24800000D01*
X76900000Y23917158D01*
M02*
