G04 #@! TF.GenerationSoftware,KiCad,Pcbnew,(5.1.5)-3*
G04 #@! TF.CreationDate,2021-11-13T16:12:43+01:00*
G04 #@! TF.ProjectId,rp4b-power-adapter,72703462-2d70-46f7-9765-722d61646170,rev?*
G04 #@! TF.SameCoordinates,PX5f5e100PY6052340*
G04 #@! TF.FileFunction,Copper,L2,Bot*
G04 #@! TF.FilePolarity,Positive*
%FSLAX46Y46*%
G04 Gerber Fmt 4.6, Leading zero omitted, Abs format (unit mm)*
G04 Created by KiCad (PCBNEW (5.1.5)-3) date 2021-11-13 16:12:43*
%MOMM*%
%LPD*%
G04 APERTURE LIST*
%ADD10O,2.100000X1.000000*%
%ADD11O,1.600000X1.000000*%
%ADD12C,0.800000*%
%ADD13C,0.600000*%
%ADD14C,0.400000*%
%ADD15C,0.254000*%
G04 APERTURE END LIST*
D10*
X72620000Y22320000D03*
X72620000Y13680000D03*
D11*
X76800000Y13680000D03*
X76800000Y22320000D03*
D12*
X64800000Y16750000D03*
X64800000Y19450000D03*
D13*
X71170000Y13680000D02*
X72620000Y13680000D01*
D14*
X71120000Y13680000D02*
X71170000Y13680000D01*
D13*
X64800000Y16750000D02*
X68050000Y16750000D01*
X68050000Y16750000D02*
X71120000Y13680000D01*
X64800000Y19450000D02*
X68150000Y19450000D01*
X71020000Y22320000D02*
X72620000Y22320000D01*
X68150000Y19450000D02*
X71020000Y22320000D01*
D15*
G36*
X77345001Y23426526D02*
G01*
X77321519Y23433649D01*
X77155507Y23450000D01*
X76444493Y23450000D01*
X76278481Y23433649D01*
X76065476Y23369035D01*
X75869168Y23264106D01*
X75697104Y23122896D01*
X75555894Y22950832D01*
X75450965Y22754524D01*
X75386351Y22541519D01*
X75364533Y22320000D01*
X75386351Y22098481D01*
X75450965Y21885476D01*
X75555894Y21689168D01*
X75697104Y21517104D01*
X75869168Y21375894D01*
X76065476Y21270965D01*
X76278481Y21206351D01*
X76444493Y21190000D01*
X77155507Y21190000D01*
X77321519Y21206351D01*
X77345001Y21213474D01*
X77345000Y14786526D01*
X77321519Y14793649D01*
X77155507Y14810000D01*
X76444493Y14810000D01*
X76278481Y14793649D01*
X76065476Y14729035D01*
X75869168Y14624106D01*
X75697104Y14482896D01*
X75555894Y14310832D01*
X75450965Y14114524D01*
X75386351Y13901519D01*
X75364533Y13680000D01*
X75386351Y13458481D01*
X75450965Y13245476D01*
X75555894Y13049168D01*
X75697104Y12877104D01*
X75869168Y12735894D01*
X76065476Y12630965D01*
X76278481Y12566351D01*
X76444493Y12550000D01*
X77155507Y12550000D01*
X77321519Y12566351D01*
X77345000Y12573474D01*
X77345000Y8655000D01*
X51032174Y8655000D01*
X51000000Y8658169D01*
X50967826Y8655000D01*
X50871598Y8645522D01*
X50748130Y8608069D01*
X50634341Y8547248D01*
X50534604Y8465396D01*
X50452752Y8365659D01*
X50391931Y8251870D01*
X50354478Y8128402D01*
X50341831Y8000000D01*
X50345001Y7967816D01*
X50345001Y6663318D01*
X50169993Y6780255D01*
X49962526Y6866190D01*
X49742280Y6910000D01*
X49517720Y6910000D01*
X49297474Y6866190D01*
X49090007Y6780255D01*
X48903292Y6655496D01*
X48744504Y6496708D01*
X48619745Y6309993D01*
X48533810Y6102526D01*
X48519053Y6028337D01*
X48510692Y6030000D01*
X48209308Y6030000D01*
X48200947Y6028337D01*
X48186190Y6102526D01*
X48100255Y6309993D01*
X47975496Y6496708D01*
X47816708Y6655496D01*
X47629993Y6780255D01*
X47422526Y6866190D01*
X47202280Y6910000D01*
X46977720Y6910000D01*
X46757474Y6866190D01*
X46550007Y6780255D01*
X46363292Y6655496D01*
X46204504Y6496708D01*
X46079745Y6309993D01*
X45993810Y6102526D01*
X45979053Y6028337D01*
X45970692Y6030000D01*
X45669308Y6030000D01*
X45660947Y6028337D01*
X45646190Y6102526D01*
X45560255Y6309993D01*
X45435496Y6496708D01*
X45276708Y6655496D01*
X45089993Y6780255D01*
X44882526Y6866190D01*
X44662280Y6910000D01*
X44437720Y6910000D01*
X44217474Y6866190D01*
X44010007Y6780255D01*
X43823292Y6655496D01*
X43664504Y6496708D01*
X43539745Y6309993D01*
X43453810Y6102526D01*
X43410000Y5882280D01*
X43410000Y5657720D01*
X43453810Y5437474D01*
X43539745Y5230007D01*
X43664504Y5043292D01*
X43823292Y4884504D01*
X44010007Y4759745D01*
X44217474Y4673810D01*
X44291663Y4659053D01*
X44290000Y4650692D01*
X44290000Y4349308D01*
X44291663Y4340947D01*
X44217474Y4326190D01*
X44010007Y4240255D01*
X43823292Y4115496D01*
X43664504Y3956708D01*
X43539745Y3769993D01*
X43453810Y3562526D01*
X43410000Y3342280D01*
X43410000Y3117720D01*
X43453810Y2897474D01*
X43539745Y2690007D01*
X43664504Y2503292D01*
X43823292Y2344504D01*
X44010007Y2219745D01*
X44217474Y2133810D01*
X44437720Y2090000D01*
X44662280Y2090000D01*
X44882526Y2133810D01*
X45089993Y2219745D01*
X45276708Y2344504D01*
X45435496Y2503292D01*
X45560255Y2690007D01*
X45646190Y2897474D01*
X45660947Y2971663D01*
X45669308Y2970000D01*
X45970692Y2970000D01*
X45979053Y2971663D01*
X45993810Y2897474D01*
X46079745Y2690007D01*
X46204504Y2503292D01*
X46363292Y2344504D01*
X46550007Y2219745D01*
X46757474Y2133810D01*
X46977720Y2090000D01*
X47202280Y2090000D01*
X47422526Y2133810D01*
X47629993Y2219745D01*
X47816708Y2344504D01*
X47975496Y2503292D01*
X48100255Y2690007D01*
X48186190Y2897474D01*
X48200947Y2971663D01*
X48209308Y2970000D01*
X48510692Y2970000D01*
X48519053Y2971663D01*
X48533810Y2897474D01*
X48619745Y2690007D01*
X48744504Y2503292D01*
X48903292Y2344504D01*
X49090007Y2219745D01*
X49297474Y2133810D01*
X49517720Y2090000D01*
X49742280Y2090000D01*
X49962526Y2133810D01*
X50169993Y2219745D01*
X50345000Y2336681D01*
X50345000Y967827D01*
X50345001Y967817D01*
X50345001Y655000D01*
X655000Y655000D01*
X655000Y2336681D01*
X830007Y2219745D01*
X1037474Y2133810D01*
X1257720Y2090000D01*
X1482280Y2090000D01*
X1702526Y2133810D01*
X1909993Y2219745D01*
X2096708Y2344504D01*
X2255496Y2503292D01*
X2380255Y2690007D01*
X2466190Y2897474D01*
X2480947Y2971663D01*
X2489308Y2970000D01*
X2790692Y2970000D01*
X2799053Y2971663D01*
X2813810Y2897474D01*
X2899745Y2690007D01*
X3024504Y2503292D01*
X3183292Y2344504D01*
X3370007Y2219745D01*
X3577474Y2133810D01*
X3797720Y2090000D01*
X4022280Y2090000D01*
X4242526Y2133810D01*
X4449993Y2219745D01*
X4636708Y2344504D01*
X4795496Y2503292D01*
X4920255Y2690007D01*
X5006190Y2897474D01*
X5020947Y2971663D01*
X5029308Y2970000D01*
X5330692Y2970000D01*
X5339053Y2971663D01*
X5353810Y2897474D01*
X5439745Y2690007D01*
X5564504Y2503292D01*
X5723292Y2344504D01*
X5910007Y2219745D01*
X6117474Y2133810D01*
X6337720Y2090000D01*
X6562280Y2090000D01*
X6782526Y2133810D01*
X6989993Y2219745D01*
X7176708Y2344504D01*
X7335496Y2503292D01*
X7460255Y2690007D01*
X7546190Y2897474D01*
X7590000Y3117720D01*
X7590000Y3342280D01*
X7850000Y3342280D01*
X7850000Y3117720D01*
X7893810Y2897474D01*
X7979745Y2690007D01*
X8104504Y2503292D01*
X8263292Y2344504D01*
X8450007Y2219745D01*
X8657474Y2133810D01*
X8877720Y2090000D01*
X9102280Y2090000D01*
X9322526Y2133810D01*
X9529993Y2219745D01*
X9716708Y2344504D01*
X9875496Y2503292D01*
X10000255Y2690007D01*
X10086190Y2897474D01*
X10130000Y3117720D01*
X10130000Y3342280D01*
X10390000Y3342280D01*
X10390000Y3117720D01*
X10433810Y2897474D01*
X10519745Y2690007D01*
X10644504Y2503292D01*
X10803292Y2344504D01*
X10990007Y2219745D01*
X11197474Y2133810D01*
X11417720Y2090000D01*
X11642280Y2090000D01*
X11862526Y2133810D01*
X12069993Y2219745D01*
X12256708Y2344504D01*
X12415496Y2503292D01*
X12540255Y2690007D01*
X12626190Y2897474D01*
X12670000Y3117720D01*
X12670000Y3342280D01*
X12930000Y3342280D01*
X12930000Y3117720D01*
X12973810Y2897474D01*
X13059745Y2690007D01*
X13184504Y2503292D01*
X13343292Y2344504D01*
X13530007Y2219745D01*
X13737474Y2133810D01*
X13957720Y2090000D01*
X14182280Y2090000D01*
X14402526Y2133810D01*
X14609993Y2219745D01*
X14796708Y2344504D01*
X14955496Y2503292D01*
X15080255Y2690007D01*
X15166190Y2897474D01*
X15210000Y3117720D01*
X15210000Y3342280D01*
X15470000Y3342280D01*
X15470000Y3117720D01*
X15513810Y2897474D01*
X15599745Y2690007D01*
X15724504Y2503292D01*
X15883292Y2344504D01*
X16070007Y2219745D01*
X16277474Y2133810D01*
X16497720Y2090000D01*
X16722280Y2090000D01*
X16942526Y2133810D01*
X17149993Y2219745D01*
X17336708Y2344504D01*
X17495496Y2503292D01*
X17620255Y2690007D01*
X17706190Y2897474D01*
X17750000Y3117720D01*
X17750000Y3342280D01*
X18010000Y3342280D01*
X18010000Y3117720D01*
X18053810Y2897474D01*
X18139745Y2690007D01*
X18264504Y2503292D01*
X18423292Y2344504D01*
X18610007Y2219745D01*
X18817474Y2133810D01*
X19037720Y2090000D01*
X19262280Y2090000D01*
X19482526Y2133810D01*
X19689993Y2219745D01*
X19876708Y2344504D01*
X20035496Y2503292D01*
X20160255Y2690007D01*
X20246190Y2897474D01*
X20290000Y3117720D01*
X20290000Y3342280D01*
X20550000Y3342280D01*
X20550000Y3117720D01*
X20593810Y2897474D01*
X20679745Y2690007D01*
X20804504Y2503292D01*
X20963292Y2344504D01*
X21150007Y2219745D01*
X21357474Y2133810D01*
X21577720Y2090000D01*
X21802280Y2090000D01*
X22022526Y2133810D01*
X22229993Y2219745D01*
X22416708Y2344504D01*
X22575496Y2503292D01*
X22700255Y2690007D01*
X22786190Y2897474D01*
X22830000Y3117720D01*
X22830000Y3342280D01*
X23090000Y3342280D01*
X23090000Y3117720D01*
X23133810Y2897474D01*
X23219745Y2690007D01*
X23344504Y2503292D01*
X23503292Y2344504D01*
X23690007Y2219745D01*
X23897474Y2133810D01*
X24117720Y2090000D01*
X24342280Y2090000D01*
X24562526Y2133810D01*
X24769993Y2219745D01*
X24956708Y2344504D01*
X25115496Y2503292D01*
X25240255Y2690007D01*
X25326190Y2897474D01*
X25370000Y3117720D01*
X25370000Y3342280D01*
X25630000Y3342280D01*
X25630000Y3117720D01*
X25673810Y2897474D01*
X25759745Y2690007D01*
X25884504Y2503292D01*
X26043292Y2344504D01*
X26230007Y2219745D01*
X26437474Y2133810D01*
X26657720Y2090000D01*
X26882280Y2090000D01*
X27102526Y2133810D01*
X27309993Y2219745D01*
X27496708Y2344504D01*
X27655496Y2503292D01*
X27780255Y2690007D01*
X27866190Y2897474D01*
X27910000Y3117720D01*
X27910000Y3342280D01*
X28170000Y3342280D01*
X28170000Y3117720D01*
X28213810Y2897474D01*
X28299745Y2690007D01*
X28424504Y2503292D01*
X28583292Y2344504D01*
X28770007Y2219745D01*
X28977474Y2133810D01*
X29197720Y2090000D01*
X29422280Y2090000D01*
X29642526Y2133810D01*
X29849993Y2219745D01*
X30036708Y2344504D01*
X30195496Y2503292D01*
X30320255Y2690007D01*
X30406190Y2897474D01*
X30450000Y3117720D01*
X30450000Y3342280D01*
X30710000Y3342280D01*
X30710000Y3117720D01*
X30753810Y2897474D01*
X30839745Y2690007D01*
X30964504Y2503292D01*
X31123292Y2344504D01*
X31310007Y2219745D01*
X31517474Y2133810D01*
X31737720Y2090000D01*
X31962280Y2090000D01*
X32182526Y2133810D01*
X32389993Y2219745D01*
X32576708Y2344504D01*
X32735496Y2503292D01*
X32860255Y2690007D01*
X32946190Y2897474D01*
X32990000Y3117720D01*
X32990000Y3342280D01*
X33250000Y3342280D01*
X33250000Y3117720D01*
X33293810Y2897474D01*
X33379745Y2690007D01*
X33504504Y2503292D01*
X33663292Y2344504D01*
X33850007Y2219745D01*
X34057474Y2133810D01*
X34277720Y2090000D01*
X34502280Y2090000D01*
X34722526Y2133810D01*
X34929993Y2219745D01*
X35116708Y2344504D01*
X35275496Y2503292D01*
X35400255Y2690007D01*
X35486190Y2897474D01*
X35530000Y3117720D01*
X35530000Y3342280D01*
X35790000Y3342280D01*
X35790000Y3117720D01*
X35833810Y2897474D01*
X35919745Y2690007D01*
X36044504Y2503292D01*
X36203292Y2344504D01*
X36390007Y2219745D01*
X36597474Y2133810D01*
X36817720Y2090000D01*
X37042280Y2090000D01*
X37262526Y2133810D01*
X37469993Y2219745D01*
X37656708Y2344504D01*
X37815496Y2503292D01*
X37940255Y2690007D01*
X38026190Y2897474D01*
X38070000Y3117720D01*
X38070000Y3342280D01*
X38330000Y3342280D01*
X38330000Y3117720D01*
X38373810Y2897474D01*
X38459745Y2690007D01*
X38584504Y2503292D01*
X38743292Y2344504D01*
X38930007Y2219745D01*
X39137474Y2133810D01*
X39357720Y2090000D01*
X39582280Y2090000D01*
X39802526Y2133810D01*
X40009993Y2219745D01*
X40196708Y2344504D01*
X40355496Y2503292D01*
X40480255Y2690007D01*
X40566190Y2897474D01*
X40610000Y3117720D01*
X40610000Y3342280D01*
X40870000Y3342280D01*
X40870000Y3117720D01*
X40913810Y2897474D01*
X40999745Y2690007D01*
X41124504Y2503292D01*
X41283292Y2344504D01*
X41470007Y2219745D01*
X41677474Y2133810D01*
X41897720Y2090000D01*
X42122280Y2090000D01*
X42342526Y2133810D01*
X42549993Y2219745D01*
X42736708Y2344504D01*
X42895496Y2503292D01*
X43020255Y2690007D01*
X43106190Y2897474D01*
X43150000Y3117720D01*
X43150000Y3342280D01*
X43106190Y3562526D01*
X43020255Y3769993D01*
X42895496Y3956708D01*
X42736708Y4115496D01*
X42549993Y4240255D01*
X42342526Y4326190D01*
X42122280Y4370000D01*
X41897720Y4370000D01*
X41677474Y4326190D01*
X41470007Y4240255D01*
X41283292Y4115496D01*
X41124504Y3956708D01*
X40999745Y3769993D01*
X40913810Y3562526D01*
X40870000Y3342280D01*
X40610000Y3342280D01*
X40566190Y3562526D01*
X40480255Y3769993D01*
X40355496Y3956708D01*
X40196708Y4115496D01*
X40009993Y4240255D01*
X39802526Y4326190D01*
X39582280Y4370000D01*
X39357720Y4370000D01*
X39137474Y4326190D01*
X38930007Y4240255D01*
X38743292Y4115496D01*
X38584504Y3956708D01*
X38459745Y3769993D01*
X38373810Y3562526D01*
X38330000Y3342280D01*
X38070000Y3342280D01*
X38026190Y3562526D01*
X37940255Y3769993D01*
X37815496Y3956708D01*
X37656708Y4115496D01*
X37469993Y4240255D01*
X37262526Y4326190D01*
X37042280Y4370000D01*
X36817720Y4370000D01*
X36597474Y4326190D01*
X36390007Y4240255D01*
X36203292Y4115496D01*
X36044504Y3956708D01*
X35919745Y3769993D01*
X35833810Y3562526D01*
X35790000Y3342280D01*
X35530000Y3342280D01*
X35486190Y3562526D01*
X35400255Y3769993D01*
X35275496Y3956708D01*
X35116708Y4115496D01*
X34929993Y4240255D01*
X34722526Y4326190D01*
X34502280Y4370000D01*
X34277720Y4370000D01*
X34057474Y4326190D01*
X33850007Y4240255D01*
X33663292Y4115496D01*
X33504504Y3956708D01*
X33379745Y3769993D01*
X33293810Y3562526D01*
X33250000Y3342280D01*
X32990000Y3342280D01*
X32946190Y3562526D01*
X32860255Y3769993D01*
X32735496Y3956708D01*
X32576708Y4115496D01*
X32389993Y4240255D01*
X32182526Y4326190D01*
X31962280Y4370000D01*
X31737720Y4370000D01*
X31517474Y4326190D01*
X31310007Y4240255D01*
X31123292Y4115496D01*
X30964504Y3956708D01*
X30839745Y3769993D01*
X30753810Y3562526D01*
X30710000Y3342280D01*
X30450000Y3342280D01*
X30406190Y3562526D01*
X30320255Y3769993D01*
X30195496Y3956708D01*
X30036708Y4115496D01*
X29849993Y4240255D01*
X29642526Y4326190D01*
X29422280Y4370000D01*
X29197720Y4370000D01*
X28977474Y4326190D01*
X28770007Y4240255D01*
X28583292Y4115496D01*
X28424504Y3956708D01*
X28299745Y3769993D01*
X28213810Y3562526D01*
X28170000Y3342280D01*
X27910000Y3342280D01*
X27866190Y3562526D01*
X27780255Y3769993D01*
X27655496Y3956708D01*
X27496708Y4115496D01*
X27309993Y4240255D01*
X27102526Y4326190D01*
X26882280Y4370000D01*
X26657720Y4370000D01*
X26437474Y4326190D01*
X26230007Y4240255D01*
X26043292Y4115496D01*
X25884504Y3956708D01*
X25759745Y3769993D01*
X25673810Y3562526D01*
X25630000Y3342280D01*
X25370000Y3342280D01*
X25326190Y3562526D01*
X25240255Y3769993D01*
X25115496Y3956708D01*
X24956708Y4115496D01*
X24769993Y4240255D01*
X24562526Y4326190D01*
X24342280Y4370000D01*
X24117720Y4370000D01*
X23897474Y4326190D01*
X23690007Y4240255D01*
X23503292Y4115496D01*
X23344504Y3956708D01*
X23219745Y3769993D01*
X23133810Y3562526D01*
X23090000Y3342280D01*
X22830000Y3342280D01*
X22786190Y3562526D01*
X22700255Y3769993D01*
X22575496Y3956708D01*
X22416708Y4115496D01*
X22229993Y4240255D01*
X22022526Y4326190D01*
X21802280Y4370000D01*
X21577720Y4370000D01*
X21357474Y4326190D01*
X21150007Y4240255D01*
X20963292Y4115496D01*
X20804504Y3956708D01*
X20679745Y3769993D01*
X20593810Y3562526D01*
X20550000Y3342280D01*
X20290000Y3342280D01*
X20246190Y3562526D01*
X20160255Y3769993D01*
X20035496Y3956708D01*
X19876708Y4115496D01*
X19689993Y4240255D01*
X19482526Y4326190D01*
X19262280Y4370000D01*
X19037720Y4370000D01*
X18817474Y4326190D01*
X18610007Y4240255D01*
X18423292Y4115496D01*
X18264504Y3956708D01*
X18139745Y3769993D01*
X18053810Y3562526D01*
X18010000Y3342280D01*
X17750000Y3342280D01*
X17706190Y3562526D01*
X17620255Y3769993D01*
X17495496Y3956708D01*
X17336708Y4115496D01*
X17149993Y4240255D01*
X16942526Y4326190D01*
X16722280Y4370000D01*
X16497720Y4370000D01*
X16277474Y4326190D01*
X16070007Y4240255D01*
X15883292Y4115496D01*
X15724504Y3956708D01*
X15599745Y3769993D01*
X15513810Y3562526D01*
X15470000Y3342280D01*
X15210000Y3342280D01*
X15166190Y3562526D01*
X15080255Y3769993D01*
X14955496Y3956708D01*
X14796708Y4115496D01*
X14609993Y4240255D01*
X14402526Y4326190D01*
X14182280Y4370000D01*
X13957720Y4370000D01*
X13737474Y4326190D01*
X13530007Y4240255D01*
X13343292Y4115496D01*
X13184504Y3956708D01*
X13059745Y3769993D01*
X12973810Y3562526D01*
X12930000Y3342280D01*
X12670000Y3342280D01*
X12626190Y3562526D01*
X12540255Y3769993D01*
X12415496Y3956708D01*
X12256708Y4115496D01*
X12069993Y4240255D01*
X11862526Y4326190D01*
X11642280Y4370000D01*
X11417720Y4370000D01*
X11197474Y4326190D01*
X10990007Y4240255D01*
X10803292Y4115496D01*
X10644504Y3956708D01*
X10519745Y3769993D01*
X10433810Y3562526D01*
X10390000Y3342280D01*
X10130000Y3342280D01*
X10086190Y3562526D01*
X10000255Y3769993D01*
X9875496Y3956708D01*
X9716708Y4115496D01*
X9529993Y4240255D01*
X9322526Y4326190D01*
X9102280Y4370000D01*
X8877720Y4370000D01*
X8657474Y4326190D01*
X8450007Y4240255D01*
X8263292Y4115496D01*
X8104504Y3956708D01*
X7979745Y3769993D01*
X7893810Y3562526D01*
X7850000Y3342280D01*
X7590000Y3342280D01*
X7546190Y3562526D01*
X7460255Y3769993D01*
X7335496Y3956708D01*
X7176708Y4115496D01*
X6989993Y4240255D01*
X6782526Y4326190D01*
X6708337Y4340947D01*
X6710000Y4349308D01*
X6710000Y4650692D01*
X6708337Y4659053D01*
X6782526Y4673810D01*
X6989993Y4759745D01*
X7176708Y4884504D01*
X7335496Y5043292D01*
X7460255Y5230007D01*
X7546190Y5437474D01*
X7590000Y5657720D01*
X7590000Y5882280D01*
X7850000Y5882280D01*
X7850000Y5657720D01*
X7893810Y5437474D01*
X7979745Y5230007D01*
X8104504Y5043292D01*
X8263292Y4884504D01*
X8450007Y4759745D01*
X8657474Y4673810D01*
X8877720Y4630000D01*
X9102280Y4630000D01*
X9322526Y4673810D01*
X9529993Y4759745D01*
X9716708Y4884504D01*
X9875496Y5043292D01*
X10000255Y5230007D01*
X10086190Y5437474D01*
X10130000Y5657720D01*
X10130000Y5882280D01*
X10390000Y5882280D01*
X10390000Y5657720D01*
X10433810Y5437474D01*
X10519745Y5230007D01*
X10644504Y5043292D01*
X10803292Y4884504D01*
X10990007Y4759745D01*
X11197474Y4673810D01*
X11417720Y4630000D01*
X11642280Y4630000D01*
X11862526Y4673810D01*
X12069993Y4759745D01*
X12256708Y4884504D01*
X12415496Y5043292D01*
X12540255Y5230007D01*
X12626190Y5437474D01*
X12670000Y5657720D01*
X12670000Y5882280D01*
X12930000Y5882280D01*
X12930000Y5657720D01*
X12973810Y5437474D01*
X13059745Y5230007D01*
X13184504Y5043292D01*
X13343292Y4884504D01*
X13530007Y4759745D01*
X13737474Y4673810D01*
X13957720Y4630000D01*
X14182280Y4630000D01*
X14402526Y4673810D01*
X14609993Y4759745D01*
X14796708Y4884504D01*
X14955496Y5043292D01*
X15080255Y5230007D01*
X15166190Y5437474D01*
X15210000Y5657720D01*
X15210000Y5882280D01*
X15470000Y5882280D01*
X15470000Y5657720D01*
X15513810Y5437474D01*
X15599745Y5230007D01*
X15724504Y5043292D01*
X15883292Y4884504D01*
X16070007Y4759745D01*
X16277474Y4673810D01*
X16497720Y4630000D01*
X16722280Y4630000D01*
X16942526Y4673810D01*
X17149993Y4759745D01*
X17336708Y4884504D01*
X17495496Y5043292D01*
X17620255Y5230007D01*
X17706190Y5437474D01*
X17750000Y5657720D01*
X17750000Y5882280D01*
X18010000Y5882280D01*
X18010000Y5657720D01*
X18053810Y5437474D01*
X18139745Y5230007D01*
X18264504Y5043292D01*
X18423292Y4884504D01*
X18610007Y4759745D01*
X18817474Y4673810D01*
X19037720Y4630000D01*
X19262280Y4630000D01*
X19482526Y4673810D01*
X19689993Y4759745D01*
X19876708Y4884504D01*
X20035496Y5043292D01*
X20160255Y5230007D01*
X20246190Y5437474D01*
X20290000Y5657720D01*
X20290000Y5882280D01*
X20550000Y5882280D01*
X20550000Y5657720D01*
X20593810Y5437474D01*
X20679745Y5230007D01*
X20804504Y5043292D01*
X20963292Y4884504D01*
X21150007Y4759745D01*
X21357474Y4673810D01*
X21577720Y4630000D01*
X21802280Y4630000D01*
X22022526Y4673810D01*
X22229993Y4759745D01*
X22416708Y4884504D01*
X22575496Y5043292D01*
X22700255Y5230007D01*
X22786190Y5437474D01*
X22830000Y5657720D01*
X22830000Y5882280D01*
X23090000Y5882280D01*
X23090000Y5657720D01*
X23133810Y5437474D01*
X23219745Y5230007D01*
X23344504Y5043292D01*
X23503292Y4884504D01*
X23690007Y4759745D01*
X23897474Y4673810D01*
X24117720Y4630000D01*
X24342280Y4630000D01*
X24562526Y4673810D01*
X24769993Y4759745D01*
X24956708Y4884504D01*
X25115496Y5043292D01*
X25240255Y5230007D01*
X25326190Y5437474D01*
X25370000Y5657720D01*
X25370000Y5882280D01*
X25630000Y5882280D01*
X25630000Y5657720D01*
X25673810Y5437474D01*
X25759745Y5230007D01*
X25884504Y5043292D01*
X26043292Y4884504D01*
X26230007Y4759745D01*
X26437474Y4673810D01*
X26657720Y4630000D01*
X26882280Y4630000D01*
X27102526Y4673810D01*
X27309993Y4759745D01*
X27496708Y4884504D01*
X27655496Y5043292D01*
X27780255Y5230007D01*
X27866190Y5437474D01*
X27910000Y5657720D01*
X27910000Y5882280D01*
X28170000Y5882280D01*
X28170000Y5657720D01*
X28213810Y5437474D01*
X28299745Y5230007D01*
X28424504Y5043292D01*
X28583292Y4884504D01*
X28770007Y4759745D01*
X28977474Y4673810D01*
X29197720Y4630000D01*
X29422280Y4630000D01*
X29642526Y4673810D01*
X29849993Y4759745D01*
X30036708Y4884504D01*
X30195496Y5043292D01*
X30320255Y5230007D01*
X30406190Y5437474D01*
X30450000Y5657720D01*
X30450000Y5882280D01*
X30710000Y5882280D01*
X30710000Y5657720D01*
X30753810Y5437474D01*
X30839745Y5230007D01*
X30964504Y5043292D01*
X31123292Y4884504D01*
X31310007Y4759745D01*
X31517474Y4673810D01*
X31737720Y4630000D01*
X31962280Y4630000D01*
X32182526Y4673810D01*
X32389993Y4759745D01*
X32576708Y4884504D01*
X32735496Y5043292D01*
X32860255Y5230007D01*
X32946190Y5437474D01*
X32990000Y5657720D01*
X32990000Y5882280D01*
X33250000Y5882280D01*
X33250000Y5657720D01*
X33293810Y5437474D01*
X33379745Y5230007D01*
X33504504Y5043292D01*
X33663292Y4884504D01*
X33850007Y4759745D01*
X34057474Y4673810D01*
X34277720Y4630000D01*
X34502280Y4630000D01*
X34722526Y4673810D01*
X34929993Y4759745D01*
X35116708Y4884504D01*
X35275496Y5043292D01*
X35400255Y5230007D01*
X35486190Y5437474D01*
X35530000Y5657720D01*
X35530000Y5882280D01*
X35790000Y5882280D01*
X35790000Y5657720D01*
X35833810Y5437474D01*
X35919745Y5230007D01*
X36044504Y5043292D01*
X36203292Y4884504D01*
X36390007Y4759745D01*
X36597474Y4673810D01*
X36817720Y4630000D01*
X37042280Y4630000D01*
X37262526Y4673810D01*
X37469993Y4759745D01*
X37656708Y4884504D01*
X37815496Y5043292D01*
X37940255Y5230007D01*
X38026190Y5437474D01*
X38070000Y5657720D01*
X38070000Y5882280D01*
X38330000Y5882280D01*
X38330000Y5657720D01*
X38373810Y5437474D01*
X38459745Y5230007D01*
X38584504Y5043292D01*
X38743292Y4884504D01*
X38930007Y4759745D01*
X39137474Y4673810D01*
X39357720Y4630000D01*
X39582280Y4630000D01*
X39802526Y4673810D01*
X40009993Y4759745D01*
X40196708Y4884504D01*
X40355496Y5043292D01*
X40480255Y5230007D01*
X40566190Y5437474D01*
X40610000Y5657720D01*
X40610000Y5882280D01*
X40870000Y5882280D01*
X40870000Y5657720D01*
X40913810Y5437474D01*
X40999745Y5230007D01*
X41124504Y5043292D01*
X41283292Y4884504D01*
X41470007Y4759745D01*
X41677474Y4673810D01*
X41897720Y4630000D01*
X42122280Y4630000D01*
X42342526Y4673810D01*
X42549993Y4759745D01*
X42736708Y4884504D01*
X42895496Y5043292D01*
X43020255Y5230007D01*
X43106190Y5437474D01*
X43150000Y5657720D01*
X43150000Y5882280D01*
X43106190Y6102526D01*
X43020255Y6309993D01*
X42895496Y6496708D01*
X42736708Y6655496D01*
X42549993Y6780255D01*
X42342526Y6866190D01*
X42122280Y6910000D01*
X41897720Y6910000D01*
X41677474Y6866190D01*
X41470007Y6780255D01*
X41283292Y6655496D01*
X41124504Y6496708D01*
X40999745Y6309993D01*
X40913810Y6102526D01*
X40870000Y5882280D01*
X40610000Y5882280D01*
X40566190Y6102526D01*
X40480255Y6309993D01*
X40355496Y6496708D01*
X40196708Y6655496D01*
X40009993Y6780255D01*
X39802526Y6866190D01*
X39582280Y6910000D01*
X39357720Y6910000D01*
X39137474Y6866190D01*
X38930007Y6780255D01*
X38743292Y6655496D01*
X38584504Y6496708D01*
X38459745Y6309993D01*
X38373810Y6102526D01*
X38330000Y5882280D01*
X38070000Y5882280D01*
X38026190Y6102526D01*
X37940255Y6309993D01*
X37815496Y6496708D01*
X37656708Y6655496D01*
X37469993Y6780255D01*
X37262526Y6866190D01*
X37042280Y6910000D01*
X36817720Y6910000D01*
X36597474Y6866190D01*
X36390007Y6780255D01*
X36203292Y6655496D01*
X36044504Y6496708D01*
X35919745Y6309993D01*
X35833810Y6102526D01*
X35790000Y5882280D01*
X35530000Y5882280D01*
X35486190Y6102526D01*
X35400255Y6309993D01*
X35275496Y6496708D01*
X35116708Y6655496D01*
X34929993Y6780255D01*
X34722526Y6866190D01*
X34502280Y6910000D01*
X34277720Y6910000D01*
X34057474Y6866190D01*
X33850007Y6780255D01*
X33663292Y6655496D01*
X33504504Y6496708D01*
X33379745Y6309993D01*
X33293810Y6102526D01*
X33250000Y5882280D01*
X32990000Y5882280D01*
X32946190Y6102526D01*
X32860255Y6309993D01*
X32735496Y6496708D01*
X32576708Y6655496D01*
X32389993Y6780255D01*
X32182526Y6866190D01*
X31962280Y6910000D01*
X31737720Y6910000D01*
X31517474Y6866190D01*
X31310007Y6780255D01*
X31123292Y6655496D01*
X30964504Y6496708D01*
X30839745Y6309993D01*
X30753810Y6102526D01*
X30710000Y5882280D01*
X30450000Y5882280D01*
X30406190Y6102526D01*
X30320255Y6309993D01*
X30195496Y6496708D01*
X30036708Y6655496D01*
X29849993Y6780255D01*
X29642526Y6866190D01*
X29422280Y6910000D01*
X29197720Y6910000D01*
X28977474Y6866190D01*
X28770007Y6780255D01*
X28583292Y6655496D01*
X28424504Y6496708D01*
X28299745Y6309993D01*
X28213810Y6102526D01*
X28170000Y5882280D01*
X27910000Y5882280D01*
X27866190Y6102526D01*
X27780255Y6309993D01*
X27655496Y6496708D01*
X27496708Y6655496D01*
X27309993Y6780255D01*
X27102526Y6866190D01*
X26882280Y6910000D01*
X26657720Y6910000D01*
X26437474Y6866190D01*
X26230007Y6780255D01*
X26043292Y6655496D01*
X25884504Y6496708D01*
X25759745Y6309993D01*
X25673810Y6102526D01*
X25630000Y5882280D01*
X25370000Y5882280D01*
X25326190Y6102526D01*
X25240255Y6309993D01*
X25115496Y6496708D01*
X24956708Y6655496D01*
X24769993Y6780255D01*
X24562526Y6866190D01*
X24342280Y6910000D01*
X24117720Y6910000D01*
X23897474Y6866190D01*
X23690007Y6780255D01*
X23503292Y6655496D01*
X23344504Y6496708D01*
X23219745Y6309993D01*
X23133810Y6102526D01*
X23090000Y5882280D01*
X22830000Y5882280D01*
X22786190Y6102526D01*
X22700255Y6309993D01*
X22575496Y6496708D01*
X22416708Y6655496D01*
X22229993Y6780255D01*
X22022526Y6866190D01*
X21802280Y6910000D01*
X21577720Y6910000D01*
X21357474Y6866190D01*
X21150007Y6780255D01*
X20963292Y6655496D01*
X20804504Y6496708D01*
X20679745Y6309993D01*
X20593810Y6102526D01*
X20550000Y5882280D01*
X20290000Y5882280D01*
X20246190Y6102526D01*
X20160255Y6309993D01*
X20035496Y6496708D01*
X19876708Y6655496D01*
X19689993Y6780255D01*
X19482526Y6866190D01*
X19262280Y6910000D01*
X19037720Y6910000D01*
X18817474Y6866190D01*
X18610007Y6780255D01*
X18423292Y6655496D01*
X18264504Y6496708D01*
X18139745Y6309993D01*
X18053810Y6102526D01*
X18010000Y5882280D01*
X17750000Y5882280D01*
X17706190Y6102526D01*
X17620255Y6309993D01*
X17495496Y6496708D01*
X17336708Y6655496D01*
X17149993Y6780255D01*
X16942526Y6866190D01*
X16722280Y6910000D01*
X16497720Y6910000D01*
X16277474Y6866190D01*
X16070007Y6780255D01*
X15883292Y6655496D01*
X15724504Y6496708D01*
X15599745Y6309993D01*
X15513810Y6102526D01*
X15470000Y5882280D01*
X15210000Y5882280D01*
X15166190Y6102526D01*
X15080255Y6309993D01*
X14955496Y6496708D01*
X14796708Y6655496D01*
X14609993Y6780255D01*
X14402526Y6866190D01*
X14182280Y6910000D01*
X13957720Y6910000D01*
X13737474Y6866190D01*
X13530007Y6780255D01*
X13343292Y6655496D01*
X13184504Y6496708D01*
X13059745Y6309993D01*
X12973810Y6102526D01*
X12930000Y5882280D01*
X12670000Y5882280D01*
X12626190Y6102526D01*
X12540255Y6309993D01*
X12415496Y6496708D01*
X12256708Y6655496D01*
X12069993Y6780255D01*
X11862526Y6866190D01*
X11642280Y6910000D01*
X11417720Y6910000D01*
X11197474Y6866190D01*
X10990007Y6780255D01*
X10803292Y6655496D01*
X10644504Y6496708D01*
X10519745Y6309993D01*
X10433810Y6102526D01*
X10390000Y5882280D01*
X10130000Y5882280D01*
X10086190Y6102526D01*
X10000255Y6309993D01*
X9875496Y6496708D01*
X9716708Y6655496D01*
X9529993Y6780255D01*
X9322526Y6866190D01*
X9102280Y6910000D01*
X8877720Y6910000D01*
X8657474Y6866190D01*
X8450007Y6780255D01*
X8263292Y6655496D01*
X8104504Y6496708D01*
X7979745Y6309993D01*
X7893810Y6102526D01*
X7850000Y5882280D01*
X7590000Y5882280D01*
X7546190Y6102526D01*
X7460255Y6309993D01*
X7335496Y6496708D01*
X7176708Y6655496D01*
X6989993Y6780255D01*
X6782526Y6866190D01*
X6562280Y6910000D01*
X6337720Y6910000D01*
X6117474Y6866190D01*
X5910007Y6780255D01*
X5723292Y6655496D01*
X5564504Y6496708D01*
X5439745Y6309993D01*
X5353810Y6102526D01*
X5339053Y6028337D01*
X5330692Y6030000D01*
X5029308Y6030000D01*
X5020947Y6028337D01*
X5006190Y6102526D01*
X4920255Y6309993D01*
X4795496Y6496708D01*
X4636708Y6655496D01*
X4449993Y6780255D01*
X4242526Y6866190D01*
X4022280Y6910000D01*
X3797720Y6910000D01*
X3577474Y6866190D01*
X3370007Y6780255D01*
X3183292Y6655496D01*
X3024504Y6496708D01*
X2899745Y6309993D01*
X2813810Y6102526D01*
X2799053Y6028337D01*
X2790692Y6030000D01*
X2489308Y6030000D01*
X2480947Y6028337D01*
X2466190Y6102526D01*
X2380255Y6309993D01*
X2255496Y6496708D01*
X2096708Y6655496D01*
X1909993Y6780255D01*
X1702526Y6866190D01*
X1482280Y6910000D01*
X1257720Y6910000D01*
X1037474Y6866190D01*
X830007Y6780255D01*
X655000Y6663319D01*
X655000Y19500000D01*
X50873000Y19500000D01*
X50873000Y16500000D01*
X50875440Y16475224D01*
X50882667Y16451399D01*
X50894403Y16429443D01*
X50910197Y16410197D01*
X52910197Y14410197D01*
X52929443Y14394403D01*
X52951399Y14382667D01*
X52975224Y14375440D01*
X53000000Y14373000D01*
X56000000Y14373000D01*
X56024776Y14375440D01*
X56048601Y14382667D01*
X56070557Y14394403D01*
X56089803Y14410197D01*
X58089803Y16410197D01*
X58105597Y16429443D01*
X58117333Y16451399D01*
X58124560Y16475224D01*
X58127000Y16500000D01*
X58127000Y16851446D01*
X63770000Y16851446D01*
X63770000Y16648554D01*
X63809582Y16449560D01*
X63887226Y16262112D01*
X63999947Y16093413D01*
X64143413Y15949947D01*
X64312112Y15837226D01*
X64499560Y15759582D01*
X64698554Y15720000D01*
X64901446Y15720000D01*
X65100440Y15759582D01*
X65246301Y15820000D01*
X67664783Y15820000D01*
X70494691Y12990090D01*
X70600820Y12902992D01*
X70762383Y12816636D01*
X70937688Y12763457D01*
X71120000Y12745501D01*
X71165680Y12750000D01*
X71421980Y12750000D01*
X71439168Y12735894D01*
X71635476Y12630965D01*
X71848481Y12566351D01*
X72014493Y12550000D01*
X73225507Y12550000D01*
X73391519Y12566351D01*
X73604524Y12630965D01*
X73800832Y12735894D01*
X73972896Y12877104D01*
X74114106Y13049168D01*
X74219035Y13245476D01*
X74283649Y13458481D01*
X74305467Y13680000D01*
X74283649Y13901519D01*
X74219035Y14114524D01*
X74114106Y14310832D01*
X73972896Y14482896D01*
X73912610Y14532372D01*
X73996310Y14657638D01*
X74068300Y14831437D01*
X74105000Y15015941D01*
X74105000Y15204059D01*
X74068300Y15388563D01*
X73996310Y15562362D01*
X73891797Y15718777D01*
X73758777Y15851797D01*
X73602362Y15956310D01*
X73428563Y16028300D01*
X73244059Y16065000D01*
X73055941Y16065000D01*
X72871437Y16028300D01*
X72697638Y15956310D01*
X72541223Y15851797D01*
X72408203Y15718777D01*
X72303690Y15562362D01*
X72231700Y15388563D01*
X72195000Y15204059D01*
X72195000Y15015941D01*
X72231700Y14831437D01*
X72240580Y14810000D01*
X72014493Y14810000D01*
X71848481Y14793649D01*
X71635476Y14729035D01*
X71473019Y14642200D01*
X68739921Y17375296D01*
X68710791Y17410791D01*
X68569180Y17527008D01*
X68407617Y17613364D01*
X68232312Y17666543D01*
X68095680Y17680000D01*
X68095679Y17680000D01*
X68050000Y17684499D01*
X68004321Y17680000D01*
X65246301Y17680000D01*
X65100440Y17740418D01*
X64901446Y17780000D01*
X64698554Y17780000D01*
X64499560Y17740418D01*
X64312112Y17662774D01*
X64143413Y17550053D01*
X63999947Y17406587D01*
X63887226Y17237888D01*
X63809582Y17050440D01*
X63770000Y16851446D01*
X58127000Y16851446D01*
X58127000Y19500000D01*
X58124560Y19524776D01*
X58117333Y19548601D01*
X58115813Y19551446D01*
X63770000Y19551446D01*
X63770000Y19348554D01*
X63809582Y19149560D01*
X63887226Y18962112D01*
X63999947Y18793413D01*
X64143413Y18649947D01*
X64312112Y18537226D01*
X64499560Y18459582D01*
X64698554Y18420000D01*
X64901446Y18420000D01*
X65100440Y18459582D01*
X65246301Y18520000D01*
X68104321Y18520000D01*
X68150000Y18515501D01*
X68195679Y18520000D01*
X68195680Y18520000D01*
X68332312Y18533457D01*
X68507617Y18586636D01*
X68669180Y18672992D01*
X68810791Y18789209D01*
X68839921Y18824704D01*
X71405218Y21390000D01*
X71421980Y21390000D01*
X71439168Y21375894D01*
X71635476Y21270965D01*
X71848481Y21206351D01*
X72014493Y21190000D01*
X72240580Y21190000D01*
X72231700Y21168563D01*
X72195000Y20984059D01*
X72195000Y20795941D01*
X72231700Y20611437D01*
X72303690Y20437638D01*
X72408203Y20281223D01*
X72541223Y20148203D01*
X72697638Y20043690D01*
X72871437Y19971700D01*
X73055941Y19935000D01*
X73244059Y19935000D01*
X73428563Y19971700D01*
X73602362Y20043690D01*
X73758777Y20148203D01*
X73891797Y20281223D01*
X73996310Y20437638D01*
X74068300Y20611437D01*
X74105000Y20795941D01*
X74105000Y20984059D01*
X74068300Y21168563D01*
X73996310Y21342362D01*
X73912610Y21467628D01*
X73972896Y21517104D01*
X74114106Y21689168D01*
X74219035Y21885476D01*
X74283649Y22098481D01*
X74305467Y22320000D01*
X74283649Y22541519D01*
X74219035Y22754524D01*
X74114106Y22950832D01*
X73972896Y23122896D01*
X73800832Y23264106D01*
X73604524Y23369035D01*
X73391519Y23433649D01*
X73225507Y23450000D01*
X72014493Y23450000D01*
X71848481Y23433649D01*
X71635476Y23369035D01*
X71439168Y23264106D01*
X71421980Y23250000D01*
X71065679Y23250000D01*
X71020000Y23254499D01*
X70974320Y23250000D01*
X70837688Y23236543D01*
X70662383Y23183364D01*
X70500820Y23097008D01*
X70359209Y22980791D01*
X70330084Y22945302D01*
X67764783Y20380000D01*
X65246301Y20380000D01*
X65100440Y20440418D01*
X64901446Y20480000D01*
X64698554Y20480000D01*
X64499560Y20440418D01*
X64312112Y20362774D01*
X64143413Y20250053D01*
X63999947Y20106587D01*
X63887226Y19937888D01*
X63809582Y19750440D01*
X63770000Y19551446D01*
X58115813Y19551446D01*
X58105597Y19570557D01*
X58089803Y19589803D01*
X56089803Y21589803D01*
X56070557Y21605597D01*
X56048601Y21617333D01*
X56024776Y21624560D01*
X56000000Y21627000D01*
X53000000Y21627000D01*
X52975224Y21624560D01*
X52951399Y21617333D01*
X52929443Y21605597D01*
X52910197Y21589803D01*
X50910197Y19589803D01*
X50894403Y19570557D01*
X50882667Y19548601D01*
X50875440Y19524776D01*
X50873000Y19500000D01*
X655000Y19500000D01*
X655000Y27345000D01*
X77345001Y27345000D01*
X77345001Y23426526D01*
G37*
X77345001Y23426526D02*
X77321519Y23433649D01*
X77155507Y23450000D01*
X76444493Y23450000D01*
X76278481Y23433649D01*
X76065476Y23369035D01*
X75869168Y23264106D01*
X75697104Y23122896D01*
X75555894Y22950832D01*
X75450965Y22754524D01*
X75386351Y22541519D01*
X75364533Y22320000D01*
X75386351Y22098481D01*
X75450965Y21885476D01*
X75555894Y21689168D01*
X75697104Y21517104D01*
X75869168Y21375894D01*
X76065476Y21270965D01*
X76278481Y21206351D01*
X76444493Y21190000D01*
X77155507Y21190000D01*
X77321519Y21206351D01*
X77345001Y21213474D01*
X77345000Y14786526D01*
X77321519Y14793649D01*
X77155507Y14810000D01*
X76444493Y14810000D01*
X76278481Y14793649D01*
X76065476Y14729035D01*
X75869168Y14624106D01*
X75697104Y14482896D01*
X75555894Y14310832D01*
X75450965Y14114524D01*
X75386351Y13901519D01*
X75364533Y13680000D01*
X75386351Y13458481D01*
X75450965Y13245476D01*
X75555894Y13049168D01*
X75697104Y12877104D01*
X75869168Y12735894D01*
X76065476Y12630965D01*
X76278481Y12566351D01*
X76444493Y12550000D01*
X77155507Y12550000D01*
X77321519Y12566351D01*
X77345000Y12573474D01*
X77345000Y8655000D01*
X51032174Y8655000D01*
X51000000Y8658169D01*
X50967826Y8655000D01*
X50871598Y8645522D01*
X50748130Y8608069D01*
X50634341Y8547248D01*
X50534604Y8465396D01*
X50452752Y8365659D01*
X50391931Y8251870D01*
X50354478Y8128402D01*
X50341831Y8000000D01*
X50345001Y7967816D01*
X50345001Y6663318D01*
X50169993Y6780255D01*
X49962526Y6866190D01*
X49742280Y6910000D01*
X49517720Y6910000D01*
X49297474Y6866190D01*
X49090007Y6780255D01*
X48903292Y6655496D01*
X48744504Y6496708D01*
X48619745Y6309993D01*
X48533810Y6102526D01*
X48519053Y6028337D01*
X48510692Y6030000D01*
X48209308Y6030000D01*
X48200947Y6028337D01*
X48186190Y6102526D01*
X48100255Y6309993D01*
X47975496Y6496708D01*
X47816708Y6655496D01*
X47629993Y6780255D01*
X47422526Y6866190D01*
X47202280Y6910000D01*
X46977720Y6910000D01*
X46757474Y6866190D01*
X46550007Y6780255D01*
X46363292Y6655496D01*
X46204504Y6496708D01*
X46079745Y6309993D01*
X45993810Y6102526D01*
X45979053Y6028337D01*
X45970692Y6030000D01*
X45669308Y6030000D01*
X45660947Y6028337D01*
X45646190Y6102526D01*
X45560255Y6309993D01*
X45435496Y6496708D01*
X45276708Y6655496D01*
X45089993Y6780255D01*
X44882526Y6866190D01*
X44662280Y6910000D01*
X44437720Y6910000D01*
X44217474Y6866190D01*
X44010007Y6780255D01*
X43823292Y6655496D01*
X43664504Y6496708D01*
X43539745Y6309993D01*
X43453810Y6102526D01*
X43410000Y5882280D01*
X43410000Y5657720D01*
X43453810Y5437474D01*
X43539745Y5230007D01*
X43664504Y5043292D01*
X43823292Y4884504D01*
X44010007Y4759745D01*
X44217474Y4673810D01*
X44291663Y4659053D01*
X44290000Y4650692D01*
X44290000Y4349308D01*
X44291663Y4340947D01*
X44217474Y4326190D01*
X44010007Y4240255D01*
X43823292Y4115496D01*
X43664504Y3956708D01*
X43539745Y3769993D01*
X43453810Y3562526D01*
X43410000Y3342280D01*
X43410000Y3117720D01*
X43453810Y2897474D01*
X43539745Y2690007D01*
X43664504Y2503292D01*
X43823292Y2344504D01*
X44010007Y2219745D01*
X44217474Y2133810D01*
X44437720Y2090000D01*
X44662280Y2090000D01*
X44882526Y2133810D01*
X45089993Y2219745D01*
X45276708Y2344504D01*
X45435496Y2503292D01*
X45560255Y2690007D01*
X45646190Y2897474D01*
X45660947Y2971663D01*
X45669308Y2970000D01*
X45970692Y2970000D01*
X45979053Y2971663D01*
X45993810Y2897474D01*
X46079745Y2690007D01*
X46204504Y2503292D01*
X46363292Y2344504D01*
X46550007Y2219745D01*
X46757474Y2133810D01*
X46977720Y2090000D01*
X47202280Y2090000D01*
X47422526Y2133810D01*
X47629993Y2219745D01*
X47816708Y2344504D01*
X47975496Y2503292D01*
X48100255Y2690007D01*
X48186190Y2897474D01*
X48200947Y2971663D01*
X48209308Y2970000D01*
X48510692Y2970000D01*
X48519053Y2971663D01*
X48533810Y2897474D01*
X48619745Y2690007D01*
X48744504Y2503292D01*
X48903292Y2344504D01*
X49090007Y2219745D01*
X49297474Y2133810D01*
X49517720Y2090000D01*
X49742280Y2090000D01*
X49962526Y2133810D01*
X50169993Y2219745D01*
X50345000Y2336681D01*
X50345000Y967827D01*
X50345001Y967817D01*
X50345001Y655000D01*
X655000Y655000D01*
X655000Y2336681D01*
X830007Y2219745D01*
X1037474Y2133810D01*
X1257720Y2090000D01*
X1482280Y2090000D01*
X1702526Y2133810D01*
X1909993Y2219745D01*
X2096708Y2344504D01*
X2255496Y2503292D01*
X2380255Y2690007D01*
X2466190Y2897474D01*
X2480947Y2971663D01*
X2489308Y2970000D01*
X2790692Y2970000D01*
X2799053Y2971663D01*
X2813810Y2897474D01*
X2899745Y2690007D01*
X3024504Y2503292D01*
X3183292Y2344504D01*
X3370007Y2219745D01*
X3577474Y2133810D01*
X3797720Y2090000D01*
X4022280Y2090000D01*
X4242526Y2133810D01*
X4449993Y2219745D01*
X4636708Y2344504D01*
X4795496Y2503292D01*
X4920255Y2690007D01*
X5006190Y2897474D01*
X5020947Y2971663D01*
X5029308Y2970000D01*
X5330692Y2970000D01*
X5339053Y2971663D01*
X5353810Y2897474D01*
X5439745Y2690007D01*
X5564504Y2503292D01*
X5723292Y2344504D01*
X5910007Y2219745D01*
X6117474Y2133810D01*
X6337720Y2090000D01*
X6562280Y2090000D01*
X6782526Y2133810D01*
X6989993Y2219745D01*
X7176708Y2344504D01*
X7335496Y2503292D01*
X7460255Y2690007D01*
X7546190Y2897474D01*
X7590000Y3117720D01*
X7590000Y3342280D01*
X7850000Y3342280D01*
X7850000Y3117720D01*
X7893810Y2897474D01*
X7979745Y2690007D01*
X8104504Y2503292D01*
X8263292Y2344504D01*
X8450007Y2219745D01*
X8657474Y2133810D01*
X8877720Y2090000D01*
X9102280Y2090000D01*
X9322526Y2133810D01*
X9529993Y2219745D01*
X9716708Y2344504D01*
X9875496Y2503292D01*
X10000255Y2690007D01*
X10086190Y2897474D01*
X10130000Y3117720D01*
X10130000Y3342280D01*
X10390000Y3342280D01*
X10390000Y3117720D01*
X10433810Y2897474D01*
X10519745Y2690007D01*
X10644504Y2503292D01*
X10803292Y2344504D01*
X10990007Y2219745D01*
X11197474Y2133810D01*
X11417720Y2090000D01*
X11642280Y2090000D01*
X11862526Y2133810D01*
X12069993Y2219745D01*
X12256708Y2344504D01*
X12415496Y2503292D01*
X12540255Y2690007D01*
X12626190Y2897474D01*
X12670000Y3117720D01*
X12670000Y3342280D01*
X12930000Y3342280D01*
X12930000Y3117720D01*
X12973810Y2897474D01*
X13059745Y2690007D01*
X13184504Y2503292D01*
X13343292Y2344504D01*
X13530007Y2219745D01*
X13737474Y2133810D01*
X13957720Y2090000D01*
X14182280Y2090000D01*
X14402526Y2133810D01*
X14609993Y2219745D01*
X14796708Y2344504D01*
X14955496Y2503292D01*
X15080255Y2690007D01*
X15166190Y2897474D01*
X15210000Y3117720D01*
X15210000Y3342280D01*
X15470000Y3342280D01*
X15470000Y3117720D01*
X15513810Y2897474D01*
X15599745Y2690007D01*
X15724504Y2503292D01*
X15883292Y2344504D01*
X16070007Y2219745D01*
X16277474Y2133810D01*
X16497720Y2090000D01*
X16722280Y2090000D01*
X16942526Y2133810D01*
X17149993Y2219745D01*
X17336708Y2344504D01*
X17495496Y2503292D01*
X17620255Y2690007D01*
X17706190Y2897474D01*
X17750000Y3117720D01*
X17750000Y3342280D01*
X18010000Y3342280D01*
X18010000Y3117720D01*
X18053810Y2897474D01*
X18139745Y2690007D01*
X18264504Y2503292D01*
X18423292Y2344504D01*
X18610007Y2219745D01*
X18817474Y2133810D01*
X19037720Y2090000D01*
X19262280Y2090000D01*
X19482526Y2133810D01*
X19689993Y2219745D01*
X19876708Y2344504D01*
X20035496Y2503292D01*
X20160255Y2690007D01*
X20246190Y2897474D01*
X20290000Y3117720D01*
X20290000Y3342280D01*
X20550000Y3342280D01*
X20550000Y3117720D01*
X20593810Y2897474D01*
X20679745Y2690007D01*
X20804504Y2503292D01*
X20963292Y2344504D01*
X21150007Y2219745D01*
X21357474Y2133810D01*
X21577720Y2090000D01*
X21802280Y2090000D01*
X22022526Y2133810D01*
X22229993Y2219745D01*
X22416708Y2344504D01*
X22575496Y2503292D01*
X22700255Y2690007D01*
X22786190Y2897474D01*
X22830000Y3117720D01*
X22830000Y3342280D01*
X23090000Y3342280D01*
X23090000Y3117720D01*
X23133810Y2897474D01*
X23219745Y2690007D01*
X23344504Y2503292D01*
X23503292Y2344504D01*
X23690007Y2219745D01*
X23897474Y2133810D01*
X24117720Y2090000D01*
X24342280Y2090000D01*
X24562526Y2133810D01*
X24769993Y2219745D01*
X24956708Y2344504D01*
X25115496Y2503292D01*
X25240255Y2690007D01*
X25326190Y2897474D01*
X25370000Y3117720D01*
X25370000Y3342280D01*
X25630000Y3342280D01*
X25630000Y3117720D01*
X25673810Y2897474D01*
X25759745Y2690007D01*
X25884504Y2503292D01*
X26043292Y2344504D01*
X26230007Y2219745D01*
X26437474Y2133810D01*
X26657720Y2090000D01*
X26882280Y2090000D01*
X27102526Y2133810D01*
X27309993Y2219745D01*
X27496708Y2344504D01*
X27655496Y2503292D01*
X27780255Y2690007D01*
X27866190Y2897474D01*
X27910000Y3117720D01*
X27910000Y3342280D01*
X28170000Y3342280D01*
X28170000Y3117720D01*
X28213810Y2897474D01*
X28299745Y2690007D01*
X28424504Y2503292D01*
X28583292Y2344504D01*
X28770007Y2219745D01*
X28977474Y2133810D01*
X29197720Y2090000D01*
X29422280Y2090000D01*
X29642526Y2133810D01*
X29849993Y2219745D01*
X30036708Y2344504D01*
X30195496Y2503292D01*
X30320255Y2690007D01*
X30406190Y2897474D01*
X30450000Y3117720D01*
X30450000Y3342280D01*
X30710000Y3342280D01*
X30710000Y3117720D01*
X30753810Y2897474D01*
X30839745Y2690007D01*
X30964504Y2503292D01*
X31123292Y2344504D01*
X31310007Y2219745D01*
X31517474Y2133810D01*
X31737720Y2090000D01*
X31962280Y2090000D01*
X32182526Y2133810D01*
X32389993Y2219745D01*
X32576708Y2344504D01*
X32735496Y2503292D01*
X32860255Y2690007D01*
X32946190Y2897474D01*
X32990000Y3117720D01*
X32990000Y3342280D01*
X33250000Y3342280D01*
X33250000Y3117720D01*
X33293810Y2897474D01*
X33379745Y2690007D01*
X33504504Y2503292D01*
X33663292Y2344504D01*
X33850007Y2219745D01*
X34057474Y2133810D01*
X34277720Y2090000D01*
X34502280Y2090000D01*
X34722526Y2133810D01*
X34929993Y2219745D01*
X35116708Y2344504D01*
X35275496Y2503292D01*
X35400255Y2690007D01*
X35486190Y2897474D01*
X35530000Y3117720D01*
X35530000Y3342280D01*
X35790000Y3342280D01*
X35790000Y3117720D01*
X35833810Y2897474D01*
X35919745Y2690007D01*
X36044504Y2503292D01*
X36203292Y2344504D01*
X36390007Y2219745D01*
X36597474Y2133810D01*
X36817720Y2090000D01*
X37042280Y2090000D01*
X37262526Y2133810D01*
X37469993Y2219745D01*
X37656708Y2344504D01*
X37815496Y2503292D01*
X37940255Y2690007D01*
X38026190Y2897474D01*
X38070000Y3117720D01*
X38070000Y3342280D01*
X38330000Y3342280D01*
X38330000Y3117720D01*
X38373810Y2897474D01*
X38459745Y2690007D01*
X38584504Y2503292D01*
X38743292Y2344504D01*
X38930007Y2219745D01*
X39137474Y2133810D01*
X39357720Y2090000D01*
X39582280Y2090000D01*
X39802526Y2133810D01*
X40009993Y2219745D01*
X40196708Y2344504D01*
X40355496Y2503292D01*
X40480255Y2690007D01*
X40566190Y2897474D01*
X40610000Y3117720D01*
X40610000Y3342280D01*
X40870000Y3342280D01*
X40870000Y3117720D01*
X40913810Y2897474D01*
X40999745Y2690007D01*
X41124504Y2503292D01*
X41283292Y2344504D01*
X41470007Y2219745D01*
X41677474Y2133810D01*
X41897720Y2090000D01*
X42122280Y2090000D01*
X42342526Y2133810D01*
X42549993Y2219745D01*
X42736708Y2344504D01*
X42895496Y2503292D01*
X43020255Y2690007D01*
X43106190Y2897474D01*
X43150000Y3117720D01*
X43150000Y3342280D01*
X43106190Y3562526D01*
X43020255Y3769993D01*
X42895496Y3956708D01*
X42736708Y4115496D01*
X42549993Y4240255D01*
X42342526Y4326190D01*
X42122280Y4370000D01*
X41897720Y4370000D01*
X41677474Y4326190D01*
X41470007Y4240255D01*
X41283292Y4115496D01*
X41124504Y3956708D01*
X40999745Y3769993D01*
X40913810Y3562526D01*
X40870000Y3342280D01*
X40610000Y3342280D01*
X40566190Y3562526D01*
X40480255Y3769993D01*
X40355496Y3956708D01*
X40196708Y4115496D01*
X40009993Y4240255D01*
X39802526Y4326190D01*
X39582280Y4370000D01*
X39357720Y4370000D01*
X39137474Y4326190D01*
X38930007Y4240255D01*
X38743292Y4115496D01*
X38584504Y3956708D01*
X38459745Y3769993D01*
X38373810Y3562526D01*
X38330000Y3342280D01*
X38070000Y3342280D01*
X38026190Y3562526D01*
X37940255Y3769993D01*
X37815496Y3956708D01*
X37656708Y4115496D01*
X37469993Y4240255D01*
X37262526Y4326190D01*
X37042280Y4370000D01*
X36817720Y4370000D01*
X36597474Y4326190D01*
X36390007Y4240255D01*
X36203292Y4115496D01*
X36044504Y3956708D01*
X35919745Y3769993D01*
X35833810Y3562526D01*
X35790000Y3342280D01*
X35530000Y3342280D01*
X35486190Y3562526D01*
X35400255Y3769993D01*
X35275496Y3956708D01*
X35116708Y4115496D01*
X34929993Y4240255D01*
X34722526Y4326190D01*
X34502280Y4370000D01*
X34277720Y4370000D01*
X34057474Y4326190D01*
X33850007Y4240255D01*
X33663292Y4115496D01*
X33504504Y3956708D01*
X33379745Y3769993D01*
X33293810Y3562526D01*
X33250000Y3342280D01*
X32990000Y3342280D01*
X32946190Y3562526D01*
X32860255Y3769993D01*
X32735496Y3956708D01*
X32576708Y4115496D01*
X32389993Y4240255D01*
X32182526Y4326190D01*
X31962280Y4370000D01*
X31737720Y4370000D01*
X31517474Y4326190D01*
X31310007Y4240255D01*
X31123292Y4115496D01*
X30964504Y3956708D01*
X30839745Y3769993D01*
X30753810Y3562526D01*
X30710000Y3342280D01*
X30450000Y3342280D01*
X30406190Y3562526D01*
X30320255Y3769993D01*
X30195496Y3956708D01*
X30036708Y4115496D01*
X29849993Y4240255D01*
X29642526Y4326190D01*
X29422280Y4370000D01*
X29197720Y4370000D01*
X28977474Y4326190D01*
X28770007Y4240255D01*
X28583292Y4115496D01*
X28424504Y3956708D01*
X28299745Y3769993D01*
X28213810Y3562526D01*
X28170000Y3342280D01*
X27910000Y3342280D01*
X27866190Y3562526D01*
X27780255Y3769993D01*
X27655496Y3956708D01*
X27496708Y4115496D01*
X27309993Y4240255D01*
X27102526Y4326190D01*
X26882280Y4370000D01*
X26657720Y4370000D01*
X26437474Y4326190D01*
X26230007Y4240255D01*
X26043292Y4115496D01*
X25884504Y3956708D01*
X25759745Y3769993D01*
X25673810Y3562526D01*
X25630000Y3342280D01*
X25370000Y3342280D01*
X25326190Y3562526D01*
X25240255Y3769993D01*
X25115496Y3956708D01*
X24956708Y4115496D01*
X24769993Y4240255D01*
X24562526Y4326190D01*
X24342280Y4370000D01*
X24117720Y4370000D01*
X23897474Y4326190D01*
X23690007Y4240255D01*
X23503292Y4115496D01*
X23344504Y3956708D01*
X23219745Y3769993D01*
X23133810Y3562526D01*
X23090000Y3342280D01*
X22830000Y3342280D01*
X22786190Y3562526D01*
X22700255Y3769993D01*
X22575496Y3956708D01*
X22416708Y4115496D01*
X22229993Y4240255D01*
X22022526Y4326190D01*
X21802280Y4370000D01*
X21577720Y4370000D01*
X21357474Y4326190D01*
X21150007Y4240255D01*
X20963292Y4115496D01*
X20804504Y3956708D01*
X20679745Y3769993D01*
X20593810Y3562526D01*
X20550000Y3342280D01*
X20290000Y3342280D01*
X20246190Y3562526D01*
X20160255Y3769993D01*
X20035496Y3956708D01*
X19876708Y4115496D01*
X19689993Y4240255D01*
X19482526Y4326190D01*
X19262280Y4370000D01*
X19037720Y4370000D01*
X18817474Y4326190D01*
X18610007Y4240255D01*
X18423292Y4115496D01*
X18264504Y3956708D01*
X18139745Y3769993D01*
X18053810Y3562526D01*
X18010000Y3342280D01*
X17750000Y3342280D01*
X17706190Y3562526D01*
X17620255Y3769993D01*
X17495496Y3956708D01*
X17336708Y4115496D01*
X17149993Y4240255D01*
X16942526Y4326190D01*
X16722280Y4370000D01*
X16497720Y4370000D01*
X16277474Y4326190D01*
X16070007Y4240255D01*
X15883292Y4115496D01*
X15724504Y3956708D01*
X15599745Y3769993D01*
X15513810Y3562526D01*
X15470000Y3342280D01*
X15210000Y3342280D01*
X15166190Y3562526D01*
X15080255Y3769993D01*
X14955496Y3956708D01*
X14796708Y4115496D01*
X14609993Y4240255D01*
X14402526Y4326190D01*
X14182280Y4370000D01*
X13957720Y4370000D01*
X13737474Y4326190D01*
X13530007Y4240255D01*
X13343292Y4115496D01*
X13184504Y3956708D01*
X13059745Y3769993D01*
X12973810Y3562526D01*
X12930000Y3342280D01*
X12670000Y3342280D01*
X12626190Y3562526D01*
X12540255Y3769993D01*
X12415496Y3956708D01*
X12256708Y4115496D01*
X12069993Y4240255D01*
X11862526Y4326190D01*
X11642280Y4370000D01*
X11417720Y4370000D01*
X11197474Y4326190D01*
X10990007Y4240255D01*
X10803292Y4115496D01*
X10644504Y3956708D01*
X10519745Y3769993D01*
X10433810Y3562526D01*
X10390000Y3342280D01*
X10130000Y3342280D01*
X10086190Y3562526D01*
X10000255Y3769993D01*
X9875496Y3956708D01*
X9716708Y4115496D01*
X9529993Y4240255D01*
X9322526Y4326190D01*
X9102280Y4370000D01*
X8877720Y4370000D01*
X8657474Y4326190D01*
X8450007Y4240255D01*
X8263292Y4115496D01*
X8104504Y3956708D01*
X7979745Y3769993D01*
X7893810Y3562526D01*
X7850000Y3342280D01*
X7590000Y3342280D01*
X7546190Y3562526D01*
X7460255Y3769993D01*
X7335496Y3956708D01*
X7176708Y4115496D01*
X6989993Y4240255D01*
X6782526Y4326190D01*
X6708337Y4340947D01*
X6710000Y4349308D01*
X6710000Y4650692D01*
X6708337Y4659053D01*
X6782526Y4673810D01*
X6989993Y4759745D01*
X7176708Y4884504D01*
X7335496Y5043292D01*
X7460255Y5230007D01*
X7546190Y5437474D01*
X7590000Y5657720D01*
X7590000Y5882280D01*
X7850000Y5882280D01*
X7850000Y5657720D01*
X7893810Y5437474D01*
X7979745Y5230007D01*
X8104504Y5043292D01*
X8263292Y4884504D01*
X8450007Y4759745D01*
X8657474Y4673810D01*
X8877720Y4630000D01*
X9102280Y4630000D01*
X9322526Y4673810D01*
X9529993Y4759745D01*
X9716708Y4884504D01*
X9875496Y5043292D01*
X10000255Y5230007D01*
X10086190Y5437474D01*
X10130000Y5657720D01*
X10130000Y5882280D01*
X10390000Y5882280D01*
X10390000Y5657720D01*
X10433810Y5437474D01*
X10519745Y5230007D01*
X10644504Y5043292D01*
X10803292Y4884504D01*
X10990007Y4759745D01*
X11197474Y4673810D01*
X11417720Y4630000D01*
X11642280Y4630000D01*
X11862526Y4673810D01*
X12069993Y4759745D01*
X12256708Y4884504D01*
X12415496Y5043292D01*
X12540255Y5230007D01*
X12626190Y5437474D01*
X12670000Y5657720D01*
X12670000Y5882280D01*
X12930000Y5882280D01*
X12930000Y5657720D01*
X12973810Y5437474D01*
X13059745Y5230007D01*
X13184504Y5043292D01*
X13343292Y4884504D01*
X13530007Y4759745D01*
X13737474Y4673810D01*
X13957720Y4630000D01*
X14182280Y4630000D01*
X14402526Y4673810D01*
X14609993Y4759745D01*
X14796708Y4884504D01*
X14955496Y5043292D01*
X15080255Y5230007D01*
X15166190Y5437474D01*
X15210000Y5657720D01*
X15210000Y5882280D01*
X15470000Y5882280D01*
X15470000Y5657720D01*
X15513810Y5437474D01*
X15599745Y5230007D01*
X15724504Y5043292D01*
X15883292Y4884504D01*
X16070007Y4759745D01*
X16277474Y4673810D01*
X16497720Y4630000D01*
X16722280Y4630000D01*
X16942526Y4673810D01*
X17149993Y4759745D01*
X17336708Y4884504D01*
X17495496Y5043292D01*
X17620255Y5230007D01*
X17706190Y5437474D01*
X17750000Y5657720D01*
X17750000Y5882280D01*
X18010000Y5882280D01*
X18010000Y5657720D01*
X18053810Y5437474D01*
X18139745Y5230007D01*
X18264504Y5043292D01*
X18423292Y4884504D01*
X18610007Y4759745D01*
X18817474Y4673810D01*
X19037720Y4630000D01*
X19262280Y4630000D01*
X19482526Y4673810D01*
X19689993Y4759745D01*
X19876708Y4884504D01*
X20035496Y5043292D01*
X20160255Y5230007D01*
X20246190Y5437474D01*
X20290000Y5657720D01*
X20290000Y5882280D01*
X20550000Y5882280D01*
X20550000Y5657720D01*
X20593810Y5437474D01*
X20679745Y5230007D01*
X20804504Y5043292D01*
X20963292Y4884504D01*
X21150007Y4759745D01*
X21357474Y4673810D01*
X21577720Y4630000D01*
X21802280Y4630000D01*
X22022526Y4673810D01*
X22229993Y4759745D01*
X22416708Y4884504D01*
X22575496Y5043292D01*
X22700255Y5230007D01*
X22786190Y5437474D01*
X22830000Y5657720D01*
X22830000Y5882280D01*
X23090000Y5882280D01*
X23090000Y5657720D01*
X23133810Y5437474D01*
X23219745Y5230007D01*
X23344504Y5043292D01*
X23503292Y4884504D01*
X23690007Y4759745D01*
X23897474Y4673810D01*
X24117720Y4630000D01*
X24342280Y4630000D01*
X24562526Y4673810D01*
X24769993Y4759745D01*
X24956708Y4884504D01*
X25115496Y5043292D01*
X25240255Y5230007D01*
X25326190Y5437474D01*
X25370000Y5657720D01*
X25370000Y5882280D01*
X25630000Y5882280D01*
X25630000Y5657720D01*
X25673810Y5437474D01*
X25759745Y5230007D01*
X25884504Y5043292D01*
X26043292Y4884504D01*
X26230007Y4759745D01*
X26437474Y4673810D01*
X26657720Y4630000D01*
X26882280Y4630000D01*
X27102526Y4673810D01*
X27309993Y4759745D01*
X27496708Y4884504D01*
X27655496Y5043292D01*
X27780255Y5230007D01*
X27866190Y5437474D01*
X27910000Y5657720D01*
X27910000Y5882280D01*
X28170000Y5882280D01*
X28170000Y5657720D01*
X28213810Y5437474D01*
X28299745Y5230007D01*
X28424504Y5043292D01*
X28583292Y4884504D01*
X28770007Y4759745D01*
X28977474Y4673810D01*
X29197720Y4630000D01*
X29422280Y4630000D01*
X29642526Y4673810D01*
X29849993Y4759745D01*
X30036708Y4884504D01*
X30195496Y5043292D01*
X30320255Y5230007D01*
X30406190Y5437474D01*
X30450000Y5657720D01*
X30450000Y5882280D01*
X30710000Y5882280D01*
X30710000Y5657720D01*
X30753810Y5437474D01*
X30839745Y5230007D01*
X30964504Y5043292D01*
X31123292Y4884504D01*
X31310007Y4759745D01*
X31517474Y4673810D01*
X31737720Y4630000D01*
X31962280Y4630000D01*
X32182526Y4673810D01*
X32389993Y4759745D01*
X32576708Y4884504D01*
X32735496Y5043292D01*
X32860255Y5230007D01*
X32946190Y5437474D01*
X32990000Y5657720D01*
X32990000Y5882280D01*
X33250000Y5882280D01*
X33250000Y5657720D01*
X33293810Y5437474D01*
X33379745Y5230007D01*
X33504504Y5043292D01*
X33663292Y4884504D01*
X33850007Y4759745D01*
X34057474Y4673810D01*
X34277720Y4630000D01*
X34502280Y4630000D01*
X34722526Y4673810D01*
X34929993Y4759745D01*
X35116708Y4884504D01*
X35275496Y5043292D01*
X35400255Y5230007D01*
X35486190Y5437474D01*
X35530000Y5657720D01*
X35530000Y5882280D01*
X35790000Y5882280D01*
X35790000Y5657720D01*
X35833810Y5437474D01*
X35919745Y5230007D01*
X36044504Y5043292D01*
X36203292Y4884504D01*
X36390007Y4759745D01*
X36597474Y4673810D01*
X36817720Y4630000D01*
X37042280Y4630000D01*
X37262526Y4673810D01*
X37469993Y4759745D01*
X37656708Y4884504D01*
X37815496Y5043292D01*
X37940255Y5230007D01*
X38026190Y5437474D01*
X38070000Y5657720D01*
X38070000Y5882280D01*
X38330000Y5882280D01*
X38330000Y5657720D01*
X38373810Y5437474D01*
X38459745Y5230007D01*
X38584504Y5043292D01*
X38743292Y4884504D01*
X38930007Y4759745D01*
X39137474Y4673810D01*
X39357720Y4630000D01*
X39582280Y4630000D01*
X39802526Y4673810D01*
X40009993Y4759745D01*
X40196708Y4884504D01*
X40355496Y5043292D01*
X40480255Y5230007D01*
X40566190Y5437474D01*
X40610000Y5657720D01*
X40610000Y5882280D01*
X40870000Y5882280D01*
X40870000Y5657720D01*
X40913810Y5437474D01*
X40999745Y5230007D01*
X41124504Y5043292D01*
X41283292Y4884504D01*
X41470007Y4759745D01*
X41677474Y4673810D01*
X41897720Y4630000D01*
X42122280Y4630000D01*
X42342526Y4673810D01*
X42549993Y4759745D01*
X42736708Y4884504D01*
X42895496Y5043292D01*
X43020255Y5230007D01*
X43106190Y5437474D01*
X43150000Y5657720D01*
X43150000Y5882280D01*
X43106190Y6102526D01*
X43020255Y6309993D01*
X42895496Y6496708D01*
X42736708Y6655496D01*
X42549993Y6780255D01*
X42342526Y6866190D01*
X42122280Y6910000D01*
X41897720Y6910000D01*
X41677474Y6866190D01*
X41470007Y6780255D01*
X41283292Y6655496D01*
X41124504Y6496708D01*
X40999745Y6309993D01*
X40913810Y6102526D01*
X40870000Y5882280D01*
X40610000Y5882280D01*
X40566190Y6102526D01*
X40480255Y6309993D01*
X40355496Y6496708D01*
X40196708Y6655496D01*
X40009993Y6780255D01*
X39802526Y6866190D01*
X39582280Y6910000D01*
X39357720Y6910000D01*
X39137474Y6866190D01*
X38930007Y6780255D01*
X38743292Y6655496D01*
X38584504Y6496708D01*
X38459745Y6309993D01*
X38373810Y6102526D01*
X38330000Y5882280D01*
X38070000Y5882280D01*
X38026190Y6102526D01*
X37940255Y6309993D01*
X37815496Y6496708D01*
X37656708Y6655496D01*
X37469993Y6780255D01*
X37262526Y6866190D01*
X37042280Y6910000D01*
X36817720Y6910000D01*
X36597474Y6866190D01*
X36390007Y6780255D01*
X36203292Y6655496D01*
X36044504Y6496708D01*
X35919745Y6309993D01*
X35833810Y6102526D01*
X35790000Y5882280D01*
X35530000Y5882280D01*
X35486190Y6102526D01*
X35400255Y6309993D01*
X35275496Y6496708D01*
X35116708Y6655496D01*
X34929993Y6780255D01*
X34722526Y6866190D01*
X34502280Y6910000D01*
X34277720Y6910000D01*
X34057474Y6866190D01*
X33850007Y6780255D01*
X33663292Y6655496D01*
X33504504Y6496708D01*
X33379745Y6309993D01*
X33293810Y6102526D01*
X33250000Y5882280D01*
X32990000Y5882280D01*
X32946190Y6102526D01*
X32860255Y6309993D01*
X32735496Y6496708D01*
X32576708Y6655496D01*
X32389993Y6780255D01*
X32182526Y6866190D01*
X31962280Y6910000D01*
X31737720Y6910000D01*
X31517474Y6866190D01*
X31310007Y6780255D01*
X31123292Y6655496D01*
X30964504Y6496708D01*
X30839745Y6309993D01*
X30753810Y6102526D01*
X30710000Y5882280D01*
X30450000Y5882280D01*
X30406190Y6102526D01*
X30320255Y6309993D01*
X30195496Y6496708D01*
X30036708Y6655496D01*
X29849993Y6780255D01*
X29642526Y6866190D01*
X29422280Y6910000D01*
X29197720Y6910000D01*
X28977474Y6866190D01*
X28770007Y6780255D01*
X28583292Y6655496D01*
X28424504Y6496708D01*
X28299745Y6309993D01*
X28213810Y6102526D01*
X28170000Y5882280D01*
X27910000Y5882280D01*
X27866190Y6102526D01*
X27780255Y6309993D01*
X27655496Y6496708D01*
X27496708Y6655496D01*
X27309993Y6780255D01*
X27102526Y6866190D01*
X26882280Y6910000D01*
X26657720Y6910000D01*
X26437474Y6866190D01*
X26230007Y6780255D01*
X26043292Y6655496D01*
X25884504Y6496708D01*
X25759745Y6309993D01*
X25673810Y6102526D01*
X25630000Y5882280D01*
X25370000Y5882280D01*
X25326190Y6102526D01*
X25240255Y6309993D01*
X25115496Y6496708D01*
X24956708Y6655496D01*
X24769993Y6780255D01*
X24562526Y6866190D01*
X24342280Y6910000D01*
X24117720Y6910000D01*
X23897474Y6866190D01*
X23690007Y6780255D01*
X23503292Y6655496D01*
X23344504Y6496708D01*
X23219745Y6309993D01*
X23133810Y6102526D01*
X23090000Y5882280D01*
X22830000Y5882280D01*
X22786190Y6102526D01*
X22700255Y6309993D01*
X22575496Y6496708D01*
X22416708Y6655496D01*
X22229993Y6780255D01*
X22022526Y6866190D01*
X21802280Y6910000D01*
X21577720Y6910000D01*
X21357474Y6866190D01*
X21150007Y6780255D01*
X20963292Y6655496D01*
X20804504Y6496708D01*
X20679745Y6309993D01*
X20593810Y6102526D01*
X20550000Y5882280D01*
X20290000Y5882280D01*
X20246190Y6102526D01*
X20160255Y6309993D01*
X20035496Y6496708D01*
X19876708Y6655496D01*
X19689993Y6780255D01*
X19482526Y6866190D01*
X19262280Y6910000D01*
X19037720Y6910000D01*
X18817474Y6866190D01*
X18610007Y6780255D01*
X18423292Y6655496D01*
X18264504Y6496708D01*
X18139745Y6309993D01*
X18053810Y6102526D01*
X18010000Y5882280D01*
X17750000Y5882280D01*
X17706190Y6102526D01*
X17620255Y6309993D01*
X17495496Y6496708D01*
X17336708Y6655496D01*
X17149993Y6780255D01*
X16942526Y6866190D01*
X16722280Y6910000D01*
X16497720Y6910000D01*
X16277474Y6866190D01*
X16070007Y6780255D01*
X15883292Y6655496D01*
X15724504Y6496708D01*
X15599745Y6309993D01*
X15513810Y6102526D01*
X15470000Y5882280D01*
X15210000Y5882280D01*
X15166190Y6102526D01*
X15080255Y6309993D01*
X14955496Y6496708D01*
X14796708Y6655496D01*
X14609993Y6780255D01*
X14402526Y6866190D01*
X14182280Y6910000D01*
X13957720Y6910000D01*
X13737474Y6866190D01*
X13530007Y6780255D01*
X13343292Y6655496D01*
X13184504Y6496708D01*
X13059745Y6309993D01*
X12973810Y6102526D01*
X12930000Y5882280D01*
X12670000Y5882280D01*
X12626190Y6102526D01*
X12540255Y6309993D01*
X12415496Y6496708D01*
X12256708Y6655496D01*
X12069993Y6780255D01*
X11862526Y6866190D01*
X11642280Y6910000D01*
X11417720Y6910000D01*
X11197474Y6866190D01*
X10990007Y6780255D01*
X10803292Y6655496D01*
X10644504Y6496708D01*
X10519745Y6309993D01*
X10433810Y6102526D01*
X10390000Y5882280D01*
X10130000Y5882280D01*
X10086190Y6102526D01*
X10000255Y6309993D01*
X9875496Y6496708D01*
X9716708Y6655496D01*
X9529993Y6780255D01*
X9322526Y6866190D01*
X9102280Y6910000D01*
X8877720Y6910000D01*
X8657474Y6866190D01*
X8450007Y6780255D01*
X8263292Y6655496D01*
X8104504Y6496708D01*
X7979745Y6309993D01*
X7893810Y6102526D01*
X7850000Y5882280D01*
X7590000Y5882280D01*
X7546190Y6102526D01*
X7460255Y6309993D01*
X7335496Y6496708D01*
X7176708Y6655496D01*
X6989993Y6780255D01*
X6782526Y6866190D01*
X6562280Y6910000D01*
X6337720Y6910000D01*
X6117474Y6866190D01*
X5910007Y6780255D01*
X5723292Y6655496D01*
X5564504Y6496708D01*
X5439745Y6309993D01*
X5353810Y6102526D01*
X5339053Y6028337D01*
X5330692Y6030000D01*
X5029308Y6030000D01*
X5020947Y6028337D01*
X5006190Y6102526D01*
X4920255Y6309993D01*
X4795496Y6496708D01*
X4636708Y6655496D01*
X4449993Y6780255D01*
X4242526Y6866190D01*
X4022280Y6910000D01*
X3797720Y6910000D01*
X3577474Y6866190D01*
X3370007Y6780255D01*
X3183292Y6655496D01*
X3024504Y6496708D01*
X2899745Y6309993D01*
X2813810Y6102526D01*
X2799053Y6028337D01*
X2790692Y6030000D01*
X2489308Y6030000D01*
X2480947Y6028337D01*
X2466190Y6102526D01*
X2380255Y6309993D01*
X2255496Y6496708D01*
X2096708Y6655496D01*
X1909993Y6780255D01*
X1702526Y6866190D01*
X1482280Y6910000D01*
X1257720Y6910000D01*
X1037474Y6866190D01*
X830007Y6780255D01*
X655000Y6663319D01*
X655000Y19500000D01*
X50873000Y19500000D01*
X50873000Y16500000D01*
X50875440Y16475224D01*
X50882667Y16451399D01*
X50894403Y16429443D01*
X50910197Y16410197D01*
X52910197Y14410197D01*
X52929443Y14394403D01*
X52951399Y14382667D01*
X52975224Y14375440D01*
X53000000Y14373000D01*
X56000000Y14373000D01*
X56024776Y14375440D01*
X56048601Y14382667D01*
X56070557Y14394403D01*
X56089803Y14410197D01*
X58089803Y16410197D01*
X58105597Y16429443D01*
X58117333Y16451399D01*
X58124560Y16475224D01*
X58127000Y16500000D01*
X58127000Y16851446D01*
X63770000Y16851446D01*
X63770000Y16648554D01*
X63809582Y16449560D01*
X63887226Y16262112D01*
X63999947Y16093413D01*
X64143413Y15949947D01*
X64312112Y15837226D01*
X64499560Y15759582D01*
X64698554Y15720000D01*
X64901446Y15720000D01*
X65100440Y15759582D01*
X65246301Y15820000D01*
X67664783Y15820000D01*
X70494691Y12990090D01*
X70600820Y12902992D01*
X70762383Y12816636D01*
X70937688Y12763457D01*
X71120000Y12745501D01*
X71165680Y12750000D01*
X71421980Y12750000D01*
X71439168Y12735894D01*
X71635476Y12630965D01*
X71848481Y12566351D01*
X72014493Y12550000D01*
X73225507Y12550000D01*
X73391519Y12566351D01*
X73604524Y12630965D01*
X73800832Y12735894D01*
X73972896Y12877104D01*
X74114106Y13049168D01*
X74219035Y13245476D01*
X74283649Y13458481D01*
X74305467Y13680000D01*
X74283649Y13901519D01*
X74219035Y14114524D01*
X74114106Y14310832D01*
X73972896Y14482896D01*
X73912610Y14532372D01*
X73996310Y14657638D01*
X74068300Y14831437D01*
X74105000Y15015941D01*
X74105000Y15204059D01*
X74068300Y15388563D01*
X73996310Y15562362D01*
X73891797Y15718777D01*
X73758777Y15851797D01*
X73602362Y15956310D01*
X73428563Y16028300D01*
X73244059Y16065000D01*
X73055941Y16065000D01*
X72871437Y16028300D01*
X72697638Y15956310D01*
X72541223Y15851797D01*
X72408203Y15718777D01*
X72303690Y15562362D01*
X72231700Y15388563D01*
X72195000Y15204059D01*
X72195000Y15015941D01*
X72231700Y14831437D01*
X72240580Y14810000D01*
X72014493Y14810000D01*
X71848481Y14793649D01*
X71635476Y14729035D01*
X71473019Y14642200D01*
X68739921Y17375296D01*
X68710791Y17410791D01*
X68569180Y17527008D01*
X68407617Y17613364D01*
X68232312Y17666543D01*
X68095680Y17680000D01*
X68095679Y17680000D01*
X68050000Y17684499D01*
X68004321Y17680000D01*
X65246301Y17680000D01*
X65100440Y17740418D01*
X64901446Y17780000D01*
X64698554Y17780000D01*
X64499560Y17740418D01*
X64312112Y17662774D01*
X64143413Y17550053D01*
X63999947Y17406587D01*
X63887226Y17237888D01*
X63809582Y17050440D01*
X63770000Y16851446D01*
X58127000Y16851446D01*
X58127000Y19500000D01*
X58124560Y19524776D01*
X58117333Y19548601D01*
X58115813Y19551446D01*
X63770000Y19551446D01*
X63770000Y19348554D01*
X63809582Y19149560D01*
X63887226Y18962112D01*
X63999947Y18793413D01*
X64143413Y18649947D01*
X64312112Y18537226D01*
X64499560Y18459582D01*
X64698554Y18420000D01*
X64901446Y18420000D01*
X65100440Y18459582D01*
X65246301Y18520000D01*
X68104321Y18520000D01*
X68150000Y18515501D01*
X68195679Y18520000D01*
X68195680Y18520000D01*
X68332312Y18533457D01*
X68507617Y18586636D01*
X68669180Y18672992D01*
X68810791Y18789209D01*
X68839921Y18824704D01*
X71405218Y21390000D01*
X71421980Y21390000D01*
X71439168Y21375894D01*
X71635476Y21270965D01*
X71848481Y21206351D01*
X72014493Y21190000D01*
X72240580Y21190000D01*
X72231700Y21168563D01*
X72195000Y20984059D01*
X72195000Y20795941D01*
X72231700Y20611437D01*
X72303690Y20437638D01*
X72408203Y20281223D01*
X72541223Y20148203D01*
X72697638Y20043690D01*
X72871437Y19971700D01*
X73055941Y19935000D01*
X73244059Y19935000D01*
X73428563Y19971700D01*
X73602362Y20043690D01*
X73758777Y20148203D01*
X73891797Y20281223D01*
X73996310Y20437638D01*
X74068300Y20611437D01*
X74105000Y20795941D01*
X74105000Y20984059D01*
X74068300Y21168563D01*
X73996310Y21342362D01*
X73912610Y21467628D01*
X73972896Y21517104D01*
X74114106Y21689168D01*
X74219035Y21885476D01*
X74283649Y22098481D01*
X74305467Y22320000D01*
X74283649Y22541519D01*
X74219035Y22754524D01*
X74114106Y22950832D01*
X73972896Y23122896D01*
X73800832Y23264106D01*
X73604524Y23369035D01*
X73391519Y23433649D01*
X73225507Y23450000D01*
X72014493Y23450000D01*
X71848481Y23433649D01*
X71635476Y23369035D01*
X71439168Y23264106D01*
X71421980Y23250000D01*
X71065679Y23250000D01*
X71020000Y23254499D01*
X70974320Y23250000D01*
X70837688Y23236543D01*
X70662383Y23183364D01*
X70500820Y23097008D01*
X70359209Y22980791D01*
X70330084Y22945302D01*
X67764783Y20380000D01*
X65246301Y20380000D01*
X65100440Y20440418D01*
X64901446Y20480000D01*
X64698554Y20480000D01*
X64499560Y20440418D01*
X64312112Y20362774D01*
X64143413Y20250053D01*
X63999947Y20106587D01*
X63887226Y19937888D01*
X63809582Y19750440D01*
X63770000Y19551446D01*
X58115813Y19551446D01*
X58105597Y19570557D01*
X58089803Y19589803D01*
X56089803Y21589803D01*
X56070557Y21605597D01*
X56048601Y21617333D01*
X56024776Y21624560D01*
X56000000Y21627000D01*
X53000000Y21627000D01*
X52975224Y21624560D01*
X52951399Y21617333D01*
X52929443Y21605597D01*
X52910197Y21589803D01*
X50910197Y19589803D01*
X50894403Y19570557D01*
X50882667Y19548601D01*
X50875440Y19524776D01*
X50873000Y19500000D01*
X655000Y19500000D01*
X655000Y27345000D01*
X77345001Y27345000D01*
X77345001Y23426526D01*
G36*
X830007Y4759745D02*
G01*
X1037474Y4673810D01*
X1111663Y4659053D01*
X1110000Y4650692D01*
X1110000Y4349308D01*
X1111663Y4340947D01*
X1037474Y4326190D01*
X830007Y4240255D01*
X655000Y4123319D01*
X655000Y4876681D01*
X830007Y4759745D01*
G37*
X830007Y4759745D02*
X1037474Y4673810D01*
X1111663Y4659053D01*
X1110000Y4650692D01*
X1110000Y4349308D01*
X1111663Y4340947D01*
X1037474Y4326190D01*
X830007Y4240255D01*
X655000Y4123319D01*
X655000Y4876681D01*
X830007Y4759745D01*
G36*
X50345000Y4123319D02*
G01*
X50169993Y4240255D01*
X49962526Y4326190D01*
X49888337Y4340947D01*
X49890000Y4349308D01*
X49890000Y4650692D01*
X49888337Y4659053D01*
X49962526Y4673810D01*
X50169993Y4759745D01*
X50345001Y4876681D01*
X50345000Y4123319D01*
G37*
X50345000Y4123319D02*
X50169993Y4240255D01*
X49962526Y4326190D01*
X49888337Y4340947D01*
X49890000Y4349308D01*
X49890000Y4650692D01*
X49888337Y4659053D01*
X49962526Y4673810D01*
X50169993Y4759745D01*
X50345001Y4876681D01*
X50345000Y4123319D01*
M02*
