G04 #@! TF.GenerationSoftware,KiCad,Pcbnew,(5.1.5)-3*
G04 #@! TF.CreationDate,2021-11-13T16:12:44+01:00*
G04 #@! TF.ProjectId,rp4b-power-adapter,72703462-2d70-46f7-9765-722d61646170,rev?*
G04 #@! TF.SameCoordinates,PX5f5e100PY6052340*
G04 #@! TF.FileFunction,Legend,Bot*
G04 #@! TF.FilePolarity,Positive*
%FSLAX46Y46*%
G04 Gerber Fmt 4.6, Leading zero omitted, Abs format (unit mm)*
G04 Created by KiCad (PCBNEW (5.1.5)-3) date 2021-11-13 16:12:44*
%MOMM*%
%LPD*%
G04 APERTURE LIST*
%ADD10C,1.902000*%
%ADD11C,1.122000*%
%ADD12C,2.802000*%
%ADD13O,2.202000X1.102000*%
%ADD14C,0.752000*%
%ADD15O,1.702000X1.102000*%
G04 APERTURE END LIST*
%LPC*%
D10*
X45820000Y4500000D03*
X5180000Y4500000D03*
D11*
X49630000Y5770000D03*
X47090000Y5770000D03*
X44550000Y5770000D03*
X42010000Y5770000D03*
X39470000Y5770000D03*
X36930000Y5770000D03*
X34390000Y5770000D03*
X31850000Y5770000D03*
X29310000Y5770000D03*
X26770000Y5770000D03*
X24230000Y5770000D03*
X21690000Y5770000D03*
X19150000Y5770000D03*
X16610000Y5770000D03*
X14070000Y5770000D03*
X11530000Y5770000D03*
X8990000Y5770000D03*
X6450000Y5770000D03*
X3910000Y5770000D03*
X1370000Y5770000D03*
X49630000Y3230000D03*
X47090000Y3230000D03*
X44550000Y3230000D03*
X42010000Y3230000D03*
X39470000Y3230000D03*
X36930000Y3230000D03*
X34390000Y3230000D03*
X31850000Y3230000D03*
X29310000Y3230000D03*
X26770000Y3230000D03*
X24230000Y3230000D03*
X21690000Y3230000D03*
X19150000Y3230000D03*
X16610000Y3230000D03*
X14070000Y3230000D03*
X11530000Y3230000D03*
X8990000Y3230000D03*
X6450000Y3230000D03*
X3910000Y3230000D03*
X1370000Y3230000D03*
D10*
X48360000Y4500000D03*
X2640000Y4500000D03*
D12*
X54500000Y18000000D03*
D13*
X72620000Y22320000D03*
X72620000Y13680000D03*
D14*
X73150000Y15110000D03*
D15*
X76800000Y13680000D03*
D14*
X73150000Y20890000D03*
D15*
X76800000Y22320000D03*
M02*
