%FSLAX45Y45*%
G04 Gerber Fmt 4.5, Leading zero omitted, Abs format (unit mm)*
G04 Created by KiCad (PCBNEW (5.1.5)-3) date 2021-11-13 16:06:57*
%MOMM*%
%LPD*%
G04 APERTURE LIST*
%TA.AperFunction,Profile*%
%ADD10C,0.050000*%
%TD*%
%ADD11C,0.200000*%
%ADD12C,0.300000*%
G04 APERTURE END LIST*
D10*
X5100000Y0D02*
X5100000Y100000D01*
X0Y0D02*
X5100000Y0D01*
X0Y100000D02*
X0Y0D01*
X0Y2800000D02*
X0Y100000D01*
X7800000Y2800000D02*
X0Y2800000D01*
X7800000Y800000D02*
X7800000Y2800000D01*
X5100000Y800000D02*
X7800000Y800000D01*
X5100000Y100000D02*
X5100000Y800000D01*
D11*
X6460000Y1965000D02*
X6500000Y1925000D01*
X6500000Y1965000D02*
X6460000Y1925000D01*
X6460000Y1695000D02*
X6500000Y1655000D01*
X6500000Y1695000D02*
X6460000Y1655000D01*
X7292000Y2232000D02*
G75*
G03X7292000Y2232000I-30000J0D01*
G01*
X7207000Y2212000D02*
X7317000Y2212000D01*
X7207000Y2252000D02*
X7317000Y2252000D01*
X7317000Y2212000D02*
G75*
G03X7317000Y2252000I0J20000D01*
G01*
X7207000Y2252000D02*
G75*
G03X7207000Y2212000I0J-20000D01*
G01*
X7292000Y1368000D02*
G75*
G03X7292000Y1368000I-30000J0D01*
G01*
X7207000Y1348000D02*
X7317000Y1348000D01*
X7207000Y1388000D02*
X7317000Y1388000D01*
X7317000Y1348000D02*
G75*
G03X7317000Y1388000I0J20000D01*
G01*
X7207000Y1388000D02*
G75*
G03X7207000Y1348000I0J-20000D01*
G01*
X7710000Y2232000D02*
G75*
G03X7710000Y2232000I-30000J0D01*
G01*
X7650000Y2212000D02*
X7710000Y2212000D01*
X7650000Y2252000D02*
X7710000Y2252000D01*
X7710000Y2212000D02*
G75*
G03X7710000Y2252000I0J20000D01*
G01*
X7650000Y2252000D02*
G75*
G03X7650000Y2212000I0J-20000D01*
G01*
X7710000Y1368000D02*
G75*
G03X7710000Y1368000I-30000J0D01*
G01*
X7650000Y1348000D02*
X7710000Y1348000D01*
X7650000Y1388000D02*
X7710000Y1388000D01*
X7710000Y1348000D02*
G75*
G03X7710000Y1388000I0J20000D01*
G01*
X7650000Y1388000D02*
G75*
G03X7650000Y1348000I0J-20000D01*
G01*
D12*
X283928Y-468214D02*
X283928Y-168214D01*
X355357Y-168214D01*
X398214Y-182500D01*
X426786Y-211071D01*
X441071Y-239643D01*
X455357Y-296786D01*
X455357Y-339643D01*
X441071Y-396786D01*
X426786Y-425357D01*
X398214Y-453929D01*
X355357Y-468214D01*
X283928Y-468214D01*
X583928Y-468214D02*
X583928Y-268214D01*
X583928Y-325357D02*
X598214Y-296786D01*
X612500Y-282500D01*
X641071Y-268214D01*
X669643Y-268214D01*
X769643Y-468214D02*
X769643Y-268214D01*
X769643Y-168214D02*
X755357Y-182500D01*
X769643Y-196786D01*
X783928Y-182500D01*
X769643Y-168214D01*
X769643Y-196786D01*
X955357Y-468214D02*
X926786Y-453929D01*
X912500Y-425357D01*
X912500Y-168214D01*
X1112500Y-468214D02*
X1083928Y-453929D01*
X1069643Y-425357D01*
X1069643Y-168214D01*
X1455357Y-468214D02*
X1455357Y-168214D01*
X1555357Y-382500D01*
X1655357Y-168214D01*
X1655357Y-468214D01*
X1926786Y-468214D02*
X1926786Y-311072D01*
X1912500Y-282500D01*
X1883928Y-268214D01*
X1826786Y-268214D01*
X1798214Y-282500D01*
X1926786Y-453929D02*
X1898214Y-468214D01*
X1826786Y-468214D01*
X1798214Y-453929D01*
X1783928Y-425357D01*
X1783928Y-396786D01*
X1798214Y-368214D01*
X1826786Y-353929D01*
X1898214Y-353929D01*
X1926786Y-339643D01*
X2069643Y-268214D02*
X2069643Y-568214D01*
X2069643Y-282500D02*
X2098214Y-268214D01*
X2155357Y-268214D01*
X2183928Y-282500D01*
X2198214Y-296786D01*
X2212500Y-325357D01*
X2212500Y-411071D01*
X2198214Y-439643D01*
X2183928Y-453929D01*
X2155357Y-468214D01*
X2098214Y-468214D01*
X2069643Y-453929D01*
X2341071Y-439643D02*
X2355357Y-453929D01*
X2341071Y-468214D01*
X2326786Y-453929D01*
X2341071Y-439643D01*
X2341071Y-468214D01*
X2341071Y-282500D02*
X2355357Y-296786D01*
X2341071Y-311072D01*
X2326786Y-296786D01*
X2341071Y-282500D01*
X2341071Y-311072D01*
X-42500Y-942500D02*
X-2500Y-982500D01*
X-2500Y-942500D02*
X-42500Y-982500D01*
X341071Y-798214D02*
X369643Y-798214D01*
X398214Y-812500D01*
X412500Y-826786D01*
X426786Y-855357D01*
X441071Y-912500D01*
X441071Y-983929D01*
X426786Y-1041071D01*
X412500Y-1069643D01*
X398214Y-1083929D01*
X369643Y-1098214D01*
X341071Y-1098214D01*
X312500Y-1083929D01*
X298214Y-1069643D01*
X283928Y-1041071D01*
X269643Y-983929D01*
X269643Y-912500D01*
X283928Y-855357D01*
X298214Y-826786D01*
X312500Y-812500D01*
X341071Y-798214D01*
X569643Y-1069643D02*
X583928Y-1083929D01*
X569643Y-1098214D01*
X555357Y-1083929D01*
X569643Y-1069643D01*
X569643Y-1098214D01*
X841071Y-898214D02*
X841071Y-1098214D01*
X769643Y-783929D02*
X698214Y-998214D01*
X883928Y-998214D01*
X1055357Y-798214D02*
X1083928Y-798214D01*
X1112500Y-812500D01*
X1126786Y-826786D01*
X1141071Y-855357D01*
X1155357Y-912500D01*
X1155357Y-983929D01*
X1141071Y-1041071D01*
X1126786Y-1069643D01*
X1112500Y-1083929D01*
X1083928Y-1098214D01*
X1055357Y-1098214D01*
X1026786Y-1083929D01*
X1012500Y-1069643D01*
X998214Y-1041071D01*
X983928Y-983929D01*
X983928Y-912500D01*
X998214Y-855357D01*
X1012500Y-826786D01*
X1026786Y-812500D01*
X1055357Y-798214D01*
X1283928Y-1098214D02*
X1283928Y-898214D01*
X1283928Y-926786D02*
X1298214Y-912500D01*
X1326786Y-898214D01*
X1369643Y-898214D01*
X1398214Y-912500D01*
X1412500Y-941071D01*
X1412500Y-1098214D01*
X1412500Y-941071D02*
X1426786Y-912500D01*
X1455357Y-898214D01*
X1498214Y-898214D01*
X1526786Y-912500D01*
X1541071Y-941071D01*
X1541071Y-1098214D01*
X1683928Y-1098214D02*
X1683928Y-898214D01*
X1683928Y-926786D02*
X1698214Y-912500D01*
X1726786Y-898214D01*
X1769643Y-898214D01*
X1798214Y-912500D01*
X1812500Y-941071D01*
X1812500Y-1098214D01*
X1812500Y-941071D02*
X1826786Y-912500D01*
X1855357Y-898214D01*
X1898214Y-898214D01*
X1926786Y-912500D01*
X1941071Y-941071D01*
X1941071Y-1098214D01*
X2526786Y-783929D02*
X2269643Y-1169643D01*
X2912500Y-798214D02*
X2941071Y-798214D01*
X2969643Y-812500D01*
X2983928Y-826786D01*
X2998214Y-855357D01*
X3012500Y-912500D01*
X3012500Y-983929D01*
X2998214Y-1041071D01*
X2983928Y-1069643D01*
X2969643Y-1083929D01*
X2941071Y-1098214D01*
X2912500Y-1098214D01*
X2883928Y-1083929D01*
X2869643Y-1069643D01*
X2855357Y-1041071D01*
X2841071Y-983929D01*
X2841071Y-912500D01*
X2855357Y-855357D01*
X2869643Y-826786D01*
X2883928Y-812500D01*
X2912500Y-798214D01*
X3141071Y-1069643D02*
X3155357Y-1083929D01*
X3141071Y-1098214D01*
X3126786Y-1083929D01*
X3141071Y-1069643D01*
X3141071Y-1098214D01*
X3341071Y-798214D02*
X3369643Y-798214D01*
X3398214Y-812500D01*
X3412500Y-826786D01*
X3426786Y-855357D01*
X3441071Y-912500D01*
X3441071Y-983929D01*
X3426786Y-1041071D01*
X3412500Y-1069643D01*
X3398214Y-1083929D01*
X3369643Y-1098214D01*
X3341071Y-1098214D01*
X3312500Y-1083929D01*
X3298214Y-1069643D01*
X3283928Y-1041071D01*
X3269643Y-983929D01*
X3269643Y-912500D01*
X3283928Y-855357D01*
X3298214Y-826786D01*
X3312500Y-812500D01*
X3341071Y-798214D01*
X3726786Y-1098214D02*
X3555357Y-1098214D01*
X3641071Y-1098214D02*
X3641071Y-798214D01*
X3612500Y-841071D01*
X3583928Y-869643D01*
X3555357Y-883929D01*
X3983928Y-798214D02*
X3926786Y-798214D01*
X3898214Y-812500D01*
X3883928Y-826786D01*
X3855357Y-869643D01*
X3841071Y-926786D01*
X3841071Y-1041071D01*
X3855357Y-1069643D01*
X3869643Y-1083929D01*
X3898214Y-1098214D01*
X3955357Y-1098214D01*
X3983928Y-1083929D01*
X3998214Y-1069643D01*
X4012500Y-1041071D01*
X4012500Y-969643D01*
X3998214Y-941071D01*
X3983928Y-926786D01*
X3955357Y-912500D01*
X3898214Y-912500D01*
X3869643Y-926786D01*
X3855357Y-941071D01*
X3841071Y-969643D01*
X4126786Y-798214D02*
X4126786Y-855357D01*
X4241071Y-798214D02*
X4241071Y-855357D01*
X4683928Y-1212500D02*
X4669643Y-1198214D01*
X4641071Y-1155357D01*
X4626786Y-1126786D01*
X4612500Y-1083929D01*
X4598214Y-1012500D01*
X4598214Y-955357D01*
X4612500Y-883929D01*
X4626786Y-841071D01*
X4641071Y-812500D01*
X4669643Y-769643D01*
X4683928Y-755357D01*
X4783928Y-826786D02*
X4798214Y-812500D01*
X4826786Y-798214D01*
X4898214Y-798214D01*
X4926786Y-812500D01*
X4941071Y-826786D01*
X4955357Y-855357D01*
X4955357Y-883929D01*
X4941071Y-926786D01*
X4769643Y-1098214D01*
X4955357Y-1098214D01*
X5312500Y-1098214D02*
X5312500Y-798214D01*
X5441071Y-1098214D02*
X5441071Y-941071D01*
X5426786Y-912500D01*
X5398214Y-898214D01*
X5355357Y-898214D01*
X5326786Y-912500D01*
X5312500Y-926786D01*
X5626786Y-1098214D02*
X5598214Y-1083929D01*
X5583928Y-1069643D01*
X5569643Y-1041071D01*
X5569643Y-955357D01*
X5583928Y-926786D01*
X5598214Y-912500D01*
X5626786Y-898214D01*
X5669643Y-898214D01*
X5698214Y-912500D01*
X5712500Y-926786D01*
X5726786Y-955357D01*
X5726786Y-1041071D01*
X5712500Y-1069643D01*
X5698214Y-1083929D01*
X5669643Y-1098214D01*
X5626786Y-1098214D01*
X5898214Y-1098214D02*
X5869643Y-1083929D01*
X5855357Y-1055357D01*
X5855357Y-798214D01*
X6126786Y-1083929D02*
X6098214Y-1098214D01*
X6041071Y-1098214D01*
X6012500Y-1083929D01*
X5998214Y-1055357D01*
X5998214Y-941071D01*
X6012500Y-912500D01*
X6041071Y-898214D01*
X6098214Y-898214D01*
X6126786Y-912500D01*
X6141071Y-941071D01*
X6141071Y-969643D01*
X5998214Y-998214D01*
X6255357Y-1083929D02*
X6283928Y-1098214D01*
X6341071Y-1098214D01*
X6369643Y-1083929D01*
X6383928Y-1055357D01*
X6383928Y-1041071D01*
X6369643Y-1012500D01*
X6341071Y-998214D01*
X6298214Y-998214D01*
X6269643Y-983929D01*
X6255357Y-955357D01*
X6255357Y-941071D01*
X6269643Y-912500D01*
X6298214Y-898214D01*
X6341071Y-898214D01*
X6369643Y-912500D01*
X6483928Y-1212500D02*
X6498214Y-1198214D01*
X6526786Y-1155357D01*
X6541071Y-1126786D01*
X6555357Y-1083929D01*
X6569643Y-1012500D01*
X6569643Y-955357D01*
X6555357Y-883929D01*
X6541071Y-841071D01*
X6526786Y-812500D01*
X6498214Y-769643D01*
X6483928Y-755357D01*
X-2500Y-1358500D02*
G75*
G03X-2500Y-1358500I-30000J0D01*
G01*
X341071Y-1194214D02*
X369643Y-1194214D01*
X398214Y-1208500D01*
X412500Y-1222786D01*
X426786Y-1251357D01*
X441071Y-1308500D01*
X441071Y-1379929D01*
X426786Y-1437071D01*
X412500Y-1465643D01*
X398214Y-1479929D01*
X369643Y-1494214D01*
X341071Y-1494214D01*
X312500Y-1479929D01*
X298214Y-1465643D01*
X283928Y-1437071D01*
X269643Y-1379929D01*
X269643Y-1308500D01*
X283928Y-1251357D01*
X298214Y-1222786D01*
X312500Y-1208500D01*
X341071Y-1194214D01*
X569643Y-1465643D02*
X583928Y-1479929D01*
X569643Y-1494214D01*
X555357Y-1479929D01*
X569643Y-1465643D01*
X569643Y-1494214D01*
X841071Y-1194214D02*
X783928Y-1194214D01*
X755357Y-1208500D01*
X741071Y-1222786D01*
X712500Y-1265643D01*
X698214Y-1322786D01*
X698214Y-1437071D01*
X712500Y-1465643D01*
X726786Y-1479929D01*
X755357Y-1494214D01*
X812500Y-1494214D01*
X841071Y-1479929D01*
X855357Y-1465643D01*
X869643Y-1437071D01*
X869643Y-1365643D01*
X855357Y-1337072D01*
X841071Y-1322786D01*
X812500Y-1308500D01*
X755357Y-1308500D01*
X726786Y-1322786D01*
X712500Y-1337072D01*
X698214Y-1365643D01*
X1055357Y-1194214D02*
X1083928Y-1194214D01*
X1112500Y-1208500D01*
X1126786Y-1222786D01*
X1141071Y-1251357D01*
X1155357Y-1308500D01*
X1155357Y-1379929D01*
X1141071Y-1437071D01*
X1126786Y-1465643D01*
X1112500Y-1479929D01*
X1083928Y-1494214D01*
X1055357Y-1494214D01*
X1026786Y-1479929D01*
X1012500Y-1465643D01*
X998214Y-1437071D01*
X983928Y-1379929D01*
X983928Y-1308500D01*
X998214Y-1251357D01*
X1012500Y-1222786D01*
X1026786Y-1208500D01*
X1055357Y-1194214D01*
X1283928Y-1494214D02*
X1283928Y-1294214D01*
X1283928Y-1322786D02*
X1298214Y-1308500D01*
X1326786Y-1294214D01*
X1369643Y-1294214D01*
X1398214Y-1308500D01*
X1412500Y-1337072D01*
X1412500Y-1494214D01*
X1412500Y-1337072D02*
X1426786Y-1308500D01*
X1455357Y-1294214D01*
X1498214Y-1294214D01*
X1526786Y-1308500D01*
X1541071Y-1337072D01*
X1541071Y-1494214D01*
X1683928Y-1494214D02*
X1683928Y-1294214D01*
X1683928Y-1322786D02*
X1698214Y-1308500D01*
X1726786Y-1294214D01*
X1769643Y-1294214D01*
X1798214Y-1308500D01*
X1812500Y-1337072D01*
X1812500Y-1494214D01*
X1812500Y-1337072D02*
X1826786Y-1308500D01*
X1855357Y-1294214D01*
X1898214Y-1294214D01*
X1926786Y-1308500D01*
X1941071Y-1337072D01*
X1941071Y-1494214D01*
X2526786Y-1179929D02*
X2269643Y-1565643D01*
X2912500Y-1194214D02*
X2941071Y-1194214D01*
X2969643Y-1208500D01*
X2983928Y-1222786D01*
X2998214Y-1251357D01*
X3012500Y-1308500D01*
X3012500Y-1379929D01*
X2998214Y-1437071D01*
X2983928Y-1465643D01*
X2969643Y-1479929D01*
X2941071Y-1494214D01*
X2912500Y-1494214D01*
X2883928Y-1479929D01*
X2869643Y-1465643D01*
X2855357Y-1437071D01*
X2841071Y-1379929D01*
X2841071Y-1308500D01*
X2855357Y-1251357D01*
X2869643Y-1222786D01*
X2883928Y-1208500D01*
X2912500Y-1194214D01*
X3141071Y-1465643D02*
X3155357Y-1479929D01*
X3141071Y-1494214D01*
X3126786Y-1479929D01*
X3141071Y-1465643D01*
X3141071Y-1494214D01*
X3341071Y-1194214D02*
X3369643Y-1194214D01*
X3398214Y-1208500D01*
X3412500Y-1222786D01*
X3426786Y-1251357D01*
X3441071Y-1308500D01*
X3441071Y-1379929D01*
X3426786Y-1437071D01*
X3412500Y-1465643D01*
X3398214Y-1479929D01*
X3369643Y-1494214D01*
X3341071Y-1494214D01*
X3312500Y-1479929D01*
X3298214Y-1465643D01*
X3283928Y-1437071D01*
X3269643Y-1379929D01*
X3269643Y-1308500D01*
X3283928Y-1251357D01*
X3298214Y-1222786D01*
X3312500Y-1208500D01*
X3341071Y-1194214D01*
X3555357Y-1222786D02*
X3569643Y-1208500D01*
X3598214Y-1194214D01*
X3669643Y-1194214D01*
X3698214Y-1208500D01*
X3712500Y-1222786D01*
X3726786Y-1251357D01*
X3726786Y-1279929D01*
X3712500Y-1322786D01*
X3541071Y-1494214D01*
X3726786Y-1494214D01*
X3983928Y-1294214D02*
X3983928Y-1494214D01*
X3912500Y-1179929D02*
X3841071Y-1394214D01*
X4026786Y-1394214D01*
X4126786Y-1194214D02*
X4126786Y-1251357D01*
X4241071Y-1194214D02*
X4241071Y-1251357D01*
X4683928Y-1608500D02*
X4669643Y-1594214D01*
X4641071Y-1551357D01*
X4626786Y-1522786D01*
X4612500Y-1479929D01*
X4598214Y-1408500D01*
X4598214Y-1351357D01*
X4612500Y-1279929D01*
X4626786Y-1237072D01*
X4641071Y-1208500D01*
X4669643Y-1165643D01*
X4683928Y-1151357D01*
X4855357Y-1194214D02*
X4883928Y-1194214D01*
X4912500Y-1208500D01*
X4926786Y-1222786D01*
X4941071Y-1251357D01*
X4955357Y-1308500D01*
X4955357Y-1379929D01*
X4941071Y-1437071D01*
X4926786Y-1465643D01*
X4912500Y-1479929D01*
X4883928Y-1494214D01*
X4855357Y-1494214D01*
X4826786Y-1479929D01*
X4812500Y-1465643D01*
X4798214Y-1437071D01*
X4783928Y-1379929D01*
X4783928Y-1308500D01*
X4798214Y-1251357D01*
X4812500Y-1222786D01*
X4826786Y-1208500D01*
X4855357Y-1194214D01*
X5312500Y-1494214D02*
X5312500Y-1194214D01*
X5441071Y-1494214D02*
X5441071Y-1337072D01*
X5426786Y-1308500D01*
X5398214Y-1294214D01*
X5355357Y-1294214D01*
X5326786Y-1308500D01*
X5312500Y-1322786D01*
X5626786Y-1494214D02*
X5598214Y-1479929D01*
X5583928Y-1465643D01*
X5569643Y-1437071D01*
X5569643Y-1351357D01*
X5583928Y-1322786D01*
X5598214Y-1308500D01*
X5626786Y-1294214D01*
X5669643Y-1294214D01*
X5698214Y-1308500D01*
X5712500Y-1322786D01*
X5726786Y-1351357D01*
X5726786Y-1437071D01*
X5712500Y-1465643D01*
X5698214Y-1479929D01*
X5669643Y-1494214D01*
X5626786Y-1494214D01*
X5898214Y-1494214D02*
X5869643Y-1479929D01*
X5855357Y-1451357D01*
X5855357Y-1194214D01*
X6126786Y-1479929D02*
X6098214Y-1494214D01*
X6041071Y-1494214D01*
X6012500Y-1479929D01*
X5998214Y-1451357D01*
X5998214Y-1337072D01*
X6012500Y-1308500D01*
X6041071Y-1294214D01*
X6098214Y-1294214D01*
X6126786Y-1308500D01*
X6141071Y-1337072D01*
X6141071Y-1365643D01*
X5998214Y-1394214D01*
X6255357Y-1479929D02*
X6283928Y-1494214D01*
X6341071Y-1494214D01*
X6369643Y-1479929D01*
X6383928Y-1451357D01*
X6383928Y-1437071D01*
X6369643Y-1408500D01*
X6341071Y-1394214D01*
X6298214Y-1394214D01*
X6269643Y-1379929D01*
X6255357Y-1351357D01*
X6255357Y-1337072D01*
X6269643Y-1308500D01*
X6298214Y-1294214D01*
X6341071Y-1294214D01*
X6369643Y-1308500D01*
X6741071Y-1379929D02*
X6969643Y-1379929D01*
X6855357Y-1494214D02*
X6855357Y-1265643D01*
X7469643Y-1294214D02*
X7469643Y-1494214D01*
X7398214Y-1179929D02*
X7326786Y-1394214D01*
X7512500Y-1394214D01*
X7841071Y-1479929D02*
X7869643Y-1494214D01*
X7926786Y-1494214D01*
X7955357Y-1479929D01*
X7969643Y-1451357D01*
X7969643Y-1437071D01*
X7955357Y-1408500D01*
X7926786Y-1394214D01*
X7883928Y-1394214D01*
X7855357Y-1379929D01*
X7841071Y-1351357D01*
X7841071Y-1337072D01*
X7855357Y-1308500D01*
X7883928Y-1294214D01*
X7926786Y-1294214D01*
X7955357Y-1308500D01*
X8141071Y-1494214D02*
X8112500Y-1479929D01*
X8098214Y-1451357D01*
X8098214Y-1194214D01*
X8298214Y-1494214D02*
X8269643Y-1479929D01*
X8255357Y-1465643D01*
X8241071Y-1437071D01*
X8241071Y-1351357D01*
X8255357Y-1322786D01*
X8269643Y-1308500D01*
X8298214Y-1294214D01*
X8341071Y-1294214D01*
X8369643Y-1308500D01*
X8383928Y-1322786D01*
X8398214Y-1351357D01*
X8398214Y-1437071D01*
X8383928Y-1465643D01*
X8369643Y-1479929D01*
X8341071Y-1494214D01*
X8298214Y-1494214D01*
X8483928Y-1294214D02*
X8598214Y-1294214D01*
X8526786Y-1194214D02*
X8526786Y-1451357D01*
X8541071Y-1479929D01*
X8569643Y-1494214D01*
X8598214Y-1494214D01*
X8683928Y-1479929D02*
X8712500Y-1494214D01*
X8769643Y-1494214D01*
X8798214Y-1479929D01*
X8812500Y-1451357D01*
X8812500Y-1437071D01*
X8798214Y-1408500D01*
X8769643Y-1394214D01*
X8726786Y-1394214D01*
X8698214Y-1379929D01*
X8683928Y-1351357D01*
X8683928Y-1337072D01*
X8698214Y-1308500D01*
X8726786Y-1294214D01*
X8769643Y-1294214D01*
X8798214Y-1308500D01*
X8912500Y-1608500D02*
X8926786Y-1594214D01*
X8955357Y-1551357D01*
X8969643Y-1522786D01*
X8983928Y-1479929D01*
X8998214Y-1408500D01*
X8998214Y-1351357D01*
X8983928Y-1279929D01*
X8969643Y-1237072D01*
X8955357Y-1208500D01*
X8926786Y-1165643D01*
X8912500Y-1151357D01*
M02*
