G04 #@! TF.GenerationSoftware,KiCad,Pcbnew,(5.1.5)-3*
G04 #@! TF.CreationDate,2021-11-01T10:18:24+01:00*
G04 #@! TF.ProjectId,rp4b-power-adapter,72703462-2d70-46f7-9765-722d61646170,rev?*
G04 #@! TF.SameCoordinates,PX5f5e100PY6052340*
G04 #@! TF.FileFunction,Paste,Top*
G04 #@! TF.FilePolarity,Positive*
%FSLAX46Y46*%
G04 Gerber Fmt 4.6, Leading zero omitted, Abs format (unit mm)*
G04 Created by KiCad (PCBNEW (5.1.5)-3) date 2021-11-01 10:18:24*
%MOMM*%
%LPD*%
G04 APERTURE LIST*
%ADD10R,1.020000X1.780000*%
%ADD11C,0.100000*%
%ADD12R,2.500000X2.300000*%
%ADD13R,1.450000X0.600000*%
%ADD14R,1.450000X0.300000*%
G04 APERTURE END LIST*
D10*
X49630000Y7410000D03*
X47090000Y7410000D03*
X44550000Y7410000D03*
X42010000Y7410000D03*
X39470000Y7410000D03*
X36930000Y7410000D03*
X34390000Y7410000D03*
X31850000Y7410000D03*
X29310000Y7410000D03*
X26770000Y7410000D03*
X24230000Y7410000D03*
X21690000Y7410000D03*
X19150000Y7410000D03*
X16610000Y7410000D03*
X14070000Y7410000D03*
X11530000Y7410000D03*
X8990000Y7410000D03*
X6450000Y7410000D03*
X3910000Y7410000D03*
X1370000Y7410000D03*
X49630000Y1590000D03*
X47090000Y1590000D03*
X44550000Y1590000D03*
X42010000Y1590000D03*
X39470000Y1590000D03*
X36930000Y1590000D03*
X34390000Y1590000D03*
X31850000Y1590000D03*
X29310000Y1590000D03*
X26770000Y1590000D03*
X24230000Y1590000D03*
X21690000Y1590000D03*
X19150000Y1590000D03*
X16610000Y1590000D03*
X14070000Y1590000D03*
X11530000Y1590000D03*
X8990000Y1590000D03*
X6450000Y1590000D03*
X3910000Y1590000D03*
X1370000Y1590000D03*
D11*
G36*
X66444603Y17224037D02*
G01*
X66464018Y17221157D01*
X66483057Y17216388D01*
X66501537Y17209776D01*
X66519279Y17201384D01*
X66536114Y17191294D01*
X66551879Y17179602D01*
X66566421Y17166421D01*
X66579602Y17151879D01*
X66591294Y17136114D01*
X66601384Y17119279D01*
X66609776Y17101537D01*
X66616388Y17083057D01*
X66621157Y17064018D01*
X66624037Y17044603D01*
X66625000Y17025000D01*
X66625000Y16475000D01*
X66624037Y16455397D01*
X66621157Y16435982D01*
X66616388Y16416943D01*
X66609776Y16398463D01*
X66601384Y16380721D01*
X66591294Y16363886D01*
X66579602Y16348121D01*
X66566421Y16333579D01*
X66551879Y16320398D01*
X66536114Y16308706D01*
X66519279Y16298616D01*
X66501537Y16290224D01*
X66483057Y16283612D01*
X66464018Y16278843D01*
X66444603Y16275963D01*
X66425000Y16275000D01*
X66025000Y16275000D01*
X66005397Y16275963D01*
X65985982Y16278843D01*
X65966943Y16283612D01*
X65948463Y16290224D01*
X65930721Y16298616D01*
X65913886Y16308706D01*
X65898121Y16320398D01*
X65883579Y16333579D01*
X65870398Y16348121D01*
X65858706Y16363886D01*
X65848616Y16380721D01*
X65840224Y16398463D01*
X65833612Y16416943D01*
X65828843Y16435982D01*
X65825963Y16455397D01*
X65825000Y16475000D01*
X65825000Y17025000D01*
X65825963Y17044603D01*
X65828843Y17064018D01*
X65833612Y17083057D01*
X65840224Y17101537D01*
X65848616Y17119279D01*
X65858706Y17136114D01*
X65870398Y17151879D01*
X65883579Y17166421D01*
X65898121Y17179602D01*
X65913886Y17191294D01*
X65930721Y17201384D01*
X65948463Y17209776D01*
X65966943Y17216388D01*
X65985982Y17221157D01*
X66005397Y17224037D01*
X66025000Y17225000D01*
X66425000Y17225000D01*
X66444603Y17224037D01*
G37*
G36*
X68094603Y17224037D02*
G01*
X68114018Y17221157D01*
X68133057Y17216388D01*
X68151537Y17209776D01*
X68169279Y17201384D01*
X68186114Y17191294D01*
X68201879Y17179602D01*
X68216421Y17166421D01*
X68229602Y17151879D01*
X68241294Y17136114D01*
X68251384Y17119279D01*
X68259776Y17101537D01*
X68266388Y17083057D01*
X68271157Y17064018D01*
X68274037Y17044603D01*
X68275000Y17025000D01*
X68275000Y16475000D01*
X68274037Y16455397D01*
X68271157Y16435982D01*
X68266388Y16416943D01*
X68259776Y16398463D01*
X68251384Y16380721D01*
X68241294Y16363886D01*
X68229602Y16348121D01*
X68216421Y16333579D01*
X68201879Y16320398D01*
X68186114Y16308706D01*
X68169279Y16298616D01*
X68151537Y16290224D01*
X68133057Y16283612D01*
X68114018Y16278843D01*
X68094603Y16275963D01*
X68075000Y16275000D01*
X67675000Y16275000D01*
X67655397Y16275963D01*
X67635982Y16278843D01*
X67616943Y16283612D01*
X67598463Y16290224D01*
X67580721Y16298616D01*
X67563886Y16308706D01*
X67548121Y16320398D01*
X67533579Y16333579D01*
X67520398Y16348121D01*
X67508706Y16363886D01*
X67498616Y16380721D01*
X67490224Y16398463D01*
X67483612Y16416943D01*
X67478843Y16435982D01*
X67475963Y16455397D01*
X67475000Y16475000D01*
X67475000Y17025000D01*
X67475963Y17044603D01*
X67478843Y17064018D01*
X67483612Y17083057D01*
X67490224Y17101537D01*
X67498616Y17119279D01*
X67508706Y17136114D01*
X67520398Y17151879D01*
X67533579Y17166421D01*
X67548121Y17179602D01*
X67563886Y17191294D01*
X67580721Y17201384D01*
X67598463Y17209776D01*
X67616943Y17216388D01*
X67635982Y17221157D01*
X67655397Y17224037D01*
X67675000Y17225000D01*
X68075000Y17225000D01*
X68094603Y17224037D01*
G37*
G36*
X66444603Y19924037D02*
G01*
X66464018Y19921157D01*
X66483057Y19916388D01*
X66501537Y19909776D01*
X66519279Y19901384D01*
X66536114Y19891294D01*
X66551879Y19879602D01*
X66566421Y19866421D01*
X66579602Y19851879D01*
X66591294Y19836114D01*
X66601384Y19819279D01*
X66609776Y19801537D01*
X66616388Y19783057D01*
X66621157Y19764018D01*
X66624037Y19744603D01*
X66625000Y19725000D01*
X66625000Y19175000D01*
X66624037Y19155397D01*
X66621157Y19135982D01*
X66616388Y19116943D01*
X66609776Y19098463D01*
X66601384Y19080721D01*
X66591294Y19063886D01*
X66579602Y19048121D01*
X66566421Y19033579D01*
X66551879Y19020398D01*
X66536114Y19008706D01*
X66519279Y18998616D01*
X66501537Y18990224D01*
X66483057Y18983612D01*
X66464018Y18978843D01*
X66444603Y18975963D01*
X66425000Y18975000D01*
X66025000Y18975000D01*
X66005397Y18975963D01*
X65985982Y18978843D01*
X65966943Y18983612D01*
X65948463Y18990224D01*
X65930721Y18998616D01*
X65913886Y19008706D01*
X65898121Y19020398D01*
X65883579Y19033579D01*
X65870398Y19048121D01*
X65858706Y19063886D01*
X65848616Y19080721D01*
X65840224Y19098463D01*
X65833612Y19116943D01*
X65828843Y19135982D01*
X65825963Y19155397D01*
X65825000Y19175000D01*
X65825000Y19725000D01*
X65825963Y19744603D01*
X65828843Y19764018D01*
X65833612Y19783057D01*
X65840224Y19801537D01*
X65848616Y19819279D01*
X65858706Y19836114D01*
X65870398Y19851879D01*
X65883579Y19866421D01*
X65898121Y19879602D01*
X65913886Y19891294D01*
X65930721Y19901384D01*
X65948463Y19909776D01*
X65966943Y19916388D01*
X65985982Y19921157D01*
X66005397Y19924037D01*
X66025000Y19925000D01*
X66425000Y19925000D01*
X66444603Y19924037D01*
G37*
G36*
X68094603Y19924037D02*
G01*
X68114018Y19921157D01*
X68133057Y19916388D01*
X68151537Y19909776D01*
X68169279Y19901384D01*
X68186114Y19891294D01*
X68201879Y19879602D01*
X68216421Y19866421D01*
X68229602Y19851879D01*
X68241294Y19836114D01*
X68251384Y19819279D01*
X68259776Y19801537D01*
X68266388Y19783057D01*
X68271157Y19764018D01*
X68274037Y19744603D01*
X68275000Y19725000D01*
X68275000Y19175000D01*
X68274037Y19155397D01*
X68271157Y19135982D01*
X68266388Y19116943D01*
X68259776Y19098463D01*
X68251384Y19080721D01*
X68241294Y19063886D01*
X68229602Y19048121D01*
X68216421Y19033579D01*
X68201879Y19020398D01*
X68186114Y19008706D01*
X68169279Y18998616D01*
X68151537Y18990224D01*
X68133057Y18983612D01*
X68114018Y18978843D01*
X68094603Y18975963D01*
X68075000Y18975000D01*
X67675000Y18975000D01*
X67655397Y18975963D01*
X67635982Y18978843D01*
X67616943Y18983612D01*
X67598463Y18990224D01*
X67580721Y18998616D01*
X67563886Y19008706D01*
X67548121Y19020398D01*
X67533579Y19033579D01*
X67520398Y19048121D01*
X67508706Y19063886D01*
X67498616Y19080721D01*
X67490224Y19098463D01*
X67483612Y19116943D01*
X67478843Y19135982D01*
X67475963Y19155397D01*
X67475000Y19175000D01*
X67475000Y19725000D01*
X67475963Y19744603D01*
X67478843Y19764018D01*
X67483612Y19783057D01*
X67490224Y19801537D01*
X67498616Y19819279D01*
X67508706Y19836114D01*
X67520398Y19851879D01*
X67533579Y19866421D01*
X67548121Y19879602D01*
X67563886Y19891294D01*
X67580721Y19901384D01*
X67598463Y19909776D01*
X67616943Y19916388D01*
X67635982Y19921157D01*
X67655397Y19924037D01*
X67675000Y19925000D01*
X68075000Y19925000D01*
X68094603Y19924037D01*
G37*
D12*
X7650000Y12900000D03*
X3350000Y12900000D03*
D13*
X71705000Y21250000D03*
X71705000Y20450000D03*
X71705000Y15550000D03*
X71705000Y14750000D03*
X71705000Y14750000D03*
X71705000Y15550000D03*
X71705000Y20450000D03*
X71705000Y21250000D03*
D14*
X71705000Y16250000D03*
X71705000Y16750000D03*
X71705000Y17250000D03*
X71705000Y18250000D03*
X71705000Y18750000D03*
X71705000Y19250000D03*
X71705000Y19750000D03*
X71705000Y17750000D03*
M02*
