G04 #@! TF.GenerationSoftware,KiCad,Pcbnew,(5.1.5)-3*
G04 #@! TF.CreationDate,2021-11-13T16:12:44+01:00*
G04 #@! TF.ProjectId,rp4b-power-adapter,72703462-2d70-46f7-9765-722d61646170,rev?*
G04 #@! TF.SameCoordinates,PX5f5e100PY6052340*
G04 #@! TF.FileFunction,Soldermask,Top*
G04 #@! TF.FilePolarity,Negative*
%FSLAX46Y46*%
G04 Gerber Fmt 4.6, Leading zero omitted, Abs format (unit mm)*
G04 Created by KiCad (PCBNEW (5.1.5)-3) date 2021-11-13 16:12:44*
%MOMM*%
%LPD*%
G04 APERTURE LIST*
%ADD10C,0.100000*%
G04 APERTURE END LIST*
D10*
G36*
X49793638Y3769441D02*
G01*
X49895734Y3727151D01*
X49987614Y3665759D01*
X50065759Y3587614D01*
X50127151Y3495734D01*
X50169441Y3393637D01*
X50191000Y3285253D01*
X50191000Y3174747D01*
X50169441Y3066363D01*
X50127151Y2964266D01*
X50065759Y2872386D01*
X49987616Y2794243D01*
X49936266Y2759932D01*
X49917324Y2744387D01*
X49901779Y2725445D01*
X49890228Y2703834D01*
X49883115Y2680385D01*
X49880713Y2655999D01*
X49883115Y2631613D01*
X49890228Y2608164D01*
X49901779Y2586553D01*
X49917324Y2567611D01*
X49936266Y2552066D01*
X49957877Y2540515D01*
X49981326Y2533402D01*
X50005712Y2531000D01*
X50191000Y2531000D01*
X50191000Y649000D01*
X49069000Y649000D01*
X49069000Y2531000D01*
X49254288Y2531000D01*
X49278674Y2533402D01*
X49302123Y2540515D01*
X49323734Y2552066D01*
X49342676Y2567611D01*
X49358221Y2586553D01*
X49369772Y2608164D01*
X49376885Y2631613D01*
X49379287Y2655999D01*
X49376885Y2680385D01*
X49369772Y2703834D01*
X49358221Y2725445D01*
X49342676Y2744387D01*
X49323734Y2759932D01*
X49272384Y2794243D01*
X49194241Y2872386D01*
X49132849Y2964266D01*
X49090559Y3066363D01*
X49069000Y3174747D01*
X49069000Y3285253D01*
X49090559Y3393637D01*
X49132849Y3495734D01*
X49194241Y3587614D01*
X49272386Y3665759D01*
X49364266Y3727151D01*
X49466362Y3769441D01*
X49574746Y3791000D01*
X49685254Y3791000D01*
X49793638Y3769441D01*
G37*
G36*
X24393638Y3769441D02*
G01*
X24495734Y3727151D01*
X24587614Y3665759D01*
X24665759Y3587614D01*
X24727151Y3495734D01*
X24769441Y3393637D01*
X24791000Y3285253D01*
X24791000Y3174747D01*
X24769441Y3066363D01*
X24727151Y2964266D01*
X24665759Y2872386D01*
X24587616Y2794243D01*
X24536266Y2759932D01*
X24517324Y2744387D01*
X24501779Y2725445D01*
X24490228Y2703834D01*
X24483115Y2680385D01*
X24480713Y2655999D01*
X24483115Y2631613D01*
X24490228Y2608164D01*
X24501779Y2586553D01*
X24517324Y2567611D01*
X24536266Y2552066D01*
X24557877Y2540515D01*
X24581326Y2533402D01*
X24605712Y2531000D01*
X24791000Y2531000D01*
X24791000Y649000D01*
X23669000Y649000D01*
X23669000Y2531000D01*
X23854288Y2531000D01*
X23878674Y2533402D01*
X23902123Y2540515D01*
X23923734Y2552066D01*
X23942676Y2567611D01*
X23958221Y2586553D01*
X23969772Y2608164D01*
X23976885Y2631613D01*
X23979287Y2655999D01*
X23976885Y2680385D01*
X23969772Y2703834D01*
X23958221Y2725445D01*
X23942676Y2744387D01*
X23923734Y2759932D01*
X23872384Y2794243D01*
X23794241Y2872386D01*
X23732849Y2964266D01*
X23690559Y3066363D01*
X23669000Y3174747D01*
X23669000Y3285253D01*
X23690559Y3393637D01*
X23732849Y3495734D01*
X23794241Y3587614D01*
X23872386Y3665759D01*
X23964266Y3727151D01*
X24066362Y3769441D01*
X24174746Y3791000D01*
X24285254Y3791000D01*
X24393638Y3769441D01*
G37*
G36*
X1533638Y3769441D02*
G01*
X1635734Y3727151D01*
X1727614Y3665759D01*
X1805759Y3587614D01*
X1867151Y3495734D01*
X1909441Y3393637D01*
X1931000Y3285253D01*
X1931000Y3174747D01*
X1909441Y3066363D01*
X1867151Y2964266D01*
X1805759Y2872386D01*
X1727616Y2794243D01*
X1676266Y2759932D01*
X1657324Y2744387D01*
X1641779Y2725445D01*
X1630228Y2703834D01*
X1623115Y2680385D01*
X1620713Y2655999D01*
X1623115Y2631613D01*
X1630228Y2608164D01*
X1641779Y2586553D01*
X1657324Y2567611D01*
X1676266Y2552066D01*
X1697877Y2540515D01*
X1721326Y2533402D01*
X1745712Y2531000D01*
X1931000Y2531000D01*
X1931000Y649000D01*
X809000Y649000D01*
X809000Y2531000D01*
X994288Y2531000D01*
X1018674Y2533402D01*
X1042123Y2540515D01*
X1063734Y2552066D01*
X1082676Y2567611D01*
X1098221Y2586553D01*
X1109772Y2608164D01*
X1116885Y2631613D01*
X1119287Y2655999D01*
X1116885Y2680385D01*
X1109772Y2703834D01*
X1098221Y2725445D01*
X1082676Y2744387D01*
X1063734Y2759932D01*
X1012384Y2794243D01*
X934241Y2872386D01*
X872849Y2964266D01*
X830559Y3066363D01*
X809000Y3174747D01*
X809000Y3285253D01*
X830559Y3393637D01*
X872849Y3495734D01*
X934241Y3587614D01*
X1012386Y3665759D01*
X1104266Y3727151D01*
X1206362Y3769441D01*
X1314746Y3791000D01*
X1425254Y3791000D01*
X1533638Y3769441D01*
G37*
G36*
X4073638Y3769441D02*
G01*
X4175734Y3727151D01*
X4267614Y3665759D01*
X4345759Y3587614D01*
X4407151Y3495734D01*
X4449441Y3393637D01*
X4471000Y3285253D01*
X4471000Y3174747D01*
X4449441Y3066363D01*
X4407151Y2964266D01*
X4345759Y2872386D01*
X4267616Y2794243D01*
X4216266Y2759932D01*
X4197324Y2744387D01*
X4181779Y2725445D01*
X4170228Y2703834D01*
X4163115Y2680385D01*
X4160713Y2655999D01*
X4163115Y2631613D01*
X4170228Y2608164D01*
X4181779Y2586553D01*
X4197324Y2567611D01*
X4216266Y2552066D01*
X4237877Y2540515D01*
X4261326Y2533402D01*
X4285712Y2531000D01*
X4471000Y2531000D01*
X4471000Y649000D01*
X3349000Y649000D01*
X3349000Y2531000D01*
X3534288Y2531000D01*
X3558674Y2533402D01*
X3582123Y2540515D01*
X3603734Y2552066D01*
X3622676Y2567611D01*
X3638221Y2586553D01*
X3649772Y2608164D01*
X3656885Y2631613D01*
X3659287Y2655999D01*
X3656885Y2680385D01*
X3649772Y2703834D01*
X3638221Y2725445D01*
X3622676Y2744387D01*
X3603734Y2759932D01*
X3552384Y2794243D01*
X3474241Y2872386D01*
X3412849Y2964266D01*
X3370559Y3066363D01*
X3349000Y3174747D01*
X3349000Y3285253D01*
X3370559Y3393637D01*
X3412849Y3495734D01*
X3474241Y3587614D01*
X3552386Y3665759D01*
X3644266Y3727151D01*
X3746362Y3769441D01*
X3854746Y3791000D01*
X3965254Y3791000D01*
X4073638Y3769441D01*
G37*
G36*
X6613638Y3769441D02*
G01*
X6715734Y3727151D01*
X6807614Y3665759D01*
X6885759Y3587614D01*
X6947151Y3495734D01*
X6989441Y3393637D01*
X7011000Y3285253D01*
X7011000Y3174747D01*
X6989441Y3066363D01*
X6947151Y2964266D01*
X6885759Y2872386D01*
X6807616Y2794243D01*
X6756266Y2759932D01*
X6737324Y2744387D01*
X6721779Y2725445D01*
X6710228Y2703834D01*
X6703115Y2680385D01*
X6700713Y2655999D01*
X6703115Y2631613D01*
X6710228Y2608164D01*
X6721779Y2586553D01*
X6737324Y2567611D01*
X6756266Y2552066D01*
X6777877Y2540515D01*
X6801326Y2533402D01*
X6825712Y2531000D01*
X7011000Y2531000D01*
X7011000Y649000D01*
X5889000Y649000D01*
X5889000Y2531000D01*
X6074288Y2531000D01*
X6098674Y2533402D01*
X6122123Y2540515D01*
X6143734Y2552066D01*
X6162676Y2567611D01*
X6178221Y2586553D01*
X6189772Y2608164D01*
X6196885Y2631613D01*
X6199287Y2655999D01*
X6196885Y2680385D01*
X6189772Y2703834D01*
X6178221Y2725445D01*
X6162676Y2744387D01*
X6143734Y2759932D01*
X6092384Y2794243D01*
X6014241Y2872386D01*
X5952849Y2964266D01*
X5910559Y3066363D01*
X5889000Y3174747D01*
X5889000Y3285253D01*
X5910559Y3393637D01*
X5952849Y3495734D01*
X6014241Y3587614D01*
X6092386Y3665759D01*
X6184266Y3727151D01*
X6286362Y3769441D01*
X6394746Y3791000D01*
X6505254Y3791000D01*
X6613638Y3769441D01*
G37*
G36*
X9153638Y3769441D02*
G01*
X9255734Y3727151D01*
X9347614Y3665759D01*
X9425759Y3587614D01*
X9487151Y3495734D01*
X9529441Y3393637D01*
X9551000Y3285253D01*
X9551000Y3174747D01*
X9529441Y3066363D01*
X9487151Y2964266D01*
X9425759Y2872386D01*
X9347616Y2794243D01*
X9296266Y2759932D01*
X9277324Y2744387D01*
X9261779Y2725445D01*
X9250228Y2703834D01*
X9243115Y2680385D01*
X9240713Y2655999D01*
X9243115Y2631613D01*
X9250228Y2608164D01*
X9261779Y2586553D01*
X9277324Y2567611D01*
X9296266Y2552066D01*
X9317877Y2540515D01*
X9341326Y2533402D01*
X9365712Y2531000D01*
X9551000Y2531000D01*
X9551000Y649000D01*
X8429000Y649000D01*
X8429000Y2531000D01*
X8614288Y2531000D01*
X8638674Y2533402D01*
X8662123Y2540515D01*
X8683734Y2552066D01*
X8702676Y2567611D01*
X8718221Y2586553D01*
X8729772Y2608164D01*
X8736885Y2631613D01*
X8739287Y2655999D01*
X8736885Y2680385D01*
X8729772Y2703834D01*
X8718221Y2725445D01*
X8702676Y2744387D01*
X8683734Y2759932D01*
X8632384Y2794243D01*
X8554241Y2872386D01*
X8492849Y2964266D01*
X8450559Y3066363D01*
X8429000Y3174747D01*
X8429000Y3285253D01*
X8450559Y3393637D01*
X8492849Y3495734D01*
X8554241Y3587614D01*
X8632386Y3665759D01*
X8724266Y3727151D01*
X8826362Y3769441D01*
X8934746Y3791000D01*
X9045254Y3791000D01*
X9153638Y3769441D01*
G37*
G36*
X11693638Y3769441D02*
G01*
X11795734Y3727151D01*
X11887614Y3665759D01*
X11965759Y3587614D01*
X12027151Y3495734D01*
X12069441Y3393637D01*
X12091000Y3285253D01*
X12091000Y3174747D01*
X12069441Y3066363D01*
X12027151Y2964266D01*
X11965759Y2872386D01*
X11887616Y2794243D01*
X11836266Y2759932D01*
X11817324Y2744387D01*
X11801779Y2725445D01*
X11790228Y2703834D01*
X11783115Y2680385D01*
X11780713Y2655999D01*
X11783115Y2631613D01*
X11790228Y2608164D01*
X11801779Y2586553D01*
X11817324Y2567611D01*
X11836266Y2552066D01*
X11857877Y2540515D01*
X11881326Y2533402D01*
X11905712Y2531000D01*
X12091000Y2531000D01*
X12091000Y649000D01*
X10969000Y649000D01*
X10969000Y2531000D01*
X11154288Y2531000D01*
X11178674Y2533402D01*
X11202123Y2540515D01*
X11223734Y2552066D01*
X11242676Y2567611D01*
X11258221Y2586553D01*
X11269772Y2608164D01*
X11276885Y2631613D01*
X11279287Y2655999D01*
X11276885Y2680385D01*
X11269772Y2703834D01*
X11258221Y2725445D01*
X11242676Y2744387D01*
X11223734Y2759932D01*
X11172384Y2794243D01*
X11094241Y2872386D01*
X11032849Y2964266D01*
X10990559Y3066363D01*
X10969000Y3174747D01*
X10969000Y3285253D01*
X10990559Y3393637D01*
X11032849Y3495734D01*
X11094241Y3587614D01*
X11172386Y3665759D01*
X11264266Y3727151D01*
X11366362Y3769441D01*
X11474746Y3791000D01*
X11585254Y3791000D01*
X11693638Y3769441D01*
G37*
G36*
X14233638Y3769441D02*
G01*
X14335734Y3727151D01*
X14427614Y3665759D01*
X14505759Y3587614D01*
X14567151Y3495734D01*
X14609441Y3393637D01*
X14631000Y3285253D01*
X14631000Y3174747D01*
X14609441Y3066363D01*
X14567151Y2964266D01*
X14505759Y2872386D01*
X14427616Y2794243D01*
X14376266Y2759932D01*
X14357324Y2744387D01*
X14341779Y2725445D01*
X14330228Y2703834D01*
X14323115Y2680385D01*
X14320713Y2655999D01*
X14323115Y2631613D01*
X14330228Y2608164D01*
X14341779Y2586553D01*
X14357324Y2567611D01*
X14376266Y2552066D01*
X14397877Y2540515D01*
X14421326Y2533402D01*
X14445712Y2531000D01*
X14631000Y2531000D01*
X14631000Y649000D01*
X13509000Y649000D01*
X13509000Y2531000D01*
X13694288Y2531000D01*
X13718674Y2533402D01*
X13742123Y2540515D01*
X13763734Y2552066D01*
X13782676Y2567611D01*
X13798221Y2586553D01*
X13809772Y2608164D01*
X13816885Y2631613D01*
X13819287Y2655999D01*
X13816885Y2680385D01*
X13809772Y2703834D01*
X13798221Y2725445D01*
X13782676Y2744387D01*
X13763734Y2759932D01*
X13712384Y2794243D01*
X13634241Y2872386D01*
X13572849Y2964266D01*
X13530559Y3066363D01*
X13509000Y3174747D01*
X13509000Y3285253D01*
X13530559Y3393637D01*
X13572849Y3495734D01*
X13634241Y3587614D01*
X13712386Y3665759D01*
X13804266Y3727151D01*
X13906362Y3769441D01*
X14014746Y3791000D01*
X14125254Y3791000D01*
X14233638Y3769441D01*
G37*
G36*
X16773638Y3769441D02*
G01*
X16875734Y3727151D01*
X16967614Y3665759D01*
X17045759Y3587614D01*
X17107151Y3495734D01*
X17149441Y3393637D01*
X17171000Y3285253D01*
X17171000Y3174747D01*
X17149441Y3066363D01*
X17107151Y2964266D01*
X17045759Y2872386D01*
X16967616Y2794243D01*
X16916266Y2759932D01*
X16897324Y2744387D01*
X16881779Y2725445D01*
X16870228Y2703834D01*
X16863115Y2680385D01*
X16860713Y2655999D01*
X16863115Y2631613D01*
X16870228Y2608164D01*
X16881779Y2586553D01*
X16897324Y2567611D01*
X16916266Y2552066D01*
X16937877Y2540515D01*
X16961326Y2533402D01*
X16985712Y2531000D01*
X17171000Y2531000D01*
X17171000Y649000D01*
X16049000Y649000D01*
X16049000Y2531000D01*
X16234288Y2531000D01*
X16258674Y2533402D01*
X16282123Y2540515D01*
X16303734Y2552066D01*
X16322676Y2567611D01*
X16338221Y2586553D01*
X16349772Y2608164D01*
X16356885Y2631613D01*
X16359287Y2655999D01*
X16356885Y2680385D01*
X16349772Y2703834D01*
X16338221Y2725445D01*
X16322676Y2744387D01*
X16303734Y2759932D01*
X16252384Y2794243D01*
X16174241Y2872386D01*
X16112849Y2964266D01*
X16070559Y3066363D01*
X16049000Y3174747D01*
X16049000Y3285253D01*
X16070559Y3393637D01*
X16112849Y3495734D01*
X16174241Y3587614D01*
X16252386Y3665759D01*
X16344266Y3727151D01*
X16446362Y3769441D01*
X16554746Y3791000D01*
X16665254Y3791000D01*
X16773638Y3769441D01*
G37*
G36*
X19313638Y3769441D02*
G01*
X19415734Y3727151D01*
X19507614Y3665759D01*
X19585759Y3587614D01*
X19647151Y3495734D01*
X19689441Y3393637D01*
X19711000Y3285253D01*
X19711000Y3174747D01*
X19689441Y3066363D01*
X19647151Y2964266D01*
X19585759Y2872386D01*
X19507616Y2794243D01*
X19456266Y2759932D01*
X19437324Y2744387D01*
X19421779Y2725445D01*
X19410228Y2703834D01*
X19403115Y2680385D01*
X19400713Y2655999D01*
X19403115Y2631613D01*
X19410228Y2608164D01*
X19421779Y2586553D01*
X19437324Y2567611D01*
X19456266Y2552066D01*
X19477877Y2540515D01*
X19501326Y2533402D01*
X19525712Y2531000D01*
X19711000Y2531000D01*
X19711000Y649000D01*
X18589000Y649000D01*
X18589000Y2531000D01*
X18774288Y2531000D01*
X18798674Y2533402D01*
X18822123Y2540515D01*
X18843734Y2552066D01*
X18862676Y2567611D01*
X18878221Y2586553D01*
X18889772Y2608164D01*
X18896885Y2631613D01*
X18899287Y2655999D01*
X18896885Y2680385D01*
X18889772Y2703834D01*
X18878221Y2725445D01*
X18862676Y2744387D01*
X18843734Y2759932D01*
X18792384Y2794243D01*
X18714241Y2872386D01*
X18652849Y2964266D01*
X18610559Y3066363D01*
X18589000Y3174747D01*
X18589000Y3285253D01*
X18610559Y3393637D01*
X18652849Y3495734D01*
X18714241Y3587614D01*
X18792386Y3665759D01*
X18884266Y3727151D01*
X18986362Y3769441D01*
X19094746Y3791000D01*
X19205254Y3791000D01*
X19313638Y3769441D01*
G37*
G36*
X21853638Y3769441D02*
G01*
X21955734Y3727151D01*
X22047614Y3665759D01*
X22125759Y3587614D01*
X22187151Y3495734D01*
X22229441Y3393637D01*
X22251000Y3285253D01*
X22251000Y3174747D01*
X22229441Y3066363D01*
X22187151Y2964266D01*
X22125759Y2872386D01*
X22047616Y2794243D01*
X21996266Y2759932D01*
X21977324Y2744387D01*
X21961779Y2725445D01*
X21950228Y2703834D01*
X21943115Y2680385D01*
X21940713Y2655999D01*
X21943115Y2631613D01*
X21950228Y2608164D01*
X21961779Y2586553D01*
X21977324Y2567611D01*
X21996266Y2552066D01*
X22017877Y2540515D01*
X22041326Y2533402D01*
X22065712Y2531000D01*
X22251000Y2531000D01*
X22251000Y649000D01*
X21129000Y649000D01*
X21129000Y2531000D01*
X21314288Y2531000D01*
X21338674Y2533402D01*
X21362123Y2540515D01*
X21383734Y2552066D01*
X21402676Y2567611D01*
X21418221Y2586553D01*
X21429772Y2608164D01*
X21436885Y2631613D01*
X21439287Y2655999D01*
X21436885Y2680385D01*
X21429772Y2703834D01*
X21418221Y2725445D01*
X21402676Y2744387D01*
X21383734Y2759932D01*
X21332384Y2794243D01*
X21254241Y2872386D01*
X21192849Y2964266D01*
X21150559Y3066363D01*
X21129000Y3174747D01*
X21129000Y3285253D01*
X21150559Y3393637D01*
X21192849Y3495734D01*
X21254241Y3587614D01*
X21332386Y3665759D01*
X21424266Y3727151D01*
X21526362Y3769441D01*
X21634746Y3791000D01*
X21745254Y3791000D01*
X21853638Y3769441D01*
G37*
G36*
X29473638Y3769441D02*
G01*
X29575734Y3727151D01*
X29667614Y3665759D01*
X29745759Y3587614D01*
X29807151Y3495734D01*
X29849441Y3393637D01*
X29871000Y3285253D01*
X29871000Y3174747D01*
X29849441Y3066363D01*
X29807151Y2964266D01*
X29745759Y2872386D01*
X29667616Y2794243D01*
X29616266Y2759932D01*
X29597324Y2744387D01*
X29581779Y2725445D01*
X29570228Y2703834D01*
X29563115Y2680385D01*
X29560713Y2655999D01*
X29563115Y2631613D01*
X29570228Y2608164D01*
X29581779Y2586553D01*
X29597324Y2567611D01*
X29616266Y2552066D01*
X29637877Y2540515D01*
X29661326Y2533402D01*
X29685712Y2531000D01*
X29871000Y2531000D01*
X29871000Y649000D01*
X28749000Y649000D01*
X28749000Y2531000D01*
X28934288Y2531000D01*
X28958674Y2533402D01*
X28982123Y2540515D01*
X29003734Y2552066D01*
X29022676Y2567611D01*
X29038221Y2586553D01*
X29049772Y2608164D01*
X29056885Y2631613D01*
X29059287Y2655999D01*
X29056885Y2680385D01*
X29049772Y2703834D01*
X29038221Y2725445D01*
X29022676Y2744387D01*
X29003734Y2759932D01*
X28952384Y2794243D01*
X28874241Y2872386D01*
X28812849Y2964266D01*
X28770559Y3066363D01*
X28749000Y3174747D01*
X28749000Y3285253D01*
X28770559Y3393637D01*
X28812849Y3495734D01*
X28874241Y3587614D01*
X28952386Y3665759D01*
X29044266Y3727151D01*
X29146362Y3769441D01*
X29254746Y3791000D01*
X29365254Y3791000D01*
X29473638Y3769441D01*
G37*
G36*
X32013638Y3769441D02*
G01*
X32115734Y3727151D01*
X32207614Y3665759D01*
X32285759Y3587614D01*
X32347151Y3495734D01*
X32389441Y3393637D01*
X32411000Y3285253D01*
X32411000Y3174747D01*
X32389441Y3066363D01*
X32347151Y2964266D01*
X32285759Y2872386D01*
X32207616Y2794243D01*
X32156266Y2759932D01*
X32137324Y2744387D01*
X32121779Y2725445D01*
X32110228Y2703834D01*
X32103115Y2680385D01*
X32100713Y2655999D01*
X32103115Y2631613D01*
X32110228Y2608164D01*
X32121779Y2586553D01*
X32137324Y2567611D01*
X32156266Y2552066D01*
X32177877Y2540515D01*
X32201326Y2533402D01*
X32225712Y2531000D01*
X32411000Y2531000D01*
X32411000Y649000D01*
X31289000Y649000D01*
X31289000Y2531000D01*
X31474288Y2531000D01*
X31498674Y2533402D01*
X31522123Y2540515D01*
X31543734Y2552066D01*
X31562676Y2567611D01*
X31578221Y2586553D01*
X31589772Y2608164D01*
X31596885Y2631613D01*
X31599287Y2655999D01*
X31596885Y2680385D01*
X31589772Y2703834D01*
X31578221Y2725445D01*
X31562676Y2744387D01*
X31543734Y2759932D01*
X31492384Y2794243D01*
X31414241Y2872386D01*
X31352849Y2964266D01*
X31310559Y3066363D01*
X31289000Y3174747D01*
X31289000Y3285253D01*
X31310559Y3393637D01*
X31352849Y3495734D01*
X31414241Y3587614D01*
X31492386Y3665759D01*
X31584266Y3727151D01*
X31686362Y3769441D01*
X31794746Y3791000D01*
X31905254Y3791000D01*
X32013638Y3769441D01*
G37*
G36*
X34553638Y3769441D02*
G01*
X34655734Y3727151D01*
X34747614Y3665759D01*
X34825759Y3587614D01*
X34887151Y3495734D01*
X34929441Y3393637D01*
X34951000Y3285253D01*
X34951000Y3174747D01*
X34929441Y3066363D01*
X34887151Y2964266D01*
X34825759Y2872386D01*
X34747616Y2794243D01*
X34696266Y2759932D01*
X34677324Y2744387D01*
X34661779Y2725445D01*
X34650228Y2703834D01*
X34643115Y2680385D01*
X34640713Y2655999D01*
X34643115Y2631613D01*
X34650228Y2608164D01*
X34661779Y2586553D01*
X34677324Y2567611D01*
X34696266Y2552066D01*
X34717877Y2540515D01*
X34741326Y2533402D01*
X34765712Y2531000D01*
X34951000Y2531000D01*
X34951000Y649000D01*
X33829000Y649000D01*
X33829000Y2531000D01*
X34014288Y2531000D01*
X34038674Y2533402D01*
X34062123Y2540515D01*
X34083734Y2552066D01*
X34102676Y2567611D01*
X34118221Y2586553D01*
X34129772Y2608164D01*
X34136885Y2631613D01*
X34139287Y2655999D01*
X34136885Y2680385D01*
X34129772Y2703834D01*
X34118221Y2725445D01*
X34102676Y2744387D01*
X34083734Y2759932D01*
X34032384Y2794243D01*
X33954241Y2872386D01*
X33892849Y2964266D01*
X33850559Y3066363D01*
X33829000Y3174747D01*
X33829000Y3285253D01*
X33850559Y3393637D01*
X33892849Y3495734D01*
X33954241Y3587614D01*
X34032386Y3665759D01*
X34124266Y3727151D01*
X34226362Y3769441D01*
X34334746Y3791000D01*
X34445254Y3791000D01*
X34553638Y3769441D01*
G37*
G36*
X37093638Y3769441D02*
G01*
X37195734Y3727151D01*
X37287614Y3665759D01*
X37365759Y3587614D01*
X37427151Y3495734D01*
X37469441Y3393637D01*
X37491000Y3285253D01*
X37491000Y3174747D01*
X37469441Y3066363D01*
X37427151Y2964266D01*
X37365759Y2872386D01*
X37287616Y2794243D01*
X37236266Y2759932D01*
X37217324Y2744387D01*
X37201779Y2725445D01*
X37190228Y2703834D01*
X37183115Y2680385D01*
X37180713Y2655999D01*
X37183115Y2631613D01*
X37190228Y2608164D01*
X37201779Y2586553D01*
X37217324Y2567611D01*
X37236266Y2552066D01*
X37257877Y2540515D01*
X37281326Y2533402D01*
X37305712Y2531000D01*
X37491000Y2531000D01*
X37491000Y649000D01*
X36369000Y649000D01*
X36369000Y2531000D01*
X36554288Y2531000D01*
X36578674Y2533402D01*
X36602123Y2540515D01*
X36623734Y2552066D01*
X36642676Y2567611D01*
X36658221Y2586553D01*
X36669772Y2608164D01*
X36676885Y2631613D01*
X36679287Y2655999D01*
X36676885Y2680385D01*
X36669772Y2703834D01*
X36658221Y2725445D01*
X36642676Y2744387D01*
X36623734Y2759932D01*
X36572384Y2794243D01*
X36494241Y2872386D01*
X36432849Y2964266D01*
X36390559Y3066363D01*
X36369000Y3174747D01*
X36369000Y3285253D01*
X36390559Y3393637D01*
X36432849Y3495734D01*
X36494241Y3587614D01*
X36572386Y3665759D01*
X36664266Y3727151D01*
X36766362Y3769441D01*
X36874746Y3791000D01*
X36985254Y3791000D01*
X37093638Y3769441D01*
G37*
G36*
X39633638Y3769441D02*
G01*
X39735734Y3727151D01*
X39827614Y3665759D01*
X39905759Y3587614D01*
X39967151Y3495734D01*
X40009441Y3393637D01*
X40031000Y3285253D01*
X40031000Y3174747D01*
X40009441Y3066363D01*
X39967151Y2964266D01*
X39905759Y2872386D01*
X39827616Y2794243D01*
X39776266Y2759932D01*
X39757324Y2744387D01*
X39741779Y2725445D01*
X39730228Y2703834D01*
X39723115Y2680385D01*
X39720713Y2655999D01*
X39723115Y2631613D01*
X39730228Y2608164D01*
X39741779Y2586553D01*
X39757324Y2567611D01*
X39776266Y2552066D01*
X39797877Y2540515D01*
X39821326Y2533402D01*
X39845712Y2531000D01*
X40031000Y2531000D01*
X40031000Y649000D01*
X38909000Y649000D01*
X38909000Y2531000D01*
X39094288Y2531000D01*
X39118674Y2533402D01*
X39142123Y2540515D01*
X39163734Y2552066D01*
X39182676Y2567611D01*
X39198221Y2586553D01*
X39209772Y2608164D01*
X39216885Y2631613D01*
X39219287Y2655999D01*
X39216885Y2680385D01*
X39209772Y2703834D01*
X39198221Y2725445D01*
X39182676Y2744387D01*
X39163734Y2759932D01*
X39112384Y2794243D01*
X39034241Y2872386D01*
X38972849Y2964266D01*
X38930559Y3066363D01*
X38909000Y3174747D01*
X38909000Y3285253D01*
X38930559Y3393637D01*
X38972849Y3495734D01*
X39034241Y3587614D01*
X39112386Y3665759D01*
X39204266Y3727151D01*
X39306362Y3769441D01*
X39414746Y3791000D01*
X39525254Y3791000D01*
X39633638Y3769441D01*
G37*
G36*
X42173638Y3769441D02*
G01*
X42275734Y3727151D01*
X42367614Y3665759D01*
X42445759Y3587614D01*
X42507151Y3495734D01*
X42549441Y3393637D01*
X42571000Y3285253D01*
X42571000Y3174747D01*
X42549441Y3066363D01*
X42507151Y2964266D01*
X42445759Y2872386D01*
X42367616Y2794243D01*
X42316266Y2759932D01*
X42297324Y2744387D01*
X42281779Y2725445D01*
X42270228Y2703834D01*
X42263115Y2680385D01*
X42260713Y2655999D01*
X42263115Y2631613D01*
X42270228Y2608164D01*
X42281779Y2586553D01*
X42297324Y2567611D01*
X42316266Y2552066D01*
X42337877Y2540515D01*
X42361326Y2533402D01*
X42385712Y2531000D01*
X42571000Y2531000D01*
X42571000Y649000D01*
X41449000Y649000D01*
X41449000Y2531000D01*
X41634288Y2531000D01*
X41658674Y2533402D01*
X41682123Y2540515D01*
X41703734Y2552066D01*
X41722676Y2567611D01*
X41738221Y2586553D01*
X41749772Y2608164D01*
X41756885Y2631613D01*
X41759287Y2655999D01*
X41756885Y2680385D01*
X41749772Y2703834D01*
X41738221Y2725445D01*
X41722676Y2744387D01*
X41703734Y2759932D01*
X41652384Y2794243D01*
X41574241Y2872386D01*
X41512849Y2964266D01*
X41470559Y3066363D01*
X41449000Y3174747D01*
X41449000Y3285253D01*
X41470559Y3393637D01*
X41512849Y3495734D01*
X41574241Y3587614D01*
X41652386Y3665759D01*
X41744266Y3727151D01*
X41846362Y3769441D01*
X41954746Y3791000D01*
X42065254Y3791000D01*
X42173638Y3769441D01*
G37*
G36*
X44713638Y3769441D02*
G01*
X44815734Y3727151D01*
X44907614Y3665759D01*
X44985759Y3587614D01*
X45047151Y3495734D01*
X45089441Y3393637D01*
X45111000Y3285253D01*
X45111000Y3174747D01*
X45089441Y3066363D01*
X45047151Y2964266D01*
X44985759Y2872386D01*
X44907616Y2794243D01*
X44856266Y2759932D01*
X44837324Y2744387D01*
X44821779Y2725445D01*
X44810228Y2703834D01*
X44803115Y2680385D01*
X44800713Y2655999D01*
X44803115Y2631613D01*
X44810228Y2608164D01*
X44821779Y2586553D01*
X44837324Y2567611D01*
X44856266Y2552066D01*
X44877877Y2540515D01*
X44901326Y2533402D01*
X44925712Y2531000D01*
X45111000Y2531000D01*
X45111000Y649000D01*
X43989000Y649000D01*
X43989000Y2531000D01*
X44174288Y2531000D01*
X44198674Y2533402D01*
X44222123Y2540515D01*
X44243734Y2552066D01*
X44262676Y2567611D01*
X44278221Y2586553D01*
X44289772Y2608164D01*
X44296885Y2631613D01*
X44299287Y2655999D01*
X44296885Y2680385D01*
X44289772Y2703834D01*
X44278221Y2725445D01*
X44262676Y2744387D01*
X44243734Y2759932D01*
X44192384Y2794243D01*
X44114241Y2872386D01*
X44052849Y2964266D01*
X44010559Y3066363D01*
X43989000Y3174747D01*
X43989000Y3285253D01*
X44010559Y3393637D01*
X44052849Y3495734D01*
X44114241Y3587614D01*
X44192386Y3665759D01*
X44284266Y3727151D01*
X44386362Y3769441D01*
X44494746Y3791000D01*
X44605254Y3791000D01*
X44713638Y3769441D01*
G37*
G36*
X47253638Y3769441D02*
G01*
X47355734Y3727151D01*
X47447614Y3665759D01*
X47525759Y3587614D01*
X47587151Y3495734D01*
X47629441Y3393637D01*
X47651000Y3285253D01*
X47651000Y3174747D01*
X47629441Y3066363D01*
X47587151Y2964266D01*
X47525759Y2872386D01*
X47447616Y2794243D01*
X47396266Y2759932D01*
X47377324Y2744387D01*
X47361779Y2725445D01*
X47350228Y2703834D01*
X47343115Y2680385D01*
X47340713Y2655999D01*
X47343115Y2631613D01*
X47350228Y2608164D01*
X47361779Y2586553D01*
X47377324Y2567611D01*
X47396266Y2552066D01*
X47417877Y2540515D01*
X47441326Y2533402D01*
X47465712Y2531000D01*
X47651000Y2531000D01*
X47651000Y649000D01*
X46529000Y649000D01*
X46529000Y2531000D01*
X46714288Y2531000D01*
X46738674Y2533402D01*
X46762123Y2540515D01*
X46783734Y2552066D01*
X46802676Y2567611D01*
X46818221Y2586553D01*
X46829772Y2608164D01*
X46836885Y2631613D01*
X46839287Y2655999D01*
X46836885Y2680385D01*
X46829772Y2703834D01*
X46818221Y2725445D01*
X46802676Y2744387D01*
X46783734Y2759932D01*
X46732384Y2794243D01*
X46654241Y2872386D01*
X46592849Y2964266D01*
X46550559Y3066363D01*
X46529000Y3174747D01*
X46529000Y3285253D01*
X46550559Y3393637D01*
X46592849Y3495734D01*
X46654241Y3587614D01*
X46732386Y3665759D01*
X46824266Y3727151D01*
X46926362Y3769441D01*
X47034746Y3791000D01*
X47145254Y3791000D01*
X47253638Y3769441D01*
G37*
G36*
X26933638Y3769441D02*
G01*
X27035734Y3727151D01*
X27127614Y3665759D01*
X27205759Y3587614D01*
X27267151Y3495734D01*
X27309441Y3393637D01*
X27331000Y3285253D01*
X27331000Y3174747D01*
X27309441Y3066363D01*
X27267151Y2964266D01*
X27205759Y2872386D01*
X27127616Y2794243D01*
X27076266Y2759932D01*
X27057324Y2744387D01*
X27041779Y2725445D01*
X27030228Y2703834D01*
X27023115Y2680385D01*
X27020713Y2655999D01*
X27023115Y2631613D01*
X27030228Y2608164D01*
X27041779Y2586553D01*
X27057324Y2567611D01*
X27076266Y2552066D01*
X27097877Y2540515D01*
X27121326Y2533402D01*
X27145712Y2531000D01*
X27331000Y2531000D01*
X27331000Y649000D01*
X26209000Y649000D01*
X26209000Y2531000D01*
X26394288Y2531000D01*
X26418674Y2533402D01*
X26442123Y2540515D01*
X26463734Y2552066D01*
X26482676Y2567611D01*
X26498221Y2586553D01*
X26509772Y2608164D01*
X26516885Y2631613D01*
X26519287Y2655999D01*
X26516885Y2680385D01*
X26509772Y2703834D01*
X26498221Y2725445D01*
X26482676Y2744387D01*
X26463734Y2759932D01*
X26412384Y2794243D01*
X26334241Y2872386D01*
X26272849Y2964266D01*
X26230559Y3066363D01*
X26209000Y3174747D01*
X26209000Y3285253D01*
X26230559Y3393637D01*
X26272849Y3495734D01*
X26334241Y3587614D01*
X26412386Y3665759D01*
X26504266Y3727151D01*
X26606362Y3769441D01*
X26714746Y3791000D01*
X26825254Y3791000D01*
X26933638Y3769441D01*
G37*
G36*
X2917395Y5414454D02*
G01*
X3090466Y5342766D01*
X3167818Y5291081D01*
X3246227Y5238690D01*
X3378690Y5106227D01*
X3378691Y5106225D01*
X3482766Y4950466D01*
X3554454Y4777395D01*
X3591000Y4593667D01*
X3591000Y4406333D01*
X3554454Y4222605D01*
X3482766Y4049534D01*
X3482765Y4049533D01*
X3378690Y3893773D01*
X3246227Y3761310D01*
X3195104Y3727151D01*
X3090466Y3657234D01*
X2917395Y3585546D01*
X2733667Y3549000D01*
X2546333Y3549000D01*
X2362605Y3585546D01*
X2189534Y3657234D01*
X2084896Y3727151D01*
X2033773Y3761310D01*
X1901310Y3893773D01*
X1797235Y4049533D01*
X1797234Y4049534D01*
X1725546Y4222605D01*
X1689000Y4406333D01*
X1689000Y4593667D01*
X1725546Y4777395D01*
X1797234Y4950466D01*
X1901309Y5106225D01*
X1901310Y5106227D01*
X2033773Y5238690D01*
X2112182Y5291081D01*
X2189534Y5342766D01*
X2362605Y5414454D01*
X2546333Y5451000D01*
X2733667Y5451000D01*
X2917395Y5414454D01*
G37*
G36*
X46097395Y5414454D02*
G01*
X46270466Y5342766D01*
X46347818Y5291081D01*
X46426227Y5238690D01*
X46558690Y5106227D01*
X46558691Y5106225D01*
X46662766Y4950466D01*
X46734454Y4777395D01*
X46771000Y4593667D01*
X46771000Y4406333D01*
X46734454Y4222605D01*
X46662766Y4049534D01*
X46662765Y4049533D01*
X46558690Y3893773D01*
X46426227Y3761310D01*
X46375104Y3727151D01*
X46270466Y3657234D01*
X46097395Y3585546D01*
X45913667Y3549000D01*
X45726333Y3549000D01*
X45542605Y3585546D01*
X45369534Y3657234D01*
X45264896Y3727151D01*
X45213773Y3761310D01*
X45081310Y3893773D01*
X44977235Y4049533D01*
X44977234Y4049534D01*
X44905546Y4222605D01*
X44869000Y4406333D01*
X44869000Y4593667D01*
X44905546Y4777395D01*
X44977234Y4950466D01*
X45081309Y5106225D01*
X45081310Y5106227D01*
X45213773Y5238690D01*
X45292182Y5291081D01*
X45369534Y5342766D01*
X45542605Y5414454D01*
X45726333Y5451000D01*
X45913667Y5451000D01*
X46097395Y5414454D01*
G37*
G36*
X48637395Y5414454D02*
G01*
X48810466Y5342766D01*
X48887818Y5291081D01*
X48966227Y5238690D01*
X49098690Y5106227D01*
X49098691Y5106225D01*
X49202766Y4950466D01*
X49274454Y4777395D01*
X49311000Y4593667D01*
X49311000Y4406333D01*
X49274454Y4222605D01*
X49202766Y4049534D01*
X49202765Y4049533D01*
X49098690Y3893773D01*
X48966227Y3761310D01*
X48915104Y3727151D01*
X48810466Y3657234D01*
X48637395Y3585546D01*
X48453667Y3549000D01*
X48266333Y3549000D01*
X48082605Y3585546D01*
X47909534Y3657234D01*
X47804896Y3727151D01*
X47753773Y3761310D01*
X47621310Y3893773D01*
X47517235Y4049533D01*
X47517234Y4049534D01*
X47445546Y4222605D01*
X47409000Y4406333D01*
X47409000Y4593667D01*
X47445546Y4777395D01*
X47517234Y4950466D01*
X47621309Y5106225D01*
X47621310Y5106227D01*
X47753773Y5238690D01*
X47832182Y5291081D01*
X47909534Y5342766D01*
X48082605Y5414454D01*
X48266333Y5451000D01*
X48453667Y5451000D01*
X48637395Y5414454D01*
G37*
G36*
X5457395Y5414454D02*
G01*
X5630466Y5342766D01*
X5707818Y5291081D01*
X5786227Y5238690D01*
X5918690Y5106227D01*
X5918691Y5106225D01*
X6022766Y4950466D01*
X6094454Y4777395D01*
X6131000Y4593667D01*
X6131000Y4406333D01*
X6094454Y4222605D01*
X6022766Y4049534D01*
X6022765Y4049533D01*
X5918690Y3893773D01*
X5786227Y3761310D01*
X5735104Y3727151D01*
X5630466Y3657234D01*
X5457395Y3585546D01*
X5273667Y3549000D01*
X5086333Y3549000D01*
X4902605Y3585546D01*
X4729534Y3657234D01*
X4624896Y3727151D01*
X4573773Y3761310D01*
X4441310Y3893773D01*
X4337235Y4049533D01*
X4337234Y4049534D01*
X4265546Y4222605D01*
X4229000Y4406333D01*
X4229000Y4593667D01*
X4265546Y4777395D01*
X4337234Y4950466D01*
X4441309Y5106225D01*
X4441310Y5106227D01*
X4573773Y5238690D01*
X4652182Y5291081D01*
X4729534Y5342766D01*
X4902605Y5414454D01*
X5086333Y5451000D01*
X5273667Y5451000D01*
X5457395Y5414454D01*
G37*
G36*
X27331000Y6469000D02*
G01*
X27145712Y6469000D01*
X27121326Y6466598D01*
X27097877Y6459485D01*
X27076266Y6447934D01*
X27057324Y6432389D01*
X27041779Y6413447D01*
X27030228Y6391836D01*
X27023115Y6368387D01*
X27020713Y6344001D01*
X27023115Y6319615D01*
X27030228Y6296166D01*
X27041779Y6274555D01*
X27057324Y6255613D01*
X27076266Y6240068D01*
X27127616Y6205757D01*
X27205759Y6127614D01*
X27267151Y6035734D01*
X27309441Y5933637D01*
X27331000Y5825253D01*
X27331000Y5714747D01*
X27309441Y5606363D01*
X27267151Y5504266D01*
X27205759Y5412386D01*
X27127614Y5334241D01*
X27035734Y5272849D01*
X26984685Y5251704D01*
X26933638Y5230559D01*
X26825254Y5209000D01*
X26714746Y5209000D01*
X26606362Y5230559D01*
X26555315Y5251704D01*
X26504266Y5272849D01*
X26412386Y5334241D01*
X26334241Y5412386D01*
X26272849Y5504266D01*
X26230559Y5606363D01*
X26209000Y5714747D01*
X26209000Y5825253D01*
X26230559Y5933637D01*
X26272849Y6035734D01*
X26334241Y6127614D01*
X26412384Y6205757D01*
X26463734Y6240068D01*
X26482676Y6255613D01*
X26498221Y6274555D01*
X26509772Y6296166D01*
X26516885Y6319615D01*
X26519287Y6344001D01*
X26516885Y6368387D01*
X26509772Y6391836D01*
X26498221Y6413447D01*
X26482676Y6432389D01*
X26463734Y6447934D01*
X26442123Y6459485D01*
X26418674Y6466598D01*
X26394288Y6469000D01*
X26209000Y6469000D01*
X26209000Y8351000D01*
X27331000Y8351000D01*
X27331000Y6469000D01*
G37*
G36*
X29871000Y6469000D02*
G01*
X29685712Y6469000D01*
X29661326Y6466598D01*
X29637877Y6459485D01*
X29616266Y6447934D01*
X29597324Y6432389D01*
X29581779Y6413447D01*
X29570228Y6391836D01*
X29563115Y6368387D01*
X29560713Y6344001D01*
X29563115Y6319615D01*
X29570228Y6296166D01*
X29581779Y6274555D01*
X29597324Y6255613D01*
X29616266Y6240068D01*
X29667616Y6205757D01*
X29745759Y6127614D01*
X29807151Y6035734D01*
X29849441Y5933637D01*
X29871000Y5825253D01*
X29871000Y5714747D01*
X29849441Y5606363D01*
X29807151Y5504266D01*
X29745759Y5412386D01*
X29667614Y5334241D01*
X29575734Y5272849D01*
X29524685Y5251704D01*
X29473638Y5230559D01*
X29365254Y5209000D01*
X29254746Y5209000D01*
X29146362Y5230559D01*
X29095315Y5251704D01*
X29044266Y5272849D01*
X28952386Y5334241D01*
X28874241Y5412386D01*
X28812849Y5504266D01*
X28770559Y5606363D01*
X28749000Y5714747D01*
X28749000Y5825253D01*
X28770559Y5933637D01*
X28812849Y6035734D01*
X28874241Y6127614D01*
X28952384Y6205757D01*
X29003734Y6240068D01*
X29022676Y6255613D01*
X29038221Y6274555D01*
X29049772Y6296166D01*
X29056885Y6319615D01*
X29059287Y6344001D01*
X29056885Y6368387D01*
X29049772Y6391836D01*
X29038221Y6413447D01*
X29022676Y6432389D01*
X29003734Y6447934D01*
X28982123Y6459485D01*
X28958674Y6466598D01*
X28934288Y6469000D01*
X28749000Y6469000D01*
X28749000Y8351000D01*
X29871000Y8351000D01*
X29871000Y6469000D01*
G37*
G36*
X32411000Y6469000D02*
G01*
X32225712Y6469000D01*
X32201326Y6466598D01*
X32177877Y6459485D01*
X32156266Y6447934D01*
X32137324Y6432389D01*
X32121779Y6413447D01*
X32110228Y6391836D01*
X32103115Y6368387D01*
X32100713Y6344001D01*
X32103115Y6319615D01*
X32110228Y6296166D01*
X32121779Y6274555D01*
X32137324Y6255613D01*
X32156266Y6240068D01*
X32207616Y6205757D01*
X32285759Y6127614D01*
X32347151Y6035734D01*
X32389441Y5933637D01*
X32411000Y5825253D01*
X32411000Y5714747D01*
X32389441Y5606363D01*
X32347151Y5504266D01*
X32285759Y5412386D01*
X32207614Y5334241D01*
X32115734Y5272849D01*
X32064685Y5251704D01*
X32013638Y5230559D01*
X31905254Y5209000D01*
X31794746Y5209000D01*
X31686362Y5230559D01*
X31635315Y5251704D01*
X31584266Y5272849D01*
X31492386Y5334241D01*
X31414241Y5412386D01*
X31352849Y5504266D01*
X31310559Y5606363D01*
X31289000Y5714747D01*
X31289000Y5825253D01*
X31310559Y5933637D01*
X31352849Y6035734D01*
X31414241Y6127614D01*
X31492384Y6205757D01*
X31543734Y6240068D01*
X31562676Y6255613D01*
X31578221Y6274555D01*
X31589772Y6296166D01*
X31596885Y6319615D01*
X31599287Y6344001D01*
X31596885Y6368387D01*
X31589772Y6391836D01*
X31578221Y6413447D01*
X31562676Y6432389D01*
X31543734Y6447934D01*
X31522123Y6459485D01*
X31498674Y6466598D01*
X31474288Y6469000D01*
X31289000Y6469000D01*
X31289000Y8351000D01*
X32411000Y8351000D01*
X32411000Y6469000D01*
G37*
G36*
X34951000Y6469000D02*
G01*
X34765712Y6469000D01*
X34741326Y6466598D01*
X34717877Y6459485D01*
X34696266Y6447934D01*
X34677324Y6432389D01*
X34661779Y6413447D01*
X34650228Y6391836D01*
X34643115Y6368387D01*
X34640713Y6344001D01*
X34643115Y6319615D01*
X34650228Y6296166D01*
X34661779Y6274555D01*
X34677324Y6255613D01*
X34696266Y6240068D01*
X34747616Y6205757D01*
X34825759Y6127614D01*
X34887151Y6035734D01*
X34929441Y5933637D01*
X34951000Y5825253D01*
X34951000Y5714747D01*
X34929441Y5606363D01*
X34887151Y5504266D01*
X34825759Y5412386D01*
X34747614Y5334241D01*
X34655734Y5272849D01*
X34604685Y5251704D01*
X34553638Y5230559D01*
X34445254Y5209000D01*
X34334746Y5209000D01*
X34226362Y5230559D01*
X34175315Y5251704D01*
X34124266Y5272849D01*
X34032386Y5334241D01*
X33954241Y5412386D01*
X33892849Y5504266D01*
X33850559Y5606363D01*
X33829000Y5714747D01*
X33829000Y5825253D01*
X33850559Y5933637D01*
X33892849Y6035734D01*
X33954241Y6127614D01*
X34032384Y6205757D01*
X34083734Y6240068D01*
X34102676Y6255613D01*
X34118221Y6274555D01*
X34129772Y6296166D01*
X34136885Y6319615D01*
X34139287Y6344001D01*
X34136885Y6368387D01*
X34129772Y6391836D01*
X34118221Y6413447D01*
X34102676Y6432389D01*
X34083734Y6447934D01*
X34062123Y6459485D01*
X34038674Y6466598D01*
X34014288Y6469000D01*
X33829000Y6469000D01*
X33829000Y8351000D01*
X34951000Y8351000D01*
X34951000Y6469000D01*
G37*
G36*
X9551000Y6469000D02*
G01*
X9365712Y6469000D01*
X9341326Y6466598D01*
X9317877Y6459485D01*
X9296266Y6447934D01*
X9277324Y6432389D01*
X9261779Y6413447D01*
X9250228Y6391836D01*
X9243115Y6368387D01*
X9240713Y6344001D01*
X9243115Y6319615D01*
X9250228Y6296166D01*
X9261779Y6274555D01*
X9277324Y6255613D01*
X9296266Y6240068D01*
X9347616Y6205757D01*
X9425759Y6127614D01*
X9487151Y6035734D01*
X9529441Y5933637D01*
X9551000Y5825253D01*
X9551000Y5714747D01*
X9529441Y5606363D01*
X9487151Y5504266D01*
X9425759Y5412386D01*
X9347614Y5334241D01*
X9255734Y5272849D01*
X9204685Y5251704D01*
X9153638Y5230559D01*
X9045254Y5209000D01*
X8934746Y5209000D01*
X8826362Y5230559D01*
X8775315Y5251704D01*
X8724266Y5272849D01*
X8632386Y5334241D01*
X8554241Y5412386D01*
X8492849Y5504266D01*
X8450559Y5606363D01*
X8429000Y5714747D01*
X8429000Y5825253D01*
X8450559Y5933637D01*
X8492849Y6035734D01*
X8554241Y6127614D01*
X8632384Y6205757D01*
X8683734Y6240068D01*
X8702676Y6255613D01*
X8718221Y6274555D01*
X8729772Y6296166D01*
X8736885Y6319615D01*
X8739287Y6344001D01*
X8736885Y6368387D01*
X8729772Y6391836D01*
X8718221Y6413447D01*
X8702676Y6432389D01*
X8683734Y6447934D01*
X8662123Y6459485D01*
X8638674Y6466598D01*
X8614288Y6469000D01*
X8429000Y6469000D01*
X8429000Y8351000D01*
X9551000Y8351000D01*
X9551000Y6469000D01*
G37*
G36*
X37491000Y6469000D02*
G01*
X37305712Y6469000D01*
X37281326Y6466598D01*
X37257877Y6459485D01*
X37236266Y6447934D01*
X37217324Y6432389D01*
X37201779Y6413447D01*
X37190228Y6391836D01*
X37183115Y6368387D01*
X37180713Y6344001D01*
X37183115Y6319615D01*
X37190228Y6296166D01*
X37201779Y6274555D01*
X37217324Y6255613D01*
X37236266Y6240068D01*
X37287616Y6205757D01*
X37365759Y6127614D01*
X37427151Y6035734D01*
X37469441Y5933637D01*
X37491000Y5825253D01*
X37491000Y5714747D01*
X37469441Y5606363D01*
X37427151Y5504266D01*
X37365759Y5412386D01*
X37287614Y5334241D01*
X37195734Y5272849D01*
X37144685Y5251704D01*
X37093638Y5230559D01*
X36985254Y5209000D01*
X36874746Y5209000D01*
X36766362Y5230559D01*
X36715315Y5251704D01*
X36664266Y5272849D01*
X36572386Y5334241D01*
X36494241Y5412386D01*
X36432849Y5504266D01*
X36390559Y5606363D01*
X36369000Y5714747D01*
X36369000Y5825253D01*
X36390559Y5933637D01*
X36432849Y6035734D01*
X36494241Y6127614D01*
X36572384Y6205757D01*
X36623734Y6240068D01*
X36642676Y6255613D01*
X36658221Y6274555D01*
X36669772Y6296166D01*
X36676885Y6319615D01*
X36679287Y6344001D01*
X36676885Y6368387D01*
X36669772Y6391836D01*
X36658221Y6413447D01*
X36642676Y6432389D01*
X36623734Y6447934D01*
X36602123Y6459485D01*
X36578674Y6466598D01*
X36554288Y6469000D01*
X36369000Y6469000D01*
X36369000Y8351000D01*
X37491000Y8351000D01*
X37491000Y6469000D01*
G37*
G36*
X40031000Y6469000D02*
G01*
X39845712Y6469000D01*
X39821326Y6466598D01*
X39797877Y6459485D01*
X39776266Y6447934D01*
X39757324Y6432389D01*
X39741779Y6413447D01*
X39730228Y6391836D01*
X39723115Y6368387D01*
X39720713Y6344001D01*
X39723115Y6319615D01*
X39730228Y6296166D01*
X39741779Y6274555D01*
X39757324Y6255613D01*
X39776266Y6240068D01*
X39827616Y6205757D01*
X39905759Y6127614D01*
X39967151Y6035734D01*
X40009441Y5933637D01*
X40031000Y5825253D01*
X40031000Y5714747D01*
X40009441Y5606363D01*
X39967151Y5504266D01*
X39905759Y5412386D01*
X39827614Y5334241D01*
X39735734Y5272849D01*
X39684685Y5251704D01*
X39633638Y5230559D01*
X39525254Y5209000D01*
X39414746Y5209000D01*
X39306362Y5230559D01*
X39255315Y5251704D01*
X39204266Y5272849D01*
X39112386Y5334241D01*
X39034241Y5412386D01*
X38972849Y5504266D01*
X38930559Y5606363D01*
X38909000Y5714747D01*
X38909000Y5825253D01*
X38930559Y5933637D01*
X38972849Y6035734D01*
X39034241Y6127614D01*
X39112384Y6205757D01*
X39163734Y6240068D01*
X39182676Y6255613D01*
X39198221Y6274555D01*
X39209772Y6296166D01*
X39216885Y6319615D01*
X39219287Y6344001D01*
X39216885Y6368387D01*
X39209772Y6391836D01*
X39198221Y6413447D01*
X39182676Y6432389D01*
X39163734Y6447934D01*
X39142123Y6459485D01*
X39118674Y6466598D01*
X39094288Y6469000D01*
X38909000Y6469000D01*
X38909000Y8351000D01*
X40031000Y8351000D01*
X40031000Y6469000D01*
G37*
G36*
X42571000Y6469000D02*
G01*
X42385712Y6469000D01*
X42361326Y6466598D01*
X42337877Y6459485D01*
X42316266Y6447934D01*
X42297324Y6432389D01*
X42281779Y6413447D01*
X42270228Y6391836D01*
X42263115Y6368387D01*
X42260713Y6344001D01*
X42263115Y6319615D01*
X42270228Y6296166D01*
X42281779Y6274555D01*
X42297324Y6255613D01*
X42316266Y6240068D01*
X42367616Y6205757D01*
X42445759Y6127614D01*
X42507151Y6035734D01*
X42549441Y5933637D01*
X42571000Y5825253D01*
X42571000Y5714747D01*
X42549441Y5606363D01*
X42507151Y5504266D01*
X42445759Y5412386D01*
X42367614Y5334241D01*
X42275734Y5272849D01*
X42224685Y5251704D01*
X42173638Y5230559D01*
X42065254Y5209000D01*
X41954746Y5209000D01*
X41846362Y5230559D01*
X41795315Y5251704D01*
X41744266Y5272849D01*
X41652386Y5334241D01*
X41574241Y5412386D01*
X41512849Y5504266D01*
X41470559Y5606363D01*
X41449000Y5714747D01*
X41449000Y5825253D01*
X41470559Y5933637D01*
X41512849Y6035734D01*
X41574241Y6127614D01*
X41652384Y6205757D01*
X41703734Y6240068D01*
X41722676Y6255613D01*
X41738221Y6274555D01*
X41749772Y6296166D01*
X41756885Y6319615D01*
X41759287Y6344001D01*
X41756885Y6368387D01*
X41749772Y6391836D01*
X41738221Y6413447D01*
X41722676Y6432389D01*
X41703734Y6447934D01*
X41682123Y6459485D01*
X41658674Y6466598D01*
X41634288Y6469000D01*
X41449000Y6469000D01*
X41449000Y8351000D01*
X42571000Y8351000D01*
X42571000Y6469000D01*
G37*
G36*
X45111000Y6469000D02*
G01*
X44925712Y6469000D01*
X44901326Y6466598D01*
X44877877Y6459485D01*
X44856266Y6447934D01*
X44837324Y6432389D01*
X44821779Y6413447D01*
X44810228Y6391836D01*
X44803115Y6368387D01*
X44800713Y6344001D01*
X44803115Y6319615D01*
X44810228Y6296166D01*
X44821779Y6274555D01*
X44837324Y6255613D01*
X44856266Y6240068D01*
X44907616Y6205757D01*
X44985759Y6127614D01*
X45047151Y6035734D01*
X45089441Y5933637D01*
X45111000Y5825253D01*
X45111000Y5714747D01*
X45089441Y5606363D01*
X45047151Y5504266D01*
X44985759Y5412386D01*
X44907614Y5334241D01*
X44815734Y5272849D01*
X44764685Y5251704D01*
X44713638Y5230559D01*
X44605254Y5209000D01*
X44494746Y5209000D01*
X44386362Y5230559D01*
X44335315Y5251704D01*
X44284266Y5272849D01*
X44192386Y5334241D01*
X44114241Y5412386D01*
X44052849Y5504266D01*
X44010559Y5606363D01*
X43989000Y5714747D01*
X43989000Y5825253D01*
X44010559Y5933637D01*
X44052849Y6035734D01*
X44114241Y6127614D01*
X44192384Y6205757D01*
X44243734Y6240068D01*
X44262676Y6255613D01*
X44278221Y6274555D01*
X44289772Y6296166D01*
X44296885Y6319615D01*
X44299287Y6344001D01*
X44296885Y6368387D01*
X44289772Y6391836D01*
X44278221Y6413447D01*
X44262676Y6432389D01*
X44243734Y6447934D01*
X44222123Y6459485D01*
X44198674Y6466598D01*
X44174288Y6469000D01*
X43989000Y6469000D01*
X43989000Y8351000D01*
X45111000Y8351000D01*
X45111000Y6469000D01*
G37*
G36*
X47651000Y6469000D02*
G01*
X47465712Y6469000D01*
X47441326Y6466598D01*
X47417877Y6459485D01*
X47396266Y6447934D01*
X47377324Y6432389D01*
X47361779Y6413447D01*
X47350228Y6391836D01*
X47343115Y6368387D01*
X47340713Y6344001D01*
X47343115Y6319615D01*
X47350228Y6296166D01*
X47361779Y6274555D01*
X47377324Y6255613D01*
X47396266Y6240068D01*
X47447616Y6205757D01*
X47525759Y6127614D01*
X47587151Y6035734D01*
X47629441Y5933637D01*
X47651000Y5825253D01*
X47651000Y5714747D01*
X47629441Y5606363D01*
X47587151Y5504266D01*
X47525759Y5412386D01*
X47447614Y5334241D01*
X47355734Y5272849D01*
X47304685Y5251704D01*
X47253638Y5230559D01*
X47145254Y5209000D01*
X47034746Y5209000D01*
X46926362Y5230559D01*
X46875315Y5251704D01*
X46824266Y5272849D01*
X46732386Y5334241D01*
X46654241Y5412386D01*
X46592849Y5504266D01*
X46550559Y5606363D01*
X46529000Y5714747D01*
X46529000Y5825253D01*
X46550559Y5933637D01*
X46592849Y6035734D01*
X46654241Y6127614D01*
X46732384Y6205757D01*
X46783734Y6240068D01*
X46802676Y6255613D01*
X46818221Y6274555D01*
X46829772Y6296166D01*
X46836885Y6319615D01*
X46839287Y6344001D01*
X46836885Y6368387D01*
X46829772Y6391836D01*
X46818221Y6413447D01*
X46802676Y6432389D01*
X46783734Y6447934D01*
X46762123Y6459485D01*
X46738674Y6466598D01*
X46714288Y6469000D01*
X46529000Y6469000D01*
X46529000Y8351000D01*
X47651000Y8351000D01*
X47651000Y6469000D01*
G37*
G36*
X22251000Y6469000D02*
G01*
X22065712Y6469000D01*
X22041326Y6466598D01*
X22017877Y6459485D01*
X21996266Y6447934D01*
X21977324Y6432389D01*
X21961779Y6413447D01*
X21950228Y6391836D01*
X21943115Y6368387D01*
X21940713Y6344001D01*
X21943115Y6319615D01*
X21950228Y6296166D01*
X21961779Y6274555D01*
X21977324Y6255613D01*
X21996266Y6240068D01*
X22047616Y6205757D01*
X22125759Y6127614D01*
X22187151Y6035734D01*
X22229441Y5933637D01*
X22251000Y5825253D01*
X22251000Y5714747D01*
X22229441Y5606363D01*
X22187151Y5504266D01*
X22125759Y5412386D01*
X22047614Y5334241D01*
X21955734Y5272849D01*
X21904685Y5251704D01*
X21853638Y5230559D01*
X21745254Y5209000D01*
X21634746Y5209000D01*
X21526362Y5230559D01*
X21475315Y5251704D01*
X21424266Y5272849D01*
X21332386Y5334241D01*
X21254241Y5412386D01*
X21192849Y5504266D01*
X21150559Y5606363D01*
X21129000Y5714747D01*
X21129000Y5825253D01*
X21150559Y5933637D01*
X21192849Y6035734D01*
X21254241Y6127614D01*
X21332384Y6205757D01*
X21383734Y6240068D01*
X21402676Y6255613D01*
X21418221Y6274555D01*
X21429772Y6296166D01*
X21436885Y6319615D01*
X21439287Y6344001D01*
X21436885Y6368387D01*
X21429772Y6391836D01*
X21418221Y6413447D01*
X21402676Y6432389D01*
X21383734Y6447934D01*
X21362123Y6459485D01*
X21338674Y6466598D01*
X21314288Y6469000D01*
X21129000Y6469000D01*
X21129000Y8351000D01*
X22251000Y8351000D01*
X22251000Y6469000D01*
G37*
G36*
X19711000Y6469000D02*
G01*
X19525712Y6469000D01*
X19501326Y6466598D01*
X19477877Y6459485D01*
X19456266Y6447934D01*
X19437324Y6432389D01*
X19421779Y6413447D01*
X19410228Y6391836D01*
X19403115Y6368387D01*
X19400713Y6344001D01*
X19403115Y6319615D01*
X19410228Y6296166D01*
X19421779Y6274555D01*
X19437324Y6255613D01*
X19456266Y6240068D01*
X19507616Y6205757D01*
X19585759Y6127614D01*
X19647151Y6035734D01*
X19689441Y5933637D01*
X19711000Y5825253D01*
X19711000Y5714747D01*
X19689441Y5606363D01*
X19647151Y5504266D01*
X19585759Y5412386D01*
X19507614Y5334241D01*
X19415734Y5272849D01*
X19364685Y5251704D01*
X19313638Y5230559D01*
X19205254Y5209000D01*
X19094746Y5209000D01*
X18986362Y5230559D01*
X18935315Y5251704D01*
X18884266Y5272849D01*
X18792386Y5334241D01*
X18714241Y5412386D01*
X18652849Y5504266D01*
X18610559Y5606363D01*
X18589000Y5714747D01*
X18589000Y5825253D01*
X18610559Y5933637D01*
X18652849Y6035734D01*
X18714241Y6127614D01*
X18792384Y6205757D01*
X18843734Y6240068D01*
X18862676Y6255613D01*
X18878221Y6274555D01*
X18889772Y6296166D01*
X18896885Y6319615D01*
X18899287Y6344001D01*
X18896885Y6368387D01*
X18889772Y6391836D01*
X18878221Y6413447D01*
X18862676Y6432389D01*
X18843734Y6447934D01*
X18822123Y6459485D01*
X18798674Y6466598D01*
X18774288Y6469000D01*
X18589000Y6469000D01*
X18589000Y8351000D01*
X19711000Y8351000D01*
X19711000Y6469000D01*
G37*
G36*
X17171000Y6469000D02*
G01*
X16985712Y6469000D01*
X16961326Y6466598D01*
X16937877Y6459485D01*
X16916266Y6447934D01*
X16897324Y6432389D01*
X16881779Y6413447D01*
X16870228Y6391836D01*
X16863115Y6368387D01*
X16860713Y6344001D01*
X16863115Y6319615D01*
X16870228Y6296166D01*
X16881779Y6274555D01*
X16897324Y6255613D01*
X16916266Y6240068D01*
X16967616Y6205757D01*
X17045759Y6127614D01*
X17107151Y6035734D01*
X17149441Y5933637D01*
X17171000Y5825253D01*
X17171000Y5714747D01*
X17149441Y5606363D01*
X17107151Y5504266D01*
X17045759Y5412386D01*
X16967614Y5334241D01*
X16875734Y5272849D01*
X16824685Y5251704D01*
X16773638Y5230559D01*
X16665254Y5209000D01*
X16554746Y5209000D01*
X16446362Y5230559D01*
X16395315Y5251704D01*
X16344266Y5272849D01*
X16252386Y5334241D01*
X16174241Y5412386D01*
X16112849Y5504266D01*
X16070559Y5606363D01*
X16049000Y5714747D01*
X16049000Y5825253D01*
X16070559Y5933637D01*
X16112849Y6035734D01*
X16174241Y6127614D01*
X16252384Y6205757D01*
X16303734Y6240068D01*
X16322676Y6255613D01*
X16338221Y6274555D01*
X16349772Y6296166D01*
X16356885Y6319615D01*
X16359287Y6344001D01*
X16356885Y6368387D01*
X16349772Y6391836D01*
X16338221Y6413447D01*
X16322676Y6432389D01*
X16303734Y6447934D01*
X16282123Y6459485D01*
X16258674Y6466598D01*
X16234288Y6469000D01*
X16049000Y6469000D01*
X16049000Y8351000D01*
X17171000Y8351000D01*
X17171000Y6469000D01*
G37*
G36*
X14631000Y6469000D02*
G01*
X14445712Y6469000D01*
X14421326Y6466598D01*
X14397877Y6459485D01*
X14376266Y6447934D01*
X14357324Y6432389D01*
X14341779Y6413447D01*
X14330228Y6391836D01*
X14323115Y6368387D01*
X14320713Y6344001D01*
X14323115Y6319615D01*
X14330228Y6296166D01*
X14341779Y6274555D01*
X14357324Y6255613D01*
X14376266Y6240068D01*
X14427616Y6205757D01*
X14505759Y6127614D01*
X14567151Y6035734D01*
X14609441Y5933637D01*
X14631000Y5825253D01*
X14631000Y5714747D01*
X14609441Y5606363D01*
X14567151Y5504266D01*
X14505759Y5412386D01*
X14427614Y5334241D01*
X14335734Y5272849D01*
X14284685Y5251704D01*
X14233638Y5230559D01*
X14125254Y5209000D01*
X14014746Y5209000D01*
X13906362Y5230559D01*
X13855315Y5251704D01*
X13804266Y5272849D01*
X13712386Y5334241D01*
X13634241Y5412386D01*
X13572849Y5504266D01*
X13530559Y5606363D01*
X13509000Y5714747D01*
X13509000Y5825253D01*
X13530559Y5933637D01*
X13572849Y6035734D01*
X13634241Y6127614D01*
X13712384Y6205757D01*
X13763734Y6240068D01*
X13782676Y6255613D01*
X13798221Y6274555D01*
X13809772Y6296166D01*
X13816885Y6319615D01*
X13819287Y6344001D01*
X13816885Y6368387D01*
X13809772Y6391836D01*
X13798221Y6413447D01*
X13782676Y6432389D01*
X13763734Y6447934D01*
X13742123Y6459485D01*
X13718674Y6466598D01*
X13694288Y6469000D01*
X13509000Y6469000D01*
X13509000Y8351000D01*
X14631000Y8351000D01*
X14631000Y6469000D01*
G37*
G36*
X12091000Y6469000D02*
G01*
X11905712Y6469000D01*
X11881326Y6466598D01*
X11857877Y6459485D01*
X11836266Y6447934D01*
X11817324Y6432389D01*
X11801779Y6413447D01*
X11790228Y6391836D01*
X11783115Y6368387D01*
X11780713Y6344001D01*
X11783115Y6319615D01*
X11790228Y6296166D01*
X11801779Y6274555D01*
X11817324Y6255613D01*
X11836266Y6240068D01*
X11887616Y6205757D01*
X11965759Y6127614D01*
X12027151Y6035734D01*
X12069441Y5933637D01*
X12091000Y5825253D01*
X12091000Y5714747D01*
X12069441Y5606363D01*
X12027151Y5504266D01*
X11965759Y5412386D01*
X11887614Y5334241D01*
X11795734Y5272849D01*
X11744685Y5251704D01*
X11693638Y5230559D01*
X11585254Y5209000D01*
X11474746Y5209000D01*
X11366362Y5230559D01*
X11315315Y5251704D01*
X11264266Y5272849D01*
X11172386Y5334241D01*
X11094241Y5412386D01*
X11032849Y5504266D01*
X10990559Y5606363D01*
X10969000Y5714747D01*
X10969000Y5825253D01*
X10990559Y5933637D01*
X11032849Y6035734D01*
X11094241Y6127614D01*
X11172384Y6205757D01*
X11223734Y6240068D01*
X11242676Y6255613D01*
X11258221Y6274555D01*
X11269772Y6296166D01*
X11276885Y6319615D01*
X11279287Y6344001D01*
X11276885Y6368387D01*
X11269772Y6391836D01*
X11258221Y6413447D01*
X11242676Y6432389D01*
X11223734Y6447934D01*
X11202123Y6459485D01*
X11178674Y6466598D01*
X11154288Y6469000D01*
X10969000Y6469000D01*
X10969000Y8351000D01*
X12091000Y8351000D01*
X12091000Y6469000D01*
G37*
G36*
X7011000Y6469000D02*
G01*
X6825712Y6469000D01*
X6801326Y6466598D01*
X6777877Y6459485D01*
X6756266Y6447934D01*
X6737324Y6432389D01*
X6721779Y6413447D01*
X6710228Y6391836D01*
X6703115Y6368387D01*
X6700713Y6344001D01*
X6703115Y6319615D01*
X6710228Y6296166D01*
X6721779Y6274555D01*
X6737324Y6255613D01*
X6756266Y6240068D01*
X6807616Y6205757D01*
X6885759Y6127614D01*
X6947151Y6035734D01*
X6989441Y5933637D01*
X7011000Y5825253D01*
X7011000Y5714747D01*
X6989441Y5606363D01*
X6947151Y5504266D01*
X6885759Y5412386D01*
X6807614Y5334241D01*
X6715734Y5272849D01*
X6664685Y5251704D01*
X6613638Y5230559D01*
X6505254Y5209000D01*
X6394746Y5209000D01*
X6286362Y5230559D01*
X6235315Y5251704D01*
X6184266Y5272849D01*
X6092386Y5334241D01*
X6014241Y5412386D01*
X5952849Y5504266D01*
X5910559Y5606363D01*
X5889000Y5714747D01*
X5889000Y5825253D01*
X5910559Y5933637D01*
X5952849Y6035734D01*
X6014241Y6127614D01*
X6092384Y6205757D01*
X6143734Y6240068D01*
X6162676Y6255613D01*
X6178221Y6274555D01*
X6189772Y6296166D01*
X6196885Y6319615D01*
X6199287Y6344001D01*
X6196885Y6368387D01*
X6189772Y6391836D01*
X6178221Y6413447D01*
X6162676Y6432389D01*
X6143734Y6447934D01*
X6122123Y6459485D01*
X6098674Y6466598D01*
X6074288Y6469000D01*
X5889000Y6469000D01*
X5889000Y8351000D01*
X7011000Y8351000D01*
X7011000Y6469000D01*
G37*
G36*
X4471000Y6469000D02*
G01*
X4285712Y6469000D01*
X4261326Y6466598D01*
X4237877Y6459485D01*
X4216266Y6447934D01*
X4197324Y6432389D01*
X4181779Y6413447D01*
X4170228Y6391836D01*
X4163115Y6368387D01*
X4160713Y6344001D01*
X4163115Y6319615D01*
X4170228Y6296166D01*
X4181779Y6274555D01*
X4197324Y6255613D01*
X4216266Y6240068D01*
X4267616Y6205757D01*
X4345759Y6127614D01*
X4407151Y6035734D01*
X4449441Y5933637D01*
X4471000Y5825253D01*
X4471000Y5714747D01*
X4449441Y5606363D01*
X4407151Y5504266D01*
X4345759Y5412386D01*
X4267614Y5334241D01*
X4175734Y5272849D01*
X4124685Y5251704D01*
X4073638Y5230559D01*
X3965254Y5209000D01*
X3854746Y5209000D01*
X3746362Y5230559D01*
X3695315Y5251704D01*
X3644266Y5272849D01*
X3552386Y5334241D01*
X3474241Y5412386D01*
X3412849Y5504266D01*
X3370559Y5606363D01*
X3349000Y5714747D01*
X3349000Y5825253D01*
X3370559Y5933637D01*
X3412849Y6035734D01*
X3474241Y6127614D01*
X3552384Y6205757D01*
X3603734Y6240068D01*
X3622676Y6255613D01*
X3638221Y6274555D01*
X3649772Y6296166D01*
X3656885Y6319615D01*
X3659287Y6344001D01*
X3656885Y6368387D01*
X3649772Y6391836D01*
X3638221Y6413447D01*
X3622676Y6432389D01*
X3603734Y6447934D01*
X3582123Y6459485D01*
X3558674Y6466598D01*
X3534288Y6469000D01*
X3349000Y6469000D01*
X3349000Y8351000D01*
X4471000Y8351000D01*
X4471000Y6469000D01*
G37*
G36*
X24791000Y6469000D02*
G01*
X24605712Y6469000D01*
X24581326Y6466598D01*
X24557877Y6459485D01*
X24536266Y6447934D01*
X24517324Y6432389D01*
X24501779Y6413447D01*
X24490228Y6391836D01*
X24483115Y6368387D01*
X24480713Y6344001D01*
X24483115Y6319615D01*
X24490228Y6296166D01*
X24501779Y6274555D01*
X24517324Y6255613D01*
X24536266Y6240068D01*
X24587616Y6205757D01*
X24665759Y6127614D01*
X24727151Y6035734D01*
X24769441Y5933637D01*
X24791000Y5825253D01*
X24791000Y5714747D01*
X24769441Y5606363D01*
X24727151Y5504266D01*
X24665759Y5412386D01*
X24587614Y5334241D01*
X24495734Y5272849D01*
X24444685Y5251704D01*
X24393638Y5230559D01*
X24285254Y5209000D01*
X24174746Y5209000D01*
X24066362Y5230559D01*
X24015315Y5251704D01*
X23964266Y5272849D01*
X23872386Y5334241D01*
X23794241Y5412386D01*
X23732849Y5504266D01*
X23690559Y5606363D01*
X23669000Y5714747D01*
X23669000Y5825253D01*
X23690559Y5933637D01*
X23732849Y6035734D01*
X23794241Y6127614D01*
X23872384Y6205757D01*
X23923734Y6240068D01*
X23942676Y6255613D01*
X23958221Y6274555D01*
X23969772Y6296166D01*
X23976885Y6319615D01*
X23979287Y6344001D01*
X23976885Y6368387D01*
X23969772Y6391836D01*
X23958221Y6413447D01*
X23942676Y6432389D01*
X23923734Y6447934D01*
X23902123Y6459485D01*
X23878674Y6466598D01*
X23854288Y6469000D01*
X23669000Y6469000D01*
X23669000Y8351000D01*
X24791000Y8351000D01*
X24791000Y6469000D01*
G37*
G36*
X1931000Y6469000D02*
G01*
X1745712Y6469000D01*
X1721326Y6466598D01*
X1697877Y6459485D01*
X1676266Y6447934D01*
X1657324Y6432389D01*
X1641779Y6413447D01*
X1630228Y6391836D01*
X1623115Y6368387D01*
X1620713Y6344001D01*
X1623115Y6319615D01*
X1630228Y6296166D01*
X1641779Y6274555D01*
X1657324Y6255613D01*
X1676266Y6240068D01*
X1727616Y6205757D01*
X1805759Y6127614D01*
X1867151Y6035734D01*
X1909441Y5933637D01*
X1931000Y5825253D01*
X1931000Y5714747D01*
X1909441Y5606363D01*
X1867151Y5504266D01*
X1805759Y5412386D01*
X1727614Y5334241D01*
X1635734Y5272849D01*
X1584685Y5251704D01*
X1533638Y5230559D01*
X1425254Y5209000D01*
X1314746Y5209000D01*
X1206362Y5230559D01*
X1155315Y5251704D01*
X1104266Y5272849D01*
X1012386Y5334241D01*
X934241Y5412386D01*
X872849Y5504266D01*
X830559Y5606363D01*
X809000Y5714747D01*
X809000Y5825253D01*
X830559Y5933637D01*
X872849Y6035734D01*
X934241Y6127614D01*
X1012384Y6205757D01*
X1063734Y6240068D01*
X1082676Y6255613D01*
X1098221Y6274555D01*
X1109772Y6296166D01*
X1116885Y6319615D01*
X1119287Y6344001D01*
X1116885Y6368387D01*
X1109772Y6391836D01*
X1098221Y6413447D01*
X1082676Y6432389D01*
X1063734Y6447934D01*
X1042123Y6459485D01*
X1018674Y6466598D01*
X994288Y6469000D01*
X809000Y6469000D01*
X809000Y8351000D01*
X1931000Y8351000D01*
X1931000Y6469000D01*
G37*
G36*
X50191000Y6469000D02*
G01*
X50005712Y6469000D01*
X49981326Y6466598D01*
X49957877Y6459485D01*
X49936266Y6447934D01*
X49917324Y6432389D01*
X49901779Y6413447D01*
X49890228Y6391836D01*
X49883115Y6368387D01*
X49880713Y6344001D01*
X49883115Y6319615D01*
X49890228Y6296166D01*
X49901779Y6274555D01*
X49917324Y6255613D01*
X49936266Y6240068D01*
X49987616Y6205757D01*
X50065759Y6127614D01*
X50127151Y6035734D01*
X50169441Y5933637D01*
X50191000Y5825253D01*
X50191000Y5714747D01*
X50169441Y5606363D01*
X50127151Y5504266D01*
X50065759Y5412386D01*
X49987614Y5334241D01*
X49895734Y5272849D01*
X49844685Y5251704D01*
X49793638Y5230559D01*
X49685254Y5209000D01*
X49574746Y5209000D01*
X49466362Y5230559D01*
X49415315Y5251704D01*
X49364266Y5272849D01*
X49272386Y5334241D01*
X49194241Y5412386D01*
X49132849Y5504266D01*
X49090559Y5606363D01*
X49069000Y5714747D01*
X49069000Y5825253D01*
X49090559Y5933637D01*
X49132849Y6035734D01*
X49194241Y6127614D01*
X49272384Y6205757D01*
X49323734Y6240068D01*
X49342676Y6255613D01*
X49358221Y6274555D01*
X49369772Y6296166D01*
X49376885Y6319615D01*
X49379287Y6344001D01*
X49376885Y6368387D01*
X49369772Y6391836D01*
X49358221Y6413447D01*
X49342676Y6432389D01*
X49323734Y6447934D01*
X49302123Y6459485D01*
X49278674Y6466598D01*
X49254288Y6469000D01*
X49069000Y6469000D01*
X49069000Y8351000D01*
X50191000Y8351000D01*
X50191000Y6469000D01*
G37*
G36*
X8951000Y11699000D02*
G01*
X6349000Y11699000D01*
X6349000Y14101000D01*
X8951000Y14101000D01*
X8951000Y11699000D01*
G37*
G36*
X4651000Y11699000D02*
G01*
X2049000Y11699000D01*
X2049000Y14101000D01*
X4651000Y14101000D01*
X4651000Y11699000D01*
G37*
G36*
X77208015Y14223027D02*
G01*
X77311879Y14191521D01*
X77338344Y14177375D01*
X77407600Y14140357D01*
X77491501Y14071501D01*
X77560357Y13987600D01*
X77596995Y13919055D01*
X77611521Y13891879D01*
X77643027Y13788015D01*
X77653666Y13680000D01*
X77643027Y13571985D01*
X77611521Y13468121D01*
X77611519Y13468118D01*
X77560357Y13372400D01*
X77491501Y13288499D01*
X77407600Y13219643D01*
X77339055Y13183005D01*
X77311879Y13168479D01*
X77208015Y13136973D01*
X77127067Y13129000D01*
X76472933Y13129000D01*
X76391985Y13136973D01*
X76288121Y13168479D01*
X76260945Y13183005D01*
X76192400Y13219643D01*
X76108499Y13288499D01*
X76039643Y13372400D01*
X75988481Y13468118D01*
X75988479Y13468121D01*
X75956973Y13571985D01*
X75946334Y13680000D01*
X75956973Y13788015D01*
X75988479Y13891879D01*
X76003005Y13919055D01*
X76039643Y13987600D01*
X76108499Y14071501D01*
X76192400Y14140357D01*
X76261656Y14177375D01*
X76288121Y14191521D01*
X76391985Y14223027D01*
X76472933Y14231000D01*
X77127067Y14231000D01*
X77208015Y14223027D01*
G37*
G36*
X73278015Y22863027D02*
G01*
X73381879Y22831521D01*
X73409055Y22816995D01*
X73477600Y22780357D01*
X73561501Y22711501D01*
X73630357Y22627600D01*
X73666995Y22559055D01*
X73681521Y22531879D01*
X73713027Y22428015D01*
X73723666Y22320000D01*
X73713027Y22211985D01*
X73681521Y22108121D01*
X73681519Y22108118D01*
X73630357Y22012400D01*
X73561501Y21928499D01*
X73477600Y21859643D01*
X73422014Y21829932D01*
X73381879Y21808479D01*
X73278015Y21776973D01*
X73197067Y21769000D01*
X72605999Y21769000D01*
X72581613Y21766598D01*
X72558164Y21759485D01*
X72536553Y21747934D01*
X72517611Y21732389D01*
X72502066Y21713447D01*
X72490515Y21691836D01*
X72483402Y21668387D01*
X72481000Y21644001D01*
X72481000Y14355999D01*
X72483402Y14331613D01*
X72490515Y14308164D01*
X72502066Y14286553D01*
X72517611Y14267611D01*
X72536553Y14252066D01*
X72558164Y14240515D01*
X72581613Y14233402D01*
X72605999Y14231000D01*
X73197067Y14231000D01*
X73278015Y14223027D01*
X73381879Y14191521D01*
X73408344Y14177375D01*
X73477600Y14140357D01*
X73561501Y14071501D01*
X73630357Y13987600D01*
X73666995Y13919055D01*
X73681521Y13891879D01*
X73713027Y13788015D01*
X73723666Y13680000D01*
X73713027Y13571985D01*
X73681521Y13468121D01*
X73681519Y13468118D01*
X73630357Y13372400D01*
X73561501Y13288499D01*
X73477600Y13219643D01*
X73409055Y13183005D01*
X73381879Y13168479D01*
X73278015Y13136973D01*
X73197067Y13129000D01*
X72042933Y13129000D01*
X71961985Y13136973D01*
X71858121Y13168479D01*
X71830945Y13183005D01*
X71762400Y13219643D01*
X71678499Y13288499D01*
X71609643Y13372400D01*
X71558481Y13468118D01*
X71558479Y13468121D01*
X71526973Y13571985D01*
X71516334Y13680000D01*
X71526973Y13788015D01*
X71558479Y13891879D01*
X71573005Y13919055D01*
X71609643Y13987600D01*
X71678499Y14071501D01*
X71762399Y14140355D01*
X71762398Y14140355D01*
X71762400Y14140356D01*
X71806193Y14163764D01*
X71826563Y14177375D01*
X71843890Y14194702D01*
X71857504Y14215076D01*
X71866881Y14237715D01*
X71871662Y14261748D01*
X71871662Y14286252D01*
X71866882Y14310286D01*
X71857505Y14332924D01*
X71843891Y14353299D01*
X71826564Y14370626D01*
X71806190Y14384240D01*
X71783551Y14393617D01*
X71759518Y14398398D01*
X71747265Y14399000D01*
X70929000Y14399000D01*
X70929000Y21601000D01*
X71747265Y21601000D01*
X71771651Y21603402D01*
X71795100Y21610515D01*
X71816711Y21622066D01*
X71835653Y21637611D01*
X71851198Y21656553D01*
X71862749Y21678164D01*
X71869862Y21701613D01*
X71872264Y21725999D01*
X71869862Y21750385D01*
X71862749Y21773834D01*
X71851198Y21795445D01*
X71835653Y21814387D01*
X71816711Y21829932D01*
X71806198Y21836233D01*
X71762400Y21859644D01*
X71678499Y21928499D01*
X71609643Y22012400D01*
X71558481Y22108118D01*
X71558479Y22108121D01*
X71526973Y22211985D01*
X71516334Y22320000D01*
X71526973Y22428015D01*
X71558479Y22531879D01*
X71573005Y22559055D01*
X71609643Y22627600D01*
X71678499Y22711501D01*
X71762400Y22780357D01*
X71830945Y22816995D01*
X71858121Y22831521D01*
X71961985Y22863027D01*
X72042933Y22871000D01*
X73197067Y22871000D01*
X73278015Y22863027D01*
G37*
G36*
X73259672Y15471551D02*
G01*
X73259674Y15471550D01*
X73259675Y15471550D01*
X73328103Y15443207D01*
X73389686Y15402058D01*
X73442058Y15349686D01*
X73483207Y15288103D01*
X73511550Y15219675D01*
X73526000Y15147033D01*
X73526000Y15072967D01*
X73511550Y15000325D01*
X73483207Y14931897D01*
X73442058Y14870314D01*
X73389686Y14817942D01*
X73328103Y14776793D01*
X73259675Y14748450D01*
X73259674Y14748450D01*
X73259672Y14748449D01*
X73187034Y14734000D01*
X73112966Y14734000D01*
X73040328Y14748449D01*
X73040326Y14748450D01*
X73040325Y14748450D01*
X72971897Y14776793D01*
X72910314Y14817942D01*
X72857942Y14870314D01*
X72816793Y14931897D01*
X72788450Y15000325D01*
X72774000Y15072967D01*
X72774000Y15147033D01*
X72788450Y15219675D01*
X72816793Y15288103D01*
X72857942Y15349686D01*
X72910314Y15402058D01*
X72971897Y15443207D01*
X73040325Y15471550D01*
X73040326Y15471550D01*
X73040328Y15471551D01*
X73112966Y15486000D01*
X73187034Y15486000D01*
X73259672Y15471551D01*
G37*
G36*
X68194683Y17272275D02*
G01*
X68225143Y17263034D01*
X68253223Y17248026D01*
X68277831Y17227831D01*
X68298026Y17203223D01*
X68313034Y17175143D01*
X68322275Y17144683D01*
X68326000Y17106860D01*
X68326000Y16393140D01*
X68322275Y16355317D01*
X68313034Y16324857D01*
X68298026Y16296777D01*
X68277831Y16272169D01*
X68253223Y16251974D01*
X68225143Y16236966D01*
X68194683Y16227725D01*
X68156860Y16224000D01*
X67593140Y16224000D01*
X67555317Y16227725D01*
X67524857Y16236966D01*
X67496777Y16251974D01*
X67472169Y16272169D01*
X67451974Y16296777D01*
X67436966Y16324857D01*
X67427725Y16355317D01*
X67424000Y16393140D01*
X67424000Y17106860D01*
X67427725Y17144683D01*
X67436966Y17175143D01*
X67451974Y17203223D01*
X67472169Y17227831D01*
X67496777Y17248026D01*
X67524857Y17263034D01*
X67555317Y17272275D01*
X67593140Y17276000D01*
X68156860Y17276000D01*
X68194683Y17272275D01*
G37*
G36*
X66544683Y17272275D02*
G01*
X66575143Y17263034D01*
X66603223Y17248026D01*
X66627831Y17227831D01*
X66648026Y17203223D01*
X66663034Y17175143D01*
X66672275Y17144683D01*
X66676000Y17106860D01*
X66676000Y16393140D01*
X66672275Y16355317D01*
X66663034Y16324857D01*
X66648026Y16296777D01*
X66627831Y16272169D01*
X66603223Y16251974D01*
X66575143Y16236966D01*
X66544683Y16227725D01*
X66506860Y16224000D01*
X65943140Y16224000D01*
X65905317Y16227725D01*
X65874857Y16236966D01*
X65846777Y16251974D01*
X65822169Y16272169D01*
X65801974Y16296777D01*
X65786966Y16324857D01*
X65777725Y16355317D01*
X65774000Y16393140D01*
X65774000Y17106860D01*
X65777725Y17144683D01*
X65786966Y17175143D01*
X65801974Y17203223D01*
X65822169Y17227831D01*
X65846777Y17248026D01*
X65874857Y17263034D01*
X65905317Y17272275D01*
X65943140Y17276000D01*
X66506860Y17276000D01*
X66544683Y17272275D01*
G37*
G36*
X54818433Y19365107D02*
G01*
X54908657Y19347161D01*
X55014267Y19303415D01*
X55163621Y19241551D01*
X55163622Y19241550D01*
X55393086Y19088228D01*
X55588228Y18893086D01*
X55690675Y18739763D01*
X55741551Y18663621D01*
X55847161Y18408656D01*
X55901000Y18137988D01*
X55901000Y17862012D01*
X55847161Y17591344D01*
X55741551Y17336379D01*
X55741550Y17336378D01*
X55588228Y17106914D01*
X55393086Y16911772D01*
X55239763Y16809325D01*
X55163621Y16758449D01*
X55014267Y16696585D01*
X54908657Y16652839D01*
X54818433Y16634893D01*
X54637988Y16599000D01*
X54362012Y16599000D01*
X54181567Y16634893D01*
X54091343Y16652839D01*
X53985733Y16696585D01*
X53836379Y16758449D01*
X53760237Y16809325D01*
X53606914Y16911772D01*
X53411772Y17106914D01*
X53258450Y17336378D01*
X53258449Y17336379D01*
X53152839Y17591344D01*
X53099000Y17862012D01*
X53099000Y18137988D01*
X53152839Y18408656D01*
X53258449Y18663621D01*
X53309325Y18739763D01*
X53411772Y18893086D01*
X53606914Y19088228D01*
X53836378Y19241550D01*
X53836379Y19241551D01*
X53985733Y19303415D01*
X54091343Y19347161D01*
X54181567Y19365107D01*
X54362012Y19401000D01*
X54637988Y19401000D01*
X54818433Y19365107D01*
G37*
G36*
X68194683Y19972275D02*
G01*
X68225143Y19963034D01*
X68253223Y19948026D01*
X68277831Y19927831D01*
X68298026Y19903223D01*
X68313034Y19875143D01*
X68322275Y19844683D01*
X68326000Y19806860D01*
X68326000Y19093140D01*
X68322275Y19055317D01*
X68313034Y19024857D01*
X68298026Y18996777D01*
X68277831Y18972169D01*
X68253223Y18951974D01*
X68225143Y18936966D01*
X68194683Y18927725D01*
X68156860Y18924000D01*
X67593140Y18924000D01*
X67555317Y18927725D01*
X67524857Y18936966D01*
X67496777Y18951974D01*
X67472169Y18972169D01*
X67451974Y18996777D01*
X67436966Y19024857D01*
X67427725Y19055317D01*
X67424000Y19093140D01*
X67424000Y19806860D01*
X67427725Y19844683D01*
X67436966Y19875143D01*
X67451974Y19903223D01*
X67472169Y19927831D01*
X67496777Y19948026D01*
X67524857Y19963034D01*
X67555317Y19972275D01*
X67593140Y19976000D01*
X68156860Y19976000D01*
X68194683Y19972275D01*
G37*
G36*
X66544683Y19972275D02*
G01*
X66575143Y19963034D01*
X66603223Y19948026D01*
X66627831Y19927831D01*
X66648026Y19903223D01*
X66663034Y19875143D01*
X66672275Y19844683D01*
X66676000Y19806860D01*
X66676000Y19093140D01*
X66672275Y19055317D01*
X66663034Y19024857D01*
X66648026Y18996777D01*
X66627831Y18972169D01*
X66603223Y18951974D01*
X66575143Y18936966D01*
X66544683Y18927725D01*
X66506860Y18924000D01*
X65943140Y18924000D01*
X65905317Y18927725D01*
X65874857Y18936966D01*
X65846777Y18951974D01*
X65822169Y18972169D01*
X65801974Y18996777D01*
X65786966Y19024857D01*
X65777725Y19055317D01*
X65774000Y19093140D01*
X65774000Y19806860D01*
X65777725Y19844683D01*
X65786966Y19875143D01*
X65801974Y19903223D01*
X65822169Y19927831D01*
X65846777Y19948026D01*
X65874857Y19963034D01*
X65905317Y19972275D01*
X65943140Y19976000D01*
X66506860Y19976000D01*
X66544683Y19972275D01*
G37*
G36*
X73259672Y21251551D02*
G01*
X73259674Y21251550D01*
X73259675Y21251550D01*
X73328103Y21223207D01*
X73389686Y21182058D01*
X73442058Y21129686D01*
X73483207Y21068103D01*
X73511550Y20999675D01*
X73526000Y20927033D01*
X73526000Y20852967D01*
X73511550Y20780325D01*
X73483207Y20711897D01*
X73442058Y20650314D01*
X73389686Y20597942D01*
X73328103Y20556793D01*
X73259675Y20528450D01*
X73259674Y20528450D01*
X73259672Y20528449D01*
X73187034Y20514000D01*
X73112966Y20514000D01*
X73040328Y20528449D01*
X73040326Y20528450D01*
X73040325Y20528450D01*
X72971897Y20556793D01*
X72910314Y20597942D01*
X72857942Y20650314D01*
X72816793Y20711897D01*
X72788450Y20780325D01*
X72774000Y20852967D01*
X72774000Y20927033D01*
X72788450Y20999675D01*
X72816793Y21068103D01*
X72857942Y21129686D01*
X72910314Y21182058D01*
X72971897Y21223207D01*
X73040325Y21251550D01*
X73040326Y21251550D01*
X73040328Y21251551D01*
X73112966Y21266000D01*
X73187034Y21266000D01*
X73259672Y21251551D01*
G37*
G36*
X77208015Y22863027D02*
G01*
X77311879Y22831521D01*
X77339055Y22816995D01*
X77407600Y22780357D01*
X77491501Y22711501D01*
X77560357Y22627600D01*
X77596995Y22559055D01*
X77611521Y22531879D01*
X77643027Y22428015D01*
X77653666Y22320000D01*
X77643027Y22211985D01*
X77611521Y22108121D01*
X77611519Y22108118D01*
X77560357Y22012400D01*
X77491501Y21928499D01*
X77407600Y21859643D01*
X77352014Y21829932D01*
X77311879Y21808479D01*
X77208015Y21776973D01*
X77127067Y21769000D01*
X76472933Y21769000D01*
X76391985Y21776973D01*
X76288121Y21808479D01*
X76247986Y21829932D01*
X76192400Y21859643D01*
X76108499Y21928499D01*
X76039643Y22012400D01*
X75988481Y22108118D01*
X75988479Y22108121D01*
X75956973Y22211985D01*
X75946334Y22320000D01*
X75956973Y22428015D01*
X75988479Y22531879D01*
X76003005Y22559055D01*
X76039643Y22627600D01*
X76108499Y22711501D01*
X76192400Y22780357D01*
X76260945Y22816995D01*
X76288121Y22831521D01*
X76391985Y22863027D01*
X76472933Y22871000D01*
X77127067Y22871000D01*
X77208015Y22863027D01*
G37*
M02*
