M48
; DRILL file {KiCad (5.1.5)-3} date 13/11/2021 16:06:53
; FORMAT={-:-/ absolute / metric / decimal}
; #@! TF.CreationDate,2021-11-13T16:06:53+01:00
; #@! TF.GenerationSoftware,Kicad,Pcbnew,(5.1.5)-3
; #@! TF.FileFunction,NonPlated,1,2,NPTH
FMAT,2
METRIC
T1C0.650
T2C1.020
T3C1.800
T4C2.700
%
G90
G05
T1
X73.15Y20.89
X73.15Y15.11
T2
X1.37Y5.77
X1.37Y3.23
X3.91Y5.77
X3.91Y3.23
X6.45Y5.77
X6.45Y3.23
X8.99Y5.77
X8.99Y3.23
X11.53Y5.77
X11.53Y3.23
X14.07Y5.77
X14.07Y3.23
X16.61Y5.77
X16.61Y3.23
X19.15Y5.77
X19.15Y3.23
X21.69Y5.77
X21.69Y3.23
X24.23Y5.77
X24.23Y3.23
X26.77Y5.77
X26.77Y3.23
X29.31Y5.77
X29.31Y3.23
X31.85Y5.77
X31.85Y3.23
X34.39Y5.77
X34.39Y3.23
X36.93Y5.77
X36.93Y3.23
X39.47Y5.77
X39.47Y3.23
X42.01Y5.77
X42.01Y3.23
X44.55Y5.77
X44.55Y3.23
X47.09Y5.77
X47.09Y3.23
X49.63Y5.77
X49.63Y3.23
T3
X2.64Y4.5
X48.36Y4.5
X45.82Y4.5
X5.18Y4.5
T4
X54.5Y18.0
T0
M30
